<?xml version="1.0" encoding="UTF-8"?>
<svg id="Layer_1" data-name="Layer 1" xmlns="http://www.w3.org/2000/svg" viewBox="0 0 326.04 213.95">
  <defs>
    <style>
      .cls-1 {
        fill: #010101;
      }

      .cls-2 {
        fill: #231f20;
      }

      .cls-3 {
        fill: #fff;
      }
    </style>
  </defs>
  <g>
    <rect class="cls-1" x="30.55" y="22.46" width="263.42" height="146.83" rx="10.45" ry="10.45"/>
    <path class="cls-3" d="M283.53,23.71c5.06,0,9.2,4.14,9.2,9.2v125.93c0,5.06-4.14,9.2-9.2,9.2H41c-5.06,0-9.2-4.14-9.2-9.2V32.91c0-5.06,4.14-9.2,9.2-9.2h242.53M283.53,21.21H41c-6.45,0-11.7,5.25-11.7,11.7v125.93c0,6.45,5.25,11.7,11.7,11.7h242.53c6.45,0,11.7-5.25,11.7-11.7V32.91c0-6.45-5.25-11.7-11.7-11.7h0Z"/>
  </g>
  <g>
    <g>
      <path class="cls-3" d="M54.4,120.32c-.19.14-.41.2-.66.2h-5.39c-.25,0-.47-.07-.66-.22-.19-.15-.31-.33-.36-.56l-7.01-24.88c-.05-.18,0-.36.12-.52s.29-.25.49-.25h5.59c.25,0,.47.07.66.22.19.15.31.33.36.56l3.9,14.34c.02.09.08.14.17.15.09.01.16-.04.2-.15l4.51-14.34c.07-.25.2-.44.39-.58.19-.14.41-.2.66-.2h4.41c.25,0,.47.07.66.2.19.14.32.33.39.58l4.51,14.3c.04.11.11.16.2.15.09-.01.15-.06.17-.15l3.9-14.3c.04-.23.16-.41.36-.56.19-.15.41-.22.66-.22h5.62c.2,0,.37.08.49.25.12.17.16.34.12.52l-7.02,24.88c-.04.23-.16.41-.36.56s-.41.22-.66.22h-5.39c-.25,0-.47-.07-.66-.2-.19-.14-.32-.33-.39-.58l-4.61-13.93c-.04-.11-.11-.17-.2-.17s-.16.06-.2.17l-4.58,13.93c-.07.25-.2.44-.39.58Z"/>
      <path class="cls-3" d="M98.81,94.33c.16-.16.35-.24.58-.24h5.15c.23,0,.42.08.58.24s.24.35.24.58v24.81c0,.23-.08.42-.24.58s-.35.24-.58.24h-5.15c-.23,0-.42-.08-.58-.24s-.24-.35-.24-.58v-8.34c0-.18-.07-.34-.2-.47-.13-.14-.29-.2-.47-.2h-9.42c-.18,0-.34.07-.47.2-.13.14-.2.29-.2.47v8.34c0,.23-.08.42-.24.58s-.35.24-.58.24h-5.12c-.23,0-.42-.08-.58-.24s-.24-.35-.24-.58v-24.81c0-.23.08-.42.24-.58s.35-.24.58-.24h5.12c.23,0,.42.08.58.24s.24.35.24.58v8.78c0,.18.07.34.2.47.14.14.29.2.47.2h9.42c.18,0,.34-.07.47-.2.14-.14.2-.29.2-.47v-8.78c0-.23.08-.42.24-.58Z"/>
      <path class="cls-3" d="M109.64,120.29c-.16-.16-.24-.35-.24-.58v-24.81c0-.23.08-.42.24-.58s.35-.24.58-.24h18.67c.23,0,.42.08.58.24s.24.35.24.58v4.95c0,.23-.08.42-.24.58s-.35.24-.58.24h-12.03c-.18,0-.34.07-.47.2-.14.14-.2.29-.2.47v2.44c0,.18.07.34.2.47s.29.2.47.2h9.62c.23,0,.42.08.58.24.16.16.24.35.24.58v4.51c0,.23-.08.42-.24.58-.16.16-.35.24-.58.24h-9.62c-.18,0-.34.07-.47.2-.14.14-.2.29-.2.47v2.03c0,.18.07.34.2.47.14.14.29.2.47.2h12.03c.23,0,.42.08.58.24.16.16.24.35.24.58v4.91c0,.23-.08.42-.24.58s-.35.24-.58.24h-18.67c-.23,0-.42-.08-.58-.24Z"/>
      <path class="cls-3" d="M133.23,120.29c-.16-.16-.24-.35-.24-.58v-24.81c0-.23.08-.42.24-.58s.35-.24.58-.24h18.67c.23,0,.42.08.58.24s.24.35.24.58v4.95c0,.23-.08.42-.24.58s-.35.24-.58.24h-12.03c-.18,0-.34.07-.47.2-.14.14-.2.29-.2.47v2.44c0,.18.07.34.2.47s.29.2.47.2h9.62c.23,0,.42.08.58.24.16.16.24.35.24.58v4.51c0,.23-.08.42-.24.58-.16.16-.35.24-.58.24h-9.62c-.18,0-.34.07-.47.2-.14.14-.2.29-.2.47v2.03c0,.18.07.34.2.47.14.14.29.2.47.2h12.03c.23,0,.42.08.58.24.16.16.24.35.24.58v4.91c0,.23-.08.42-.24.58s-.35.24-.58.24h-18.67c-.23,0-.42-.08-.58-.24Z"/>
      <path class="cls-3" d="M156.81,120.29c-.16-.16-.24-.35-.24-.58v-24.81c0-.23.08-.42.24-.58s.35-.24.58-.24h5.12c.23,0,.42.08.58.24s.24.35.24.58v18.4c0,.18.07.34.2.47.14.14.29.2.47.2h11.18c.23,0,.42.08.58.24.16.16.24.35.24.58v4.91c0,.23-.08.42-.24.58s-.35.24-.58.24h-17.79c-.23,0-.42-.08-.58-.24Z"/>
      <path class="cls-3" d="M51.17,159.55c-2-.85-3.75-2-5.24-3.45-1.5-1.46-2.68-3.16-3.55-5.1-.87-1.95-1.31-4.03-1.31-6.25s.44-4.31,1.31-6.25c.87-1.95,2.06-3.65,3.55-5.1,1.5-1.46,3.24-2.61,5.24-3.45,2-.85,4.11-1.27,6.33-1.27s4.37.42,6.37,1.27c2,.85,3.75,2,5.24,3.45,1.5,1.46,2.67,3.16,3.53,5.1.86,1.95,1.29,4.03,1.29,6.25s-.43,4.31-1.29,6.25-2.04,3.65-3.53,5.1c-1.5,1.46-3.24,2.61-5.24,3.45-2,.85-4.12,1.27-6.37,1.27s-4.33-.42-6.33-1.27ZM54.22,136.98c-1.02.44-1.91,1.03-2.68,1.79s-1.37,1.65-1.81,2.68c-.44,1.03-.65,2.13-.65,3.3s.22,2.26.65,3.3c.44,1.03,1.04,1.93,1.81,2.68s1.66,1.35,2.68,1.79c1.02.44,2.11.65,3.28.65s2.3-.22,3.32-.65c1.02-.44,1.91-1.03,2.66-1.79.75-.75,1.35-1.65,1.79-2.68s.66-2.13.66-3.3-.22-2.26-.66-3.3-1.03-1.93-1.79-2.68c-.75-.75-1.64-1.35-2.66-1.79-1.02-.44-2.12-.66-3.32-.66s-2.26.22-3.28.66Z"/>
      <path class="cls-3" d="M77.5,159.94c-.19-.19-.28-.41-.28-.67v-29.06c0-.26.09-.49.28-.68.19-.19.41-.28.67-.28h21.08c.26,0,.49.09.67.28.18.19.28.41.28.68v5.8c0,.26-.09.49-.28.68-.19.19-.41.28-.67.28h-13.34c-.21,0-.4.08-.56.24-.16.16-.24.34-.24.56v3.89c0,.21.08.4.24.56s.34.24.56.24h10.92c.26,0,.49.09.67.28.18.19.28.41.28.67v5.28c0,.26-.09.49-.28.67-.19.19-.41.28-.67.28h-10.92c-.21,0-.4.08-.56.24-.16.16-.24.34-.24.56v8.85c0,.26-.09.49-.28.67-.18.19-.41.28-.67.28h-6c-.26,0-.49-.09-.67-.28Z"/>
      <path class="cls-3" d="M113.07,129.53c.19-.19.41-.28.67-.28h6.04c.26,0,.49.09.67.28.19.19.28.41.28.68v29.06c0,.26-.09.49-.28.67-.19.19-.41.28-.67.28h-6.04c-.26,0-.49-.09-.67-.28-.19-.19-.28-.41-.28-.67v-29.06c0-.26.09-.49.28-.68Z"/>
      <path class="cls-3" d="M133.12,159.94c-.18.19-.41.28-.67.28h-6c-.26,0-.49-.09-.67-.28-.19-.19-.28-.41-.28-.67v-29.06c0-.26.09-.49.28-.68.19-.19.41-.28.67-.28h6.08c.29,0,.56.08.81.24.25.16.44.36.58.6l8.14,16.2c.08.16.2.24.36.24s.28-.08.36-.24l8.18-16.2c.13-.24.32-.44.58-.6.25-.16.52-.24.81-.24h6.07c.26,0,.49.09.68.28.18.19.28.41.28.68v29.06c0,.26-.09.49-.28.67-.19.19-.41.28-.68.28h-6c-.26,0-.49-.09-.67-.28-.19-.19-.28-.41-.28-.67v-14.13c0-.11-.05-.17-.14-.2-.09-.03-.17.01-.22.12l-5.64,11.32c-.13.24-.32.44-.58.6-.25.16-.52.24-.81.24h-3.3c-.29,0-.56-.08-.81-.24-.25-.16-.44-.36-.58-.6l-5.64-11.32c-.05-.11-.13-.15-.22-.12-.09.03-.14.09-.14.2v14.13c0,.26-.09.49-.28.67Z"/>
      <path class="cls-3" d="M164.4,159.94c-.19-.19-.28-.41-.28-.67v-29.06c0-.26.09-.49.28-.68.19-.19.41-.28.67-.28h12.71c2.06,0,3.86.32,5.38.97,1.52.65,2.79,1.52,3.79,2.62s1.75,2.36,2.24,3.79c.49,1.43.73,2.92.73,4.49,0,1.64-.25,3.19-.73,4.65-.49,1.46-1.24,2.73-2.24,3.83s-2.27,1.97-3.79,2.62c-1.52.65-3.32.97-5.38.97h-4.92c-.21,0-.4.08-.56.24-.16.16-.24.34-.24.56v5.28c0,.26-.09.49-.28.67-.19.19-.41.28-.67.28h-6.04c-.26,0-.49-.09-.67-.28ZM181.67,139.4c-.16-.57-.42-1.07-.79-1.51-.37-.44-.85-.78-1.43-1.03-.58-.25-1.28-.38-2.1-.38h-4.49c-.21,0-.4.08-.56.24-.16.16-.24.34-.24.56v7.9c0,.21.08.4.24.56.16.16.34.24.56.24h4.49c1.67,0,2.85-.46,3.53-1.37.69-.91,1.03-2.06,1.03-3.43,0-.61-.08-1.2-.24-1.77Z"/>
      <path class="cls-3" d="M199.34,129.49c.24-.16.5-.24.79-.24h5.96c.29,0,.56.08.79.24s.41.37.52.64l11.79,29.22c.08.21.06.41-.06.6-.12.19-.3.28-.54.28h-6.75c-.29,0-.55-.08-.77-.24s-.39-.37-.5-.64l-1.11-2.9c-.18-.5-.54-.75-1.07-.75h-10.6c-.53,0-.89.25-1.07.75l-1.11,2.9c-.11.26-.27.48-.5.64s-.48.24-.77.24h-6.75c-.24,0-.42-.09-.54-.28-.12-.19-.14-.38-.06-.6l11.83-29.22c.11-.26.28-.48.52-.64ZM206.15,148.27c.09-.16.11-.33.06-.52l-2.82-7.58c-.05-.13-.15-.2-.28-.2s-.22.07-.28.2l-2.86,7.58c-.05.19-.03.36.06.52.09.16.25.24.46.24h5.2c.21,0,.36-.08.46-.24Z"/>
      <path class="cls-3" d="M237.92,152.18c1.19-.65,2.17-1.52,2.94-2.6.34-.56.81-.7,1.39-.44l5.52,2.42c.21.08.36.24.44.5s.05.48-.08.69c-.71,1.22-1.57,2.32-2.56,3.32-.99.99-2.1,1.84-3.33,2.54-1.23.7-2.55,1.24-3.95,1.63-1.4.38-2.86.58-4.37.58-2.22,0-4.33-.42-6.33-1.27-2-.85-3.75-2-5.24-3.45-1.5-1.46-2.68-3.16-3.55-5.1-.87-1.95-1.31-4.03-1.31-6.25s.44-4.31,1.31-6.25c.87-1.95,2.06-3.65,3.55-5.1,1.5-1.46,3.24-2.61,5.24-3.45,2-.85,4.11-1.27,6.33-1.27,1.51,0,2.96.19,4.37.58,1.4.38,2.71.93,3.91,1.63,1.2.7,2.31,1.54,3.31,2.52,1.01.98,1.87,2.06,2.58,3.26.13.21.16.44.08.69-.08.25-.22.43-.44.54l-5.48,2.42c-.26.13-.52.17-.77.1-.25-.07-.46-.23-.62-.5-.77-1.09-1.75-1.95-2.96-2.6s-2.53-.97-3.99-.97c-1.17,0-2.26.22-3.28.66-1.02.44-1.91,1.03-2.68,1.79s-1.37,1.65-1.81,2.68c-.44,1.03-.65,2.13-.65,3.3s.22,2.26.65,3.3c.44,1.03,1.04,1.93,1.81,2.68s1.66,1.35,2.68,1.79c1.02.44,2.11.65,3.28.65,1.48,0,2.82-.32,4.01-.97Z"/>
      <path class="cls-3" d="M249.75,136.68c-.18-.19-.28-.41-.28-.68v-5.8c0-.26.09-.49.28-.68.19-.19.41-.28.68-.28h25.33c.26,0,.49.09.67.28.19.19.28.41.28.68v5.8c0,.26-.09.49-.28.68-.18.19-.41.28-.67.28h-7.9c-.21,0-.4.08-.56.24-.16.16-.24.34-.24.56v21.52c0,.26-.09.49-.28.67-.19.19-.41.28-.67.28h-6.04c-.26,0-.49-.09-.67-.28-.19-.19-.28-.41-.28-.67v-21.52c0-.21-.08-.4-.24-.56-.16-.16-.34-.24-.56-.24h-7.9c-.26,0-.49-.09-.68-.28Z"/>
    </g>
    <g>
      <path class="cls-3" d="M43.3,84.83c-.31-.28-.47-.63-.47-1.04v-44.64c0-.41.16-.75.47-1.04.31-.28.69-.43,1.14-.43h35.63c.45,0,.83.14,1.14.43.31.28.47.63.47,1.04v8.9c0,.41-.16.75-.47,1.04-.31.28-.69.43-1.14.43h-22.54c-.36,0-.67.12-.94.37-.27.24-.4.53-.4.85v5.98c0,.33.13.61.4.85.27.24.58.37.94.37h18.45c.45,0,.83.14,1.14.43.31.28.47.63.47,1.04v8.11c0,.41-.16.75-.47,1.04-.31.28-.69.43-1.14.43h-18.45c-.36,0-.67.12-.94.37-.27.24-.4.53-.4.85v13.6c0,.41-.16.75-.47,1.04-.31.28-.69.43-1.14.43h-10.13c-.45,0-.83-.14-1.14-.43Z"/>
      <path class="cls-3" d="M87.91,84.83c-.31-.28-.47-.63-.47-1.04v-44.64c0-.41.16-.75.47-1.04.31-.28.69-.43,1.14-.43h10.13c.45,0,.83.14,1.14.43.31.28.47.63.47,1.04v33.12c0,.33.13.61.4.85.27.24.58.37.94.37h22.14c.45,0,.83.14,1.14.43.31.28.47.63.47,1.04v8.84c0,.41-.16.75-.47,1.04-.31.28-.69.43-1.14.43h-35.22c-.45,0-.83-.14-1.14-.43Z"/>
      <path class="cls-3" d="M130.11,38.96l10.06,14.94c.13.24.36.37.67.37s.54-.12.67-.37l10.06-15c.58-.81,1.41-1.22,2.48-1.22h12.61c.36,0,.63.13.8.4.18.26.16.54-.07.82l-19.12,27.87c-.22.33-.4.69-.54,1.1-.13.41-.2.79-.2,1.16v14.76c0,.41-.16.75-.47,1.04-.31.28-.69.43-1.14.43h-10.13c-.45,0-.83-.14-1.14-.43-.31-.28-.47-.63-.47-1.04v-14.76c0-.37-.07-.75-.2-1.16-.13-.41-.31-.77-.54-1.1l-19.05-27.87c-.22-.28-.25-.56-.07-.82.18-.26.45-.4.81-.4h12.55c1.12,0,1.92.43,2.42,1.28Z"/>
    </g>
    <g>
      <g>
        <path class="cls-2" d="M231.83,126.72c-.28,0-.55-.09-.79-.26-.39-.29-.58-.77-.5-1.25l1.32-8.3c1-6.33,2-12.61,3-18.9,1.01-6.32,2.03-12.65,3.05-18.99l1.14-7.1-.8-.25c-.36,3.06-1.31,5.93-2.16,8.46-.94,2.84-2.17,5.73-3.75,8.84-1.05,2.06-2.25,4.14-3.67,6.33-1.69,2.61-3.34,4.9-5.05,7.02-1.12,1.39-2.26,2.7-3.33,3.91-.96,1.09-1.87,2.07-2.79,3.02-1.55,1.58-3.31,2.86-4.98,4-.5.34-1,.67-1.51.99-.49.3-1.05.46-1.66.46-.21,0-.42-.02-.64-.05-.88-.14-1.58-.69-1.88-1.47-.23-.6-.46-1.31-.39-2.06.09-1.03.24-2.25.58-3.4.42-1.42.97-2.92,1.67-4.58.7-1.67,1.51-3.46,2.48-5.46.69-1.44,1.44-2.83,2.21-4.15.81-1.38,1.88-3.19,3.06-4.93,1.66-2.45,3.48-4.82,5.4-7.03,1.78-2.05,3.49-3.81,5.23-5.36,1.38-1.23,2.85-2.37,4.27-3.47.58-.44,1.15-.89,1.72-1.34.53-.42,1.06-.83,1.6-1.24l.55-.42c-.51-.58-1.04-1.26-1.42-2.07-.83-1.81-.97-3.71-.44-5.65.83-3,3.69-5.29,6.95-5.57.28-.02.55-.04.82-.04,2.92,0,5.27,1.36,6.99,4.04.63.98.95,2.1.94,3.24v.46c0,.86,0,1.84-.36,2.85-.63,1.79-1.84,3.21-3.6,4.22.26,1.19.18,2.33.06,3.49,0,.04-.02,1.41-.02,1.41-.02,1.01-.03,2.02-.05,3.03-.03,1.1-.07,2.2-.12,3.3-.03.7-.07,1.4-.1,2.1-.05.94-.1,1.89-.13,2.83-.03.71-.04,1.41-.06,2.12-.03,1.21-.06,2.47-.14,3.71-.2,2.86-.26,5.71-.3,7.87-.02,1.01-.03,2.04-.12,3.08-.22,2.68-.26,5.42-.31,8.06-.01.67-.04,1.35-.08,2.02l-.4,8.13c-.03.59-.46,1.09-1.04,1.21l-.16.04c-.23.06-.47.11-.72.13-1.59.11-3.23.46-4.86,1.06-.87.32-1.71.69-2.6,1.09-.39.18-.79.35-1.18.52l-.4.19c-.18.08-.36.12-.55.12Z"/>
        <path class="cls-2" d="M241.13,57.7c2.56,0,4.48,1.24,5.89,3.44.48.74.74,1.6.73,2.51-.01.97.05,1.94-.28,2.9-.58,1.66-1.69,2.8-3.19,3.62-.22.12-.45.24-.73.39.55,1.35.46,2.67.32,4,0,.09-.01.19-.01.28-.02,1.42-.04,2.84-.07,4.26-.03,1.09-.07,2.18-.12,3.27-.07,1.65-.17,3.29-.23,4.94-.07,1.93-.07,3.86-.2,5.79-.18,2.65-.26,5.29-.3,7.94-.02,1-.03,2-.11,3-.22,2.71-.27,5.43-.31,8.15-.01.84-.06,1.67-.1,2.51-.12,2.5-.24,5.01-.37,7.6-.22.04-.45.12-.7.14-1.8.12-3.54.52-5.22,1.14-1.31.48-2.57,1.09-3.85,1.64-.1.04-.2.09-.44.2,1.45-9.14,2.88-18.17,4.32-27.2,1.45-9.04,2.91-18.09,4.37-27.2-1.1-.35-2.13-.68-3.26-1.04-.1.5-.23.94-.28,1.38-.32,2.88-1.21,5.62-2.12,8.35-.99,2.99-2.25,5.86-3.67,8.66-1.08,2.14-2.3,4.2-3.6,6.22-1.54,2.38-3.18,4.7-4.96,6.9-1.07,1.32-2.18,2.6-3.3,3.87-.89,1.01-1.81,2-2.75,2.97-1.44,1.47-3.09,2.68-4.78,3.84-.48.33-.97.65-1.46.95-.31.19-.64.26-.98.26-.14,0-.29-.01-.43-.04-.41-.06-.73-.3-.86-.64-.18-.47-.35-1-.31-1.48.1-1.06.23-2.13.53-3.15.45-1.51,1.01-3,1.62-4.45.76-1.82,1.59-3.62,2.45-5.4.67-1.38,1.39-2.74,2.16-4.06.96-1.65,1.95-3.28,3.01-4.86,1.63-2.41,3.4-4.71,5.31-6.91,1.6-1.85,3.3-3.62,5.11-5.24,1.88-1.69,3.94-3.18,5.93-4.75.88-.69,1.77-1.37,2.65-2.05.58-.46.58-.49.1-1.01-.63-.69-1.25-1.38-1.65-2.24-.71-1.54-.82-3.11-.37-4.75.73-2.62,3.29-4.41,5.8-4.62.24-.02.48-.03.71-.03M241.14,55.09h0c-.31,0-.62.01-.93.04-3.79.32-7.12,3-8.1,6.52-.62,2.25-.45,4.45.51,6.54.22.48.48.92.76,1.31-.37.29-.74.57-1.11.86-.56.45-1.13.89-1.7,1.33-1.44,1.11-2.93,2.26-4.35,3.53-1.77,1.59-3.52,3.38-5.34,5.48-1.96,2.25-3.81,4.66-5.5,7.15-1.18,1.75-2.24,3.51-3.11,5.01-.79,1.35-1.54,2.78-2.25,4.24-.98,2.02-1.8,3.83-2.51,5.53-.71,1.71-1.27,3.25-1.71,4.71-.38,1.27-.53,2.56-.63,3.66-.09,1.01.18,1.91.47,2.65.47,1.22,1.55,2.08,2.89,2.29.29.04.57.07.84.07.86,0,1.65-.22,2.35-.65.5-.31,1.01-.64,1.57-1.02,1.73-1.18,3.55-2.51,5.18-4.17.93-.95,1.89-1.99,2.84-3.07,1.02-1.16,2.22-2.54,3.37-3.96,1.74-2.15,3.42-4.48,5.13-7.13,1.44-2.24,2.67-4.35,3.74-6.45.78-1.54,1.48-3.03,2.1-4.48-.68,4.25-1.37,8.49-2.04,12.74-1,6.26-1.99,12.52-2.99,18.81l-1.33,8.39c-.15.95.24,1.91,1.01,2.49.46.35,1.01.53,1.57.53.37,0,.75-.08,1.1-.24l.22-.1c.06-.03.1-.05.14-.07.4-.17.8-.35,1.2-.53.87-.39,1.69-.76,2.51-1.06,1.52-.56,3.03-.89,4.5-.98.4-.03.73-.11.95-.16l.11-.03c1.16-.24,2.02-1.24,2.08-2.43l.11-2.23c.09-1.81.18-3.59.26-5.37l.03-.51c.03-.67.07-1.37.08-2.08.04-2.63.09-5.35.3-7.98.09-1.07.1-2.12.12-3.14.04-2.18.1-5.01.3-7.83.09-1.27.12-2.54.14-3.76.02-.7.03-1.4.06-2.11.04-.94.08-1.88.13-2.82.04-.7.07-1.4.1-2.1.06-1.24.09-2.33.12-3.33.02-.98.04-1.96.05-2.95l.02-1.34v-.09c.1-.94.17-1.92.07-2.95,1.63-1.13,2.77-2.62,3.41-4.44.43-1.22.43-2.36.43-3.27,0-.15,0-.3,0-.44.02-1.39-.37-2.76-1.14-3.96-1.94-3.04-4.74-4.64-8.09-4.64h0Z"/>
      </g>
      <g>
        <path class="cls-2" d="M292.69,78.9h-2.25c-.48,0-.95,0-1.43,0h-.82c-1.47-.04-2.99-.06-4.5-.2-3.98-.35-7.24-.8-10.27-1.4-3.31-.66-6.49-1.5-9.46-2.49-2.24-.74-4.86-1.67-7.37-2.92-2.34-1.17-4.68-2.35-7.01-3.53l-2.1-1.06c-.21-.1-.35-.23-.44-.31-.32-.28-.57-.76-.53-1.18.09-.93.71-1.61,1.63-1.79,2.1-.41,3.87-.72,5.69-.88.47-.04.94-.1,1.4-.15.38-.04.76-.09,1.13-.13.61-.06,1.21-.12,1.82-.14l1.21-.05c1.06-.04,2.12-.09,3.17-.09.21,0,.42,0,.64,0,2.03.04,3.98.14,5.8.31,1.41.13,2.82.35,4.17.56l1.12.17c3.69.55,7.54,1.44,11.43,2.65,1.8.56,4.17,1.32,6.54,2.21,2.91,1.1,5.58,2.7,7.8,4.11.85.54,1.36,1.52,1.34,2.54-.02.95-.53,1.8-1.35,2.26-.72.41-1.38.69-2.03.86-1.19.31-2.61.63-4.12.63,0,0-.87,0-1.23,0Z"/>
        <path class="cls-2" d="M262.59,63.89c.2,0,.41,0,.61,0,1.9.03,3.81.13,5.7.31,1.75.16,3.48.46,5.22.72,3.81.57,7.55,1.46,11.23,2.61,2.17.68,4.34,1.38,6.47,2.19,2.68,1.01,5.15,2.46,7.56,3.99.87.55,1.07,1.99.05,2.57-.54.31-1.12.57-1.72.73-1.24.32-2.49.59-3.79.59-.04,0-.09,0-.13,0-.37,0-.74,0-1.11,0-.75,0-1.49,0-2.24,0-.47,0-.94,0-1.41-.01-1.74-.03-3.49-.04-5.23-.19-3.39-.3-6.78-.71-10.12-1.38-3.15-.63-6.26-1.43-9.3-2.45-2.45-.82-4.88-1.7-7.2-2.85-3.04-1.51-6.07-3.06-9.1-4.59-.1-.05-.18-.14-.26-.2.04-.38.26-.57.58-.63,1.84-.36,3.69-.7,5.56-.86.85-.08,1.7-.19,2.55-.28.58-.06,1.16-.11,1.74-.13,1.44-.05,2.89-.13,4.33-.13M262.59,61.28c-1.1,0-2.18.04-3.24.09-.4.02-.79.03-1.19.05-.64.02-1.24.08-1.9.15-.39.04-.78.08-1.16.13-.45.05-.91.11-1.36.15-1.88.17-3.69.48-5.83.9-1.49.29-2.54,1.45-2.68,2.95-.08.88.29,1.74.98,2.29.13.11.37.31.71.48l2.17,1.1c2.31,1.17,4.63,2.34,6.95,3.5,2.58,1.28,5.26,2.23,7.54,2.99,3.02,1.01,6.25,1.86,9.61,2.53,3.07.62,6.38,1.07,10.41,1.42,1.56.14,3.1.16,4.59.19h.82c.48.02.97.03,1.45.03.38,0,.75,0,1.13,0,.37,0,.74,0,1.11,0s.72,0,1.07,0h.16c1.65,0,3.18-.34,4.45-.67.76-.2,1.53-.52,2.35-.99,1.22-.69,1.97-1.95,2.01-3.37.04-1.48-.71-2.89-1.94-3.68-2.28-1.45-5.02-3.09-8.04-4.23-2.4-.91-4.8-1.67-6.62-2.24-3.95-1.23-7.86-2.14-11.62-2.7-.37-.06-.75-.11-1.12-.17-1.37-.21-2.79-.43-4.24-.57-1.85-.17-3.84-.28-5.9-.32-.22,0-.44,0-.66,0h0Z"/>
      </g>
      <g>
        <path class="cls-2" d="M238.5,58.55c-.79-.02-1.3-.64-1.44-.83-.31-.43-.61-.86-.91-1.3l-.34-.5c-1.51-2.2-2.88-4.63-4.31-7.66-.88-1.88-1.69-3.92-2.46-6.24-.85-2.55-1.47-4.85-1.9-7.03-.39-1.97-.73-4.06-1.12-6.8-.22-1.55-.34-3.12-.44-4.59-.09-1.27-.16-2.52-.11-3.77.08-1.76.31-3.44.71-5.01.34-1.37,1.4-2.26,2.68-2.26.76,0,1.5.32,2.08.91.6.61,1.08,1.28,1.53,1.93l.26.37c1.5,2.1,2.4,4.46,3.2,6.54.68,1.76,1.46,3.86,2.11,6,.61,2.02,1.1,4.08,1.57,6.08.43,1.82.67,3.64.9,5.4.26,1.97.4,4.07.46,6.82-.02.59-.04,1.09-.06,1.59-.04,1.14-.09,2.32-.18,3.49-.08.98-.21,1.94-.34,2.88-.05.39-.11.79-.16,1.18l-.07.51c-.03.24-.07.47-.09.71-.11,1.54-1.38,1.58-1.53,1.58-.01,0-.03,0-.05,0Z"/>
        <path class="cls-2" d="M228.86,13.86c.4,0,.81.17,1.15.52.63.64,1.13,1.41,1.66,2.14,1.36,1.91,2.21,4.08,3.04,6.25.75,1.95,1.47,3.92,2.08,5.92.6,1.97,1.07,3.99,1.54,6,.41,1.74.64,3.51.88,5.28.29,2.22.4,4.44.45,6.67-.07,1.65-.11,3.3-.23,4.95-.1,1.34-.32,2.67-.49,4-.05.41-.12.82-.16,1.23-.02.18,0,.42-.23.42,0,0,0,0,0,0-.14,0-.32-.16-.42-.29-.42-.58-.82-1.18-1.23-1.78-1.63-2.37-2.98-4.89-4.2-7.48-.93-1.98-1.71-4.02-2.41-6.1-.75-2.25-1.4-4.54-1.86-6.87-.44-2.23-.79-4.48-1.11-6.73-.21-1.49-.32-3-.43-4.5-.08-1.21-.16-2.42-.11-3.62.07-1.6.28-3.19.67-4.75.22-.85.8-1.27,1.41-1.27M228.86,11.25h0c-1.87,0-3.46,1.3-3.94,3.24-.42,1.65-.67,3.43-.75,5.27-.06,1.32.02,2.6.11,3.91.1,1.51.22,3.11.45,4.69.39,2.77.74,4.89,1.13,6.87.44,2.23,1.08,4.58,1.95,7.19.79,2.37,1.62,4.46,2.52,6.38,1.46,3.1,2.86,5.59,4.41,7.85l.33.48c.31.45.62.91.94,1.35.6.83,1.52,1.34,2.46,1.36.02,0,.06,0,.08,0,1.26,0,2.69-.86,2.83-2.76.02-.21.05-.43.09-.66.02-.18.05-.35.07-.53.05-.39.1-.78.16-1.17.13-.96.27-1.94.35-2.96.09-1.2.14-2.4.18-3.56.02-.49.04-.98.06-1.47,0-.06,0-.11,0-.17-.06-2.79-.2-4.94-.47-6.96-.23-1.71-.48-3.64-.93-5.53-.47-2.01-.96-4.1-1.59-6.16-.66-2.19-1.45-4.31-2.14-6.09-.83-2.16-1.76-4.6-3.36-6.83l-.26-.36c-.47-.66-.99-1.41-1.67-2.1-.82-.83-1.89-1.29-3.01-1.29h0Z"/>
      </g>
      <g>
        <path class="cls-2" d="M209.91,93.81c-.37,0-.73-.16-.98-.44-8.54-9.61-12.15-23.66-9.44-36.65,3.21-15.39,14.09-25.42,22.44-29.33.18-.08.36-.12.55-.12.21,0,.43.05.62.16.37.2.61.56.67.97l.1.77c.08.56.15,1.12.23,1.68.07.44.14.89.22,1.33l.06.35c.15.85-.21,1.59-.98,2.03-1.85,1.06-3.62,2.33-5.29,3.78-2.05,1.78-3.88,3.75-5.45,5.85-1.33,1.78-2.49,3.72-3.55,5.93-1.2,2.5-2.1,5.15-2.66,7.86-.35,1.69-.7,3.49-.71,5.32,0,.5-.03,1-.05,1.5-.04.74-.07,1.44-.03,2.12.07,1.38.25,2.81.43,4.2v.12c.27,1.96.83,3.87,1.29,5.32.63,2,1.47,3.96,2.56,5.99.88,1.63,1.91,3.22,3.07,4.73.57.74.62,1.57.14,2.35-.46.75-.91,1.5-1.36,2.25l-.77,1.3c-.21.36-.58.6-1,.64-.04,0-.08,0-.13,0Z"/>
        <path class="cls-2" d="M222.48,28.57c.11.83.22,1.65.34,2.46.08.57.19,1.14.29,1.71.05.31-.05.51-.34.68-1.96,1.13-3.79,2.44-5.49,3.93-2.09,1.82-3.98,3.83-5.64,6.06-1.44,1.92-2.64,3.98-3.68,6.15-1.25,2.61-2.18,5.33-2.76,8.16-.38,1.84-.72,3.68-.74,5.57,0,1.23-.14,2.47-.08,3.7.07,1.48.27,2.95.46,4.42.25,1.89.75,3.73,1.32,5.54.68,2.15,1.59,4.22,2.66,6.21.93,1.72,1.99,3.36,3.18,4.91.24.32.26.56.06.88-.57.93-1.13,1.87-1.69,2.8-.14.24-.28.47-.45.77-8.13-9.16-11.81-22.71-9.14-35.52,3.1-14.85,13.53-24.58,21.72-28.42M222.48,25.96c-.38,0-.76.08-1.11.25-8.62,4.04-19.85,14.39-23.16,30.25-2.79,13.39.94,27.87,9.74,37.78.5.56,1.21.88,1.95.88.08,0,.17,0,.25-.01.83-.08,1.57-.55,2-1.27l.17-.28c.1-.16.18-.31.27-.46l.4-.66c.43-.71.85-1.42,1.28-2.12.76-1.24.68-2.67-.22-3.83-1.12-1.46-2.11-2.99-2.95-4.56-1.05-1.95-1.86-3.84-2.47-5.76-.44-1.39-.98-3.23-1.22-5.09v-.11c-.2-1.42-.37-2.77-.44-4.11-.03-.62,0-1.29.03-2,.02-.52.05-1.03.05-1.55.01-1.71.34-3.44.68-5.06.54-2.61,1.4-5.15,2.56-7.56,1.03-2.14,2.15-4.01,3.42-5.72,1.51-2.03,3.28-3.93,5.26-5.65,1.6-1.39,3.31-2.61,5.08-3.63,1.25-.72,1.85-1.98,1.61-3.38l-.07-.39c-.07-.42-.15-.84-.21-1.26-.08-.56-.16-1.12-.23-1.69l-.1-.75c-.11-.82-.61-1.54-1.34-1.94-.39-.21-.82-.32-1.25-.32h0Z"/>
      </g>
      <g>
        <path class="cls-2" d="M283.03,63.11c-.09,0-.18,0-.26-.03l-.62-.13c-.45-.09-.85-.17-1.26-.26-.54-.12-1.08-.25-1.63-.38l-.49-.12c-1.04-.25-1.45-.67-1.66-1.73l-.18-.9c-.21-1.07-.42-2.15-.68-3.21-.52-2.21-1.4-4.52-2.68-7.07-1.25-2.49-2.78-4.8-4.55-6.88-2.82-3.31-6.05-6.02-9.61-8.05-3.3-1.88-6.82-3.22-10.46-3.98-1.66-.34-3.04-.54-4.35-.62-.74-.04-1.47-.09-2.21-.12-1.18-.05-1.71-.44-2.08-1.55-.35-1.06-.71-2.12-1.05-3.19-.06-.17-.09-.35-.12-.54l-.02-.12c-.11-.59.21-1.18.76-1.42.58-.25,1.11-.28,1.51-.28.13,0,.59.02.59.02.18,0,.36.02.54.03.17.01.35.02.52.02h.15c1.29,0,2.62.12,3.97.36.42.08.85.14,1.28.2.77.11,1.56.23,2.35.42,1.47.34,3.17.76,4.82,1.34,1.73.61,3.46,1.33,5.14,2.15,2.13,1.03,4.05,2.29,5.49,3.28,2.26,1.55,4.49,3.51,7,6.16,1.72,1.82,3.31,3.92,4.86,6.43,1.28,2.08,2.3,4.06,3.12,6.08.61,1.49,1.09,2.87,1.47,4.21.44,1.52.78,3.08,1.11,4.59l.03.16c.12.56.18,1.1.24,1.63.02.21.04.41.07.62l.18,1.43c.05.42-.1.84-.41,1.12-.24.23-.56.35-.89.35Z"/>
        <path class="cls-2" d="M241.39,23.84c.19,0,.37.01.56.01.36,0,.73.05,1.09.05,0,0,.02,0,.03,0,.04,0,.08,0,.12,0,1.26,0,2.51.12,3.75.34,1.19.21,2.39.33,3.56.6,1.58.37,3.16.76,4.69,1.3,1.7.6,3.38,1.3,5.01,2.09,1.86.9,3.61,2.01,5.32,3.18,2.51,1.72,4.71,3.79,6.79,5.98,1.79,1.89,3.33,3.99,4.7,6.21,1.16,1.88,2.19,3.83,3.02,5.88.54,1.33,1.03,2.7,1.43,4.08.44,1.53.78,3.1,1.12,4.66.15.7.2,1.42.29,2.14.06.45.11.9.18,1.43-.7-.14-1.28-.26-1.86-.39-.7-.16-1.4-.33-2.1-.49-.56-.13-.57-.16-.68-.72-.28-1.39-.54-2.78-.86-4.15-.61-2.57-1.6-5-2.79-7.36-1.29-2.57-2.87-4.96-4.72-7.14-2.84-3.34-6.14-6.16-9.95-8.34-3.4-1.94-7.01-3.33-10.84-4.12-1.5-.31-3.01-.55-4.54-.64-.74-.04-1.48-.09-2.22-.12-.64-.03-.7-.06-.89-.66-.35-1.06-.71-2.12-1.05-3.18-.05-.15-.06-.31-.09-.48.33-.14.66-.18.98-.18M241.39,21.23c-.48,0-1.22.04-2.03.39-1.11.48-1.74,1.66-1.53,2.85v.08c.03.17.07.44.18.76.32.97.64,1.95.97,2.92l.09.27c.54,1.61,1.54,2.36,3.26,2.44.7.03,1.39.07,2.09.11h.1c1.25.08,2.57.27,4.16.6,3.51.73,6.9,2.02,10.08,3.83,3.42,1.95,6.54,4.56,9.26,7.76,1.7,2,3.18,4.23,4.38,6.62,1.24,2.46,2.08,4.68,2.58,6.79.24,1.03.45,2.06.67,3.16l.18.91c.31,1.56,1.1,2.38,2.64,2.75l.53.12c.54.13,1.07.25,1.61.37.41.09.83.18,1.28.27l.63.13c.18.04.35.05.53.05.65,0,1.28-.24,1.77-.69.62-.57.92-1.41.82-2.24l-.06-.48c-.04-.34-.08-.65-.12-.96-.03-.2-.05-.4-.07-.6-.06-.53-.12-1.14-.26-1.76l-.04-.16c-.33-1.53-.67-3.11-1.13-4.67-.4-1.38-.9-2.8-1.52-4.33-.84-2.08-1.9-4.13-3.22-6.27-1.59-2.58-3.23-4.75-5.02-6.64-2.58-2.72-4.87-4.74-7.21-6.34-1.48-1.01-3.45-2.31-5.66-3.37-1.73-.84-3.5-1.58-5.28-2.2-1.71-.6-3.46-1.03-4.96-1.38-.84-.2-1.66-.32-2.46-.44-.42-.06-.83-.12-1.24-.2-1.43-.25-2.84-.38-4.2-.38h-.14s0,0,0,0c-.15,0-.3-.01-.44-.02-.2-.01-.4-.03-.6-.03h-.17c-.15-.01-.3-.02-.45-.02h0Z"/>
      </g>
      <g>
        <path class="cls-2" d="M247.5,107.91c-.35,0-.68-.14-.93-.39-.26-.26-.39-.61-.38-.98l.2-4.36c.03-.59.44-1.09,1.02-1.21l.63-.14c.46-.1.89-.2,1.33-.29,1.9-.39,3.8-.98,5.8-1.82,2.93-1.23,5.68-2.8,8.15-4.69,1.7-1.29,3.33-2.8,4.85-4.47,2.28-2.51,4.15-5.26,5.56-8.2.12-.27.24-.55.48-.8.27-.3.77-.62,1.34-.62.06,0,.15,0,.2.01,1.25.17,2.5.35,3.75.54l.25.04c.35.05.58.22.7.3.55.34.82,1.07.56,1.66-2.95,6.77-7.44,12.53-13.36,17.12-7.4,5.74-16.26,8.13-20.11,8.28-.02,0-.03,0-.05,0Z"/>
        <path class="cls-2" d="M275.56,81.26s.02,0,.03,0c1.33.18,2.65.38,3.98.57.06,0,.11.07.25.15-2.9,6.66-7.23,12.17-12.96,16.61-7.16,5.55-15.75,7.87-19.36,8.01.07-1.49.13-2.92.2-4.36.68-.15,1.31-.3,1.94-.43,2.08-.42,4.09-1.08,6.04-1.89,3.01-1.26,5.83-2.87,8.44-4.85,1.82-1.39,3.49-2.94,5.02-4.63,2.33-2.55,4.27-5.39,5.77-8.51.08-.17.14-.36.27-.49.09-.1.25-.19.37-.19M275.56,78.65c-.84,0-1.7.39-2.3,1.04-.38.41-.57.84-.67,1.07l-.02.05c-1.35,2.82-3.15,5.47-5.35,7.88-1.47,1.61-3.04,3.06-4.68,4.31-2.39,1.82-5.03,3.34-7.86,4.52-1.89.79-3.76,1.38-5.56,1.74-.45.09-.9.19-1.36.3l-.63.14c-1.15.26-1.98,1.25-2.04,2.43l-.06,1.3-.14,3.06c-.03.73.24,1.44.76,1.96.49.49,1.16.77,1.85.77.03,0,.07,0,.1,0,4.01-.16,13.21-2.62,20.86-8.56,6.09-4.72,10.72-10.66,13.75-17.63.51-1.18.09-2.56-1-3.25-.15-.11-.59-.43-1.25-.53l-.2-.03c-1.27-.19-2.55-.38-3.82-.55-.11-.02-.26-.02-.37-.02h0Z"/>
      </g>
      <g>
        <path class="cls-2" d="M217.76,82.08c-.41-.03-.78-.25-1-.59-1.95-2.99-3.29-6.26-4-9.72-1.37-6.73-.6-13.18,2.29-19.18,2.21-4.59,5.44-8.4,9.62-11.33.22-.16.48-.24.75-.24.13,0,.27.02.4.06.39.12.7.42.83.81l.92,2.6c.05.14.09.28.14.42.09.27.17.53.28.73.21.41.58,1.45-.51,2.37l-.37.31c-.33.28-.67.55-.98.85-1.63,1.61-2.77,3.04-3.59,4.5-.87,1.55-1.47,2.75-1.94,3.91-.58,1.4-.9,2.93-1.12,4.1-.34,1.81-.4,3.83-.21,6.33.1,1.26.39,2.61.91,4.25.44,1.38,1.01,2.73,1.7,4.01.06.11.12.24.17.38l.05.12c.2.46.12,1.01-.22,1.39l-3.06,3.47c-.25.28-.61.44-.98.44-.03,0-.06,0-.09,0Z"/>
        <path class="cls-2" d="M225.41,42.33c.32.91.62,1.76.92,2.6.16.44.28.89.49,1.31.18.36.07.56-.19.78-.48.4-.98.79-1.42,1.23-1.46,1.44-2.8,2.99-3.81,4.79-.74,1.31-1.44,2.66-2.01,4.05-.57,1.39-.92,2.87-1.19,4.36-.41,2.22-.4,4.45-.22,6.67.12,1.55.5,3.06.97,4.55.47,1.47,1.07,2.88,1.79,4.23.07.12.11.25.18.41-1.02,1.16-2,2.27-3.06,3.47-1.88-2.89-3.14-5.97-3.81-9.26-1.29-6.35-.63-12.51,2.18-18.36,2.1-4.37,5.14-7.99,9.19-10.82M225.41,39.72c-.53,0-1.05.16-1.5.47-4.36,3.05-7.74,7.03-10.04,11.83-3.01,6.27-3.82,13-2.39,20.01.74,3.62,2.14,7.04,4.18,10.17.45.68,1.18,1.12,2,1.18.06,0,.13,0,.19,0,.75,0,1.46-.32,1.96-.88l1.56-1.77,1.5-1.71c.67-.76.84-1.85.43-2.78l-.04-.1c-.07-.18-.15-.34-.23-.49-.65-1.21-1.19-2.49-1.61-3.79-.49-1.54-.76-2.8-.85-3.96-.19-2.39-.13-4.29.19-5.99.21-1.11.51-2.56,1.04-3.85.45-1.11,1.03-2.27,1.87-3.77.76-1.35,1.83-2.68,3.37-4.21.25-.25.56-.5.89-.78l.38-.32c1.23-1.04,1.55-2.56.83-3.96-.06-.11-.13-.33-.2-.55-.05-.15-.1-.3-.15-.44l-.63-1.79-.29-.81c-.27-.77-.89-1.37-1.67-1.61-.26-.08-.53-.12-.79-.12h0Z"/>
      </g>
      <g>
        <path class="cls-2" d="M269.42,60.71c-.53-.05-1.06-.07-1.59-.09-1.01-.04-2.05-.09-3.11-.28-.46-.08-.83-.4-.99-.84l-.23-.64c-.18-.49-.35-.98-.53-1.46-.88-2.34-2.17-4.53-3.83-6.5-2.5-2.96-5.64-5.18-9.34-6.61-1.69-.65-3.39-1.07-5.07-1.25-1.08-.12-1.69-.69-1.81-1.72l-.4-3.39c-.02-.16-.02-.33-.01-.51v-.16c0-.35.15-.69.4-.94.24-.23.57-.36.9-.36.02,0,.03,0,.05,0,12.81.5,24.4,10.47,26.95,23.18.08.4-.03.82-.31,1.13-.25.28-.6.44-.97.44-.04,0-.07,0-.11,0Z"/>
        <path class="cls-2" d="M243.82,37.28c12.22.48,23.29,10.03,25.72,22.14-1.53-.13-3.06-.08-4.57-.36-.26-.72-.51-1.42-.77-2.11-.95-2.53-2.32-4.82-4.05-6.88-2.68-3.18-6-5.49-9.87-6.98-1.74-.67-3.54-1.13-5.4-1.33-.48-.05-.61-.17-.65-.57-.13-1.13-.27-2.26-.4-3.39-.02-.16,0-.31,0-.52M243.82,34.67c-.67,0-1.32.26-1.81.73-.51.49-.8,1.17-.8,1.88v.12c0,.17-.01.41.02.69.08.74.17,1.47.26,2.21l.14,1.18c.19,1.61,1.3,2.68,2.97,2.86,1.57.17,3.17.56,4.74,1.17,3.49,1.34,6.46,3.44,8.81,6.23,1.56,1.85,2.78,3.91,3.61,6.11.17.46.34.93.51,1.4l.25.69c.32.87,1.07,1.51,1.98,1.68,1.15.21,2.24.26,3.29.3.53.02,1.04.04,1.53.09.07,0,.15,0,.22,0,.74,0,1.45-.31,1.95-.87.55-.61.77-1.45.61-2.25-2.66-13.29-14.78-23.71-28.18-24.23-.03,0-.07,0-.1,0h0Z"/>
      </g>
      <g>
        <path class="cls-2" d="M248.04,94.49c-.31,0-.62-.11-.86-.32-.3-.26-.46-.64-.45-1.03l.17-4.47c.02-.53.36-1,.86-1.18l2.26-.82c2.16-.79,4.17-1.96,6.16-3.59,1.85-1.52,3.4-3.24,4.6-5.12.15-.25.31-.52.59-.75.33-.28.78-.44,1.19-.44.13,0,.32.03.44.06,1.14.34,2.27.7,3.41,1.07l.47.15c.2.06.45.23.6.37.41.41.57,1.09.3,1.6-3.83,7.2-11.85,13.15-19.51,14.46-.07.01-.15.02-.22.02Z"/>
        <path class="cls-2" d="M262.56,78.06s.05,0,.07,0c1.29.39,2.57.8,3.85,1.21.04.01.07.06.14.11-3.95,7.42-11.84,12.63-18.58,13.79.06-1.49.11-2.97.17-4.47.79-.28,1.53-.55,2.26-.82,2.41-.88,4.57-2.2,6.54-3.81,1.9-1.55,3.55-3.35,4.87-5.43.1-.16.19-.33.33-.45.09-.07.24-.14.35-.14M262.56,75.45h0c-.72,0-1.46.27-2.02.74-.45.37-.69.78-.83,1l-.03.05c-1.13,1.77-2.58,3.39-4.33,4.82-1.87,1.53-3.77,2.64-5.78,3.38-.5.18-1,.36-1.52.55l-.74.27c-1,.36-1.68,1.29-1.72,2.36l-.06,1.69-.1,2.78c-.03.79.3,1.54.89,2.06.48.42,1.09.65,1.72.65.15,0,.29-.01.44-.04,8.15-1.4,16.37-7.48,20.44-15.14.56-1.06.33-2.37-.56-3.17-.14-.14-.51-.48-1.09-.66l-.49-.16c-1.13-.36-2.26-.72-3.4-1.06-.26-.08-.54-.12-.82-.12h0Z"/>
      </g>
      <g>
        <path class="cls-2" d="M230.1,106.88c-.14,0-.28-.02-.41-.07l-3.54-1.17c-.39-.13-.69-.43-.83-.82-.13-.39-.07-.81.16-1.15.55-.81,1.12-1.56,1.67-2.28.38-.5.76-.99,1.12-1.5.25-.35.65-.54,1.06-.54.14,0,.27.02.41.06l1.48.48c.61.2.99.81.88,1.45l-.72,4.44c-.06.38-.28.71-.61.91-.21.13-.44.19-.68.19Z"/>
        <path class="cls-2" d="M229.34,100.65c.51.17.96.32,1.48.48-.24,1.47-.47,2.9-.72,4.44-1.21-.4-2.32-.77-3.54-1.17.91-1.34,1.88-2.5,2.78-3.75M229.34,98.04c-.82,0-1.62.39-2.12,1.09-.36.5-.73.98-1.1,1.47-.56.74-1.14,1.5-1.71,2.34-.46.68-.58,1.53-.31,2.31s.88,1.38,1.65,1.64l3.54,1.17c.27.09.54.13.82.13.47,0,.94-.13,1.35-.38.65-.4,1.1-1.06,1.22-1.81l.63-3.88.09-.56c.21-1.27-.54-2.5-1.77-2.9l-.97-.32-.51-.17c-.27-.09-.54-.13-.81-.13h0Z"/>
      </g>
    </g>
    <g>
      <path class="cls-3" d="M243.55,70.56c.55,1.35.46,2.67.32,4,0,.09-.01.19-.01.28-.02,1.42-.04,2.84-.07,4.26-.03,1.09-.07,2.18-.12,3.27-.07,1.65-.17,3.29-.23,4.94-.07,1.93-.07,3.86-.2,5.79-.18,2.65-.26,5.29-.3,7.94-.02,1-.03,2-.11,3-.22,2.71-.27,5.43-.31,8.15-.01.84-.06,1.67-.1,2.51-.12,2.5-.24,5.01-.37,7.6-.22.04-.45.12-.7.14-1.8.12-3.54.52-5.22,1.14-1.31.48-2.57,1.09-3.85,1.64-.1.04-.2.09-.44.2,1.45-9.14,2.88-18.17,4.32-27.2,1.45-9.04,2.91-18.09,4.37-27.2-1.1-.35-2.13-.68-3.26-1.04-.1.5-.23.94-.28,1.38-.32,2.88-1.21,5.62-2.12,8.35-.99,2.99-2.25,5.86-3.67,8.66-1.08,2.14-2.3,4.2-3.6,6.22-1.54,2.38-3.18,4.7-4.96,6.9-1.07,1.32-2.18,2.6-3.3,3.87-.89,1.01-1.81,2-2.75,2.97-1.44,1.47-3.09,2.68-4.78,3.84-.48.33-.97.65-1.46.95-.43.27-.91.31-1.41.23-.41-.06-.73-.3-.86-.64-.18-.47-.35-1-.31-1.48.1-1.06.23-2.13.53-3.15.45-1.51,1.01-3,1.62-4.45.76-1.82,1.59-3.62,2.45-5.4.67-1.38,1.39-2.74,2.16-4.06.96-1.65,1.95-3.28,3.01-4.86,1.63-2.41,3.4-4.71,5.31-6.91,1.6-1.85,3.3-3.62,5.11-5.24,1.88-1.69,3.94-3.18,5.93-4.75.88-.69,1.77-1.37,2.65-2.05.58-.46.58-.49.1-1.01-.63-.69-1.25-1.38-1.65-2.24-.71-1.54-.82-3.11-.37-4.75.73-2.62,3.29-4.41,5.8-4.62,2.91-.25,5.07,1.01,6.6,3.41.48.74.74,1.6.73,2.51-.01.97.05,1.94-.28,2.9-.58,1.66-1.69,2.8-3.19,3.62-.22.12-.45.24-.73.39Z"/>
      <path class="cls-3" d="M247.83,65.93c.04-.38.26-.57.58-.63,1.84-.36,3.69-.7,5.56-.86.85-.08,1.7-.19,2.55-.28.58-.06,1.16-.11,1.74-.13,1.65-.06,3.3-.16,4.95-.13,1.9.03,3.81.13,5.7.31,1.75.16,3.48.46,5.22.72,3.81.57,7.55,1.46,11.23,2.61,2.17.68,4.34,1.38,6.47,2.19,2.68,1.01,5.15,2.46,7.56,3.99.87.55,1.07,1.99.05,2.57-.54.31-1.12.57-1.72.73-1.28.33-2.57.61-3.91.59-1.58-.02-3.17.02-4.76-.01-1.74-.03-3.49-.04-5.23-.19-3.39-.3-6.78-.71-10.12-1.38-3.15-.63-6.26-1.43-9.3-2.45-2.45-.82-4.88-1.7-7.2-2.85-3.04-1.51-6.07-3.06-9.1-4.59-.1-.05-.18-.14-.26-.2Z"/>
      <path class="cls-3" d="M239.67,46.63c-.07,1.65-.11,3.3-.23,4.95-.1,1.34-.32,2.67-.49,4-.05.41-.12.82-.16,1.23-.02.19,0,.43-.24.42-.14,0-.32-.16-.42-.29-.42-.58-.82-1.18-1.23-1.78-1.63-2.37-2.98-4.89-4.2-7.48-.93-1.98-1.71-4.02-2.41-6.1-.75-2.25-1.4-4.54-1.86-6.87-.44-2.23-.79-4.48-1.11-6.73-.21-1.49-.32-3-.43-4.5-.08-1.21-.16-2.42-.11-3.62.07-1.6.28-3.19.67-4.75.35-1.41,1.7-1.62,2.56-.75.63.64,1.13,1.41,1.66,2.14,1.36,1.91,2.21,4.08,3.04,6.25.75,1.95,1.47,3.92,2.08,5.92.6,1.97,1.07,3.99,1.54,6,.41,1.74.64,3.51.88,5.28.29,2.22.4,4.44.45,6.67Z"/>
      <path class="cls-3" d="M209.91,92.51c-8.13-9.16-11.81-22.71-9.14-35.52,3.1-14.85,13.53-24.58,21.72-28.42.11.83.22,1.65.34,2.46.08.57.19,1.14.29,1.71.05.31-.05.51-.34.68-1.96,1.13-3.79,2.44-5.49,3.93-2.09,1.82-3.98,3.83-5.64,6.06-1.44,1.92-2.64,3.98-3.68,6.15-1.25,2.61-2.18,5.33-2.76,8.16-.38,1.84-.72,3.68-.74,5.57,0,1.23-.14,2.47-.08,3.7.07,1.48.27,2.95.46,4.42.25,1.89.75,3.73,1.32,5.54.68,2.15,1.59,4.22,2.66,6.21.93,1.72,1.99,3.36,3.18,4.91.24.32.26.56.06.88-.57.93-1.13,1.87-1.69,2.8-.14.24-.28.47-.45.77Z"/>
      <path class="cls-3" d="M283.03,61.8c-.7-.14-1.28-.26-1.86-.39-.7-.16-1.4-.33-2.1-.49-.56-.13-.57-.16-.68-.72-.28-1.39-.54-2.78-.86-4.15-.61-2.57-1.6-5-2.79-7.36-1.29-2.57-2.87-4.96-4.72-7.14-2.84-3.34-6.14-6.16-9.95-8.34-3.4-1.94-7.01-3.33-10.84-4.12-1.5-.31-3.01-.55-4.54-.64-.74-.04-1.48-.09-2.22-.12-.64-.03-.7-.06-.89-.66-.35-1.06-.71-2.12-1.05-3.18-.05-.15-.06-.31-.09-.48.52-.23,1.03-.17,1.54-.16.37,0,.74.06,1.12.05,1.3,0,2.59.11,3.87.34,1.19.21,2.39.33,3.56.6,1.58.37,3.16.76,4.69,1.3,1.7.6,3.38,1.3,5.01,2.09,1.86.9,3.61,2.01,5.32,3.18,2.51,1.72,4.71,3.79,6.79,5.98,1.79,1.89,3.33,3.99,4.7,6.21,1.16,1.88,2.19,3.83,3.02,5.88.54,1.33,1.03,2.7,1.43,4.08.44,1.53.78,3.1,1.12,4.66.15.7.2,1.42.29,2.14.06.45.11.9.18,1.43Z"/>
      <path class="cls-3" d="M247.5,106.61c.07-1.49.13-2.92.2-4.36.68-.15,1.31-.3,1.94-.43,2.08-.42,4.09-1.08,6.04-1.89,3.01-1.26,5.83-2.87,8.44-4.85,1.82-1.39,3.49-2.94,5.02-4.63,2.33-2.55,4.27-5.39,5.77-8.51.08-.17.14-.36.27-.49.09-.1.28-.21.4-.19,1.33.18,2.65.38,3.98.57.06,0,.11.07.25.15-2.9,6.66-7.23,12.17-12.96,16.61-7.16,5.55-15.75,7.87-19.36,8.01Z"/>
      <path class="cls-3" d="M220.91,77.31c-1.02,1.16-2,2.27-3.06,3.47-1.88-2.89-3.14-5.97-3.81-9.26-1.29-6.35-.63-12.51,2.18-18.36,2.1-4.37,5.14-7.99,9.19-10.82.32.91.62,1.76.92,2.6.16.44.28.89.49,1.31.18.36.07.56-.19.78-.48.4-.98.79-1.42,1.23-1.46,1.44-2.8,2.99-3.81,4.79-.74,1.31-1.44,2.66-2.01,4.05-.57,1.39-.92,2.87-1.19,4.36-.41,2.22-.4,4.45-.22,6.67.12,1.55.5,3.06.97,4.55.47,1.47,1.07,2.88,1.79,4.23.06.12.11.25.18.41Z"/>
      <path class="cls-3" d="M243.82,37.28c12.22.48,23.29,10.03,25.72,22.14-1.53-.13-3.06-.08-4.57-.36-.26-.72-.51-1.42-.77-2.11-.95-2.53-2.32-4.82-4.05-6.88-2.68-3.18-6-5.49-9.87-6.98-1.74-.67-3.54-1.13-5.4-1.33-.48-.05-.61-.17-.65-.57-.13-1.13-.27-2.26-.4-3.39-.02-.16,0-.31,0-.52Z"/>
      <path class="cls-3" d="M266.62,79.39c-3.95,7.42-11.84,12.63-18.58,13.79.06-1.49.11-2.97.17-4.47.79-.28,1.53-.55,2.26-.82,2.41-.88,4.57-2.2,6.54-3.81,1.9-1.55,3.55-3.35,4.87-5.43.1-.16.19-.33.33-.45.11-.09.3-.16.42-.13,1.29.39,2.57.8,3.85,1.21.04.01.07.06.14.11Z"/>
      <path class="cls-3" d="M229.34,100.65c.51.17.96.32,1.48.48-.24,1.47-.47,2.9-.72,4.44-1.21-.4-2.32-.77-3.54-1.17.91-1.34,1.88-2.5,2.78-3.75Z"/>
    </g>
  </g>
  <g>
    <path class="cls-3" d="M273.02,157.09c.29.18.72.33,1.17.33.67,0,1.06-.35,1.06-.86,0-.47-.27-.74-.95-1-.82-.29-1.33-.72-1.33-1.43,0-.79.65-1.37,1.63-1.37.52,0,.89.12,1.12.25l-.18.53c-.17-.09-.5-.24-.96-.24-.69,0-.95.41-.95.76,0,.47.31.7,1,.97.85.33,1.29.74,1.29,1.48,0,.78-.58,1.45-1.77,1.45-.49,0-1.02-.14-1.29-.32l.17-.55Z"/>
    <path class="cls-3" d="M281.06,155.66c-.04-.7-.08-1.55-.08-2.18h-.02c-.17.59-.38,1.22-.64,1.92l-.89,2.45h-.49l-.82-2.41c-.24-.71-.44-1.36-.58-1.96h-.01c-.02.63-.05,1.48-.1,2.23l-.13,2.17h-.62l.35-5.05h.83l.86,2.44c.21.62.38,1.18.51,1.7h.02c.13-.51.31-1.06.53-1.7l.9-2.44h.83l.31,5.05h-.64l-.13-2.22Z"/>
  </g>
</svg>