<?xml version="1.0" encoding="UTF-8"?>
<svg id="Layer_1" data-name="Layer 1" xmlns="http://www.w3.org/2000/svg" viewBox="0 0 326.04 213.95">
  <defs>
    <style>
      .cls-1 {
        fill: #010101;
      }

      .cls-2 {
        fill: #fff;
      }
    </style>
  </defs>
  <g>
    <rect class="cls-1" x="27.31" y="22.46" width="263.42" height="146.83" rx="10.45" ry="10.45"/>
    <path class="cls-2" d="M280.28,23.71c5.06,0,9.2,4.14,9.2,9.2v125.93c0,5.06-4.14,9.2-9.2,9.2H37.75c-5.06,0-9.2-4.14-9.2-9.2V32.91c0-5.06,4.14-9.2,9.2-9.2h242.53M280.28,21.21H37.75c-6.45,0-11.7,5.25-11.7,11.7v125.93c0,6.45,5.25,11.7,11.7,11.7h242.53c6.45,0,11.7-5.25,11.7-11.7V32.91c0-6.45-5.25-11.7-11.7-11.7h0Z"/>
  </g>
  <g>
    <g>
      <path class="cls-2" d="M47.9,75.13c-1.87-.47-3.51-1.15-4.93-2.05-1.42-.9-2.57-2.01-3.45-3.33-.89-1.32-1.41-2.85-1.57-4.59-.03-.35.08-.67.34-.94.26-.27.56-.41.92-.41h6.52c.55,0,.93.08,1.16.24.23.16.48.5.77,1.01.35.64,1.02,1.21,2,1.69s2.33.72,4.03.72c1.8,0,3.05-.25,3.74-.75s1.04-1.02,1.04-1.57c0-.8-.5-1.5-1.5-2.08s-2.64-1.26-4.93-2.03c-1.51-.48-3.08-1.05-4.71-1.71s-3.12-1.47-4.47-2.44c-1.35-.97-2.47-2.14-3.36-3.53-.89-1.38-1.33-3.04-1.33-4.97,0-1.8.36-3.42,1.09-4.85.72-1.43,1.74-2.66,3.04-3.67s2.86-1.79,4.66-2.34c1.8-.55,3.78-.82,5.94-.82s4.2.27,6.04.82c1.83.55,3.43,1.32,4.78,2.32,1.35,1,2.42,2.2,3.21,3.6s1.25,2.94,1.38,4.61c.03.35-.08.67-.34.94-.26.27-.56.41-.92.41h-6.71c-.45,0-.8-.1-1.04-.31-.24-.21-.44-.54-.6-.99-.29-.8-.89-1.51-1.81-2.12-.92-.61-2.18-.92-3.79-.92s-2.82.27-3.53.8c-.71.53-1.06,1.12-1.06,1.76,0,.74.47,1.37,1.42,1.88.95.52,2.55,1.16,4.8,1.93,1.29.45,2.75,1.01,4.4,1.67,1.64.66,3.18,1.5,4.61,2.51s2.64,2.25,3.62,3.72c.98,1.46,1.47,3.23,1.47,5.29,0,1.84-.38,3.45-1.14,4.85-.76,1.4-1.8,2.57-3.14,3.5s-2.91,1.64-4.73,2.12c-1.82.48-3.81.72-5.96.72s-4.12-.23-5.99-.7Z"/>
      <path class="cls-2" d="M97.97,37.78c.23-.23.5-.34.82-.34h7.29c.32,0,.6.11.82.34.23.23.34.5.34.82v20.04c0,2.41-.38,4.67-1.13,6.76s-1.87,3.91-3.33,5.46-3.28,2.76-5.43,3.65c-2.16.89-4.64,1.33-7.44,1.33s-5.33-.44-7.49-1.33c-2.16-.89-3.96-2.1-5.41-3.65-1.45-1.55-2.54-3.36-3.28-5.46-.74-2.09-1.11-4.35-1.11-6.76v-20.04c0-.32.11-.6.34-.82.23-.23.5-.34.82-.34h7.34c.32,0,.6.11.82.34.22.23.34.5.34.82v19.46c0,2.74.64,4.83,1.93,6.28s3.19,2.17,5.7,2.17,4.47-.72,5.77-2.17,1.96-3.54,1.96-6.28v-19.46c0-.32.11-.6.34-.82Z"/>
      <path class="cls-2" d="M121.01,75.13c-1.87-.47-3.51-1.15-4.93-2.05-1.42-.9-2.57-2.01-3.45-3.33-.89-1.32-1.41-2.85-1.57-4.59-.03-.35.08-.67.34-.94.26-.27.56-.41.92-.41h6.52c.55,0,.93.08,1.16.24.23.16.48.5.77,1.01.35.64,1.02,1.21,2,1.69s2.33.72,4.03.72c1.8,0,3.05-.25,3.74-.75s1.04-1.02,1.04-1.57c0-.8-.5-1.5-1.5-2.08s-2.64-1.26-4.93-2.03c-1.51-.48-3.08-1.05-4.71-1.71s-3.11-1.47-4.47-2.44-2.47-2.14-3.36-3.53c-.89-1.38-1.33-3.04-1.33-4.97,0-1.8.36-3.42,1.09-4.85.72-1.43,1.74-2.66,3.04-3.67s2.86-1.79,4.66-2.34c1.8-.55,3.78-.82,5.94-.82s4.2.27,6.04.82c1.83.55,3.43,1.32,4.78,2.32,1.35,1,2.42,2.2,3.21,3.6s1.25,2.94,1.38,4.61c.03.35-.08.67-.34.94-.26.27-.56.41-.92.41h-6.71c-.45,0-.8-.1-1.04-.31-.24-.21-.44-.54-.6-.99-.29-.8-.89-1.51-1.81-2.12-.92-.61-2.18-.92-3.79-.92s-2.82.27-3.53.8c-.71.53-1.06,1.12-1.06,1.76,0,.74.47,1.37,1.42,1.88.95.52,2.55,1.16,4.8,1.93,1.29.45,2.75,1.01,4.4,1.67,1.64.66,3.18,1.5,4.61,2.51s2.64,2.25,3.62,3.72c.98,1.46,1.47,3.23,1.47,5.29,0,1.84-.38,3.45-1.14,4.85-.76,1.4-1.8,2.57-3.14,3.5s-2.91,1.64-4.73,2.12c-1.82.48-3.81.72-5.96.72s-4.12-.23-5.99-.7Z"/>
      <path class="cls-2" d="M144.28,46.47c-.23-.23-.34-.5-.34-.82v-7.05c0-.32.11-.6.34-.82.22-.23.5-.34.82-.34h30.81c.32,0,.6.11.82.34.23.23.34.5.34.82v7.05c0,.32-.11.6-.34.82-.23.23-.5.34-.82.34h-9.61c-.26,0-.48.1-.68.29-.19.19-.29.42-.29.68v26.18c0,.32-.11.6-.34.82-.23.23-.5.34-.82.34h-7.34c-.32,0-.6-.11-.82-.34-.23-.23-.34-.5-.34-.82v-26.18c0-.26-.1-.48-.29-.68-.19-.19-.42-.29-.68-.29h-9.61c-.32,0-.6-.11-.82-.34Z"/>
      <path class="cls-2" d="M187.31,37.73c.29-.19.61-.29.97-.29h7.24c.35,0,.68.1.97.29.29.19.5.45.63.77l14.34,35.54c.1.26.07.5-.07.72-.14.23-.36.34-.65.34h-8.21c-.35,0-.67-.1-.94-.29-.27-.19-.47-.45-.6-.77l-1.35-3.53c-.23-.61-.66-.92-1.3-.92h-12.89c-.64,0-1.08.31-1.3.92l-1.35,3.53c-.13.32-.33.58-.6.77-.27.19-.59.29-.94.29h-8.21c-.29,0-.51-.11-.65-.34-.14-.23-.17-.47-.07-.72l14.39-35.54c.13-.32.34-.58.63-.77ZM195.59,60.57c.11-.19.14-.4.07-.63l-3.43-9.22c-.06-.16-.18-.24-.34-.24s-.27.08-.34.24l-3.48,9.22c-.06.23-.04.44.07.63.11.19.3.29.56.29h6.33c.26,0,.44-.1.56-.29Z"/>
      <path class="cls-2" d="M215.13,37.78c.23-.23.5-.34.82-.34h7.34c.32,0,.6.11.82.34.22.23.34.5.34.82v35.35c0,.32-.11.6-.34.82-.23.23-.5.34-.82.34h-7.34c-.32,0-.6-.11-.82-.34-.22-.23-.34-.5-.34-.82v-35.35c0-.32.11-.6.34-.82Z"/>
      <path class="cls-2" d="M239.56,74.77c-.23.23-.5.34-.82.34h-7.34c-.32,0-.6-.11-.82-.34-.22-.23-.34-.5-.34-.82v-35.35c0-.32.11-.6.34-.82.23-.23.5-.34.82-.34h5.89c.81,0,1.43.31,1.88.92l15.5,19.37c.1.16.22.21.36.14.15-.06.22-.18.22-.34v-18.93c0-.32.11-.6.34-.82.23-.23.5-.34.82-.34h7.29c.32,0,.6.11.82.34.23.23.34.5.34.82v35.35c0,.32-.11.6-.34.82-.23.23-.5.34-.82.34h-5.84c-.8,0-1.43-.31-1.88-.92l-15.5-19.32c-.1-.16-.22-.21-.36-.14-.14.06-.22.18-.22.34v18.88c0,.32-.11.6-.34.82Z"/>
      <path class="cls-2" d="M284.81,55.21c.23.23.34.5.34.82v6.71c0,.32-.11.6-.34.82-.23.23-.5.34-.82.34h-12.31c-.32,0-.6-.11-.82-.34-.23-.23-.34-.5-.34-.82v-6.71c0-.32.11-.6.34-.82.23-.23.5-.34.82-.34h12.31c.32,0,.6.11.82.34Z"/>
    </g>
    <g>
      <path class="cls-2" d="M55.09,85.89c.33-.26.7-.38,1.11-.38,3.32,0,4.98,0,8.3,0,.41,0,.77.12,1.11.38.33.26.57.61.72,1.07,5.48,20.74,10.97,41.44,16.43,62.19.11.36.08.7-.08,1.05s-.41.54-.75.61c-3.76.8-5.64,1.18-9.4,1.88-.41.08-.77.02-1.08-.2-.31-.21-.54-.54-.69-1-.62-2.04-.93-3.29-1.55-5.99-.26-1.17-.76-1.74-1.49-1.63-5.91.85-8.86,1.22-14.77,1.74-.74.06-1.24.78-1.49,2.07-.62,2.98-.93,4.38-1.55,6.63-.15.52-.38.91-.69,1.21-.31.3-.67.45-1.08.48-3.76.27-5.64.36-9.4.4-.33,0-.58-.14-.75-.45-.17-.31-.19-.67-.08-1.07,5.17-22.75,10.67-45.3,16.48-67.91.15-.47.39-.82.72-1.08ZM64.58,124.99c.13-.38.16-.77.08-1.18-1.57-6.62-2.36-7.32-3.93-14.07-.07-.29-.2-.44-.39-.43-.18,0-.31.16-.39.46-1.59,6.89-2.39,7.62-3.98,14.55-.07.42-.05.82.08,1.19.13.37.34.55.64.53,2.9-.16,4.35-.25,7.25-.46.3-.02.51-.22.64-.6Z"/>
      <path class="cls-2" d="M103.82,121.53c-.26-.34-.39-.78-.39-1.29v-7.61c0-.44.13-.84.39-1.19.26-.35.57-.54.94-.57,7.26-.56,10.88-.84,18.14-1.32.37-.02.68.12.94.41.26.29.39.66.39,1.08v29.1c0,.42-.13.78-.39,1.1-.26.32-.57.51-.94.58-2.41.47-3.62.71-6.03,1.21-.37.08-.68.01-.94-.21-.26-.23-.39-.55-.39-.97v-1.96c0-.24-.08-.38-.25-.42s-.3.05-.41.26c-1.14,1.9-2.64,3.35-4.48,4.49-1.84,1.14-3.76,1.9-5.75,2.35-3.13.72-6.08.88-8.85.07-2.77-.8-5.19-2.48-7.27-5.39-2.08-2.91-3.73-7-4.95-11.61-1.22-4.61-1.82-9.48-1.82-12.68s.61-7.73,1.82-12.17c1.22-4.44,2.87-8.49,4.95-11.61,2.08-3.12,4.51-5.24,7.27-6.63,2.77-1.39,5.71-1.93,8.85-1.93,3.47,0,6.71.66,9.73,2.31,3.02,1.65,5.59,4.13,7.69,7.52.22.41.31.87.28,1.37-.04.5-.2.89-.5,1.17-2.72,2.74-4.08,4.19-6.8,7-.74.73-1.42.67-2.05-.21-1.07-1.51-2.31-2.71-3.73-3.57-1.42-.86-2.96-1.27-4.62-1.2-1.62.07-3.15.6-4.59,1.61-1.44,1.02-2.68,2.39-3.73,4.07-1.05,1.68-1.88,3.64-2.49,5.68-.61,2.04-.91,4.01-.91,5.65s.3,3.65.91,5.7c.61,2.05,1.44,3.98,2.49,5.56,1.05,1.59,2.3,2.8,3.73,3.59,1.44.79,2.97,1.03,4.59.77,1.84-.3,3.53-1.22,5.06-2.73,1.53-1.5,2.81-3.38,3.84-5.51.22-.46.33-.93.33-1.4v-.24c0-.53-.18-.76-.55-.72-3.43.37-5.14.56-8.57.94-.37.04-.68-.11-.94-.46Z"/>
      <path class="cls-2" d="M130.2,85.85c.26-.27.57-.41.94-.41,3.36,0,5.04,0,8.41,0,.37,0,.68.13.94.4s.39.61.39,1.02v50.68c0,.4-.13.75-.39,1.05s-.57.47-.94.51c-3.36.43-5.04.68-8.41,1.23-.37.06-.68-.02-.94-.24s-.39-.54-.39-.95v-52.27c0-.42.13-.76.39-1.03Z"/>
      <path class="cls-2" d="M147.9,137.84c-.26-.25-.39-.57-.39-.97v-50c0-.41.13-.75.39-1.02.26-.27.57-.4.94-.4,3.34,0,5.01,0,8.35.01.37,0,.68.13.94.41.26.28.39.62.39,1.03v36.59c0,.38.11.71.33.99.22.28.48.42.77.42,7.3,0,10.95.2,18.25.85.37.03.68.24.94.61.26.37.39.81.39,1.31v10.08c0,.4-.13.72-.39.95-.26.23-.57.32-.94.27-9.37-1.34-19.6-1.72-29.04-.82-.37.03-.68-.08-.94-.32Z"/>
      <path class="cls-2" d="M183.62,85.84c.26-.27.57-.4.94-.4,3.36,0,5.04,0,8.41,0,.37,0,.68.13.94.41.26.28.39.62.39,1.04v53.42c0,.42-.13.73-.39.95s-.57.29-.94.22c-3.36-.66-5.04-.97-8.41-1.52-.37-.06-.68-.24-.94-.55-.26-.31-.39-.66-.39-1.07v-51.47c0-.41.13-.75.39-1.02Z"/>
      <path class="cls-2" d="M198.67,99.31c-.26-.4-.39-.87-.39-1.41v-10.99c0-.42.13-.77.39-1.05s.57-.41.94-.41c11.76.01,23.52.03,35.29.05.37,0,.68.14.94.44.26.3.39.68.39,1.14v12.52c0,.63-.13,1.17-.39,1.6-.26.43-.57.64-.94.62-4.4-.23-6.6-.35-11.01-.59-.3-.02-.55.15-.77.5-.22.35-.33.76-.33,1.24v43.87c0,.46-.13.8-.39,1.03-.26.23-.57.29-.94.2-3.36-.83-5.04-1.25-8.41-2.07-.37-.09-.68-.3-.94-.65-.26-.35-.39-.74-.39-1.18v-41.88c0-.46-.11-.87-.33-1.23-.22-.36-.48-.54-.77-.56-4.4-.24-6.6-.35-11.01-.57-.37-.02-.68-.23-.94-.62Z"/>
      <path class="cls-2" d="M250.55,86.93c3.32,6.96,4.98,13.62,8.3,23.1.11.39.3.58.55.6s.44-.17.55-.54c3.32-9.22,4.98-16.15,8.3-23.21.48-.96,1.16-1.36,2.05-1.36,4.16,0,6.24,0,10.4-.02.3,0,.52.13.66.41.15.28.13.59-.06.92-5.13,13.43-9.1,27.3-15.76,40.09-.18.49-.33,1.05-.44,1.7-.11.65-.17,1.29-.17,1.9v24.69c0,.51-.13.9-.39,1.19-.26.29-.57.4-.94.35-3.34-.42-5.01-.67-8.35-1.23-.37-.06-.68-.26-.94-.63-.26-.36-.39-.78-.39-1.29v-23.97c0-.6-.06-1.22-.17-1.87-.11-.65-.26-1.22-.44-1.72-6.2-12.69-10.41-26.17-15.71-39.23-.18-.32-.2-.62-.06-.9.15-.28.37-.41.66-.41,4.14,0,6.21,0,10.34.01.92,0,1.59.42,1.99,1.41Z"/>
    </g>
    <g>
      <path class="cls-2" d="M271.38,158.12c.3.18.73.34,1.19.34.68,0,1.08-.36,1.08-.88,0-.48-.27-.76-.97-1.02-.84-.3-1.36-.73-1.36-1.46,0-.8.66-1.4,1.66-1.4.53,0,.91.12,1.14.25l-.18.54c-.17-.09-.51-.24-.98-.24-.7,0-.97.42-.97.77,0,.48.31.72,1.02.99.87.34,1.31.76,1.31,1.51,0,.79-.59,1.48-1.8,1.48-.5,0-1.04-.15-1.31-.33l.17-.56Z"/>
      <path class="cls-2" d="M279.57,156.67c-.04-.72-.08-1.58-.08-2.22h-.02c-.18.6-.39,1.24-.65,1.95l-.91,2.49h-.5l-.83-2.45c-.24-.73-.45-1.39-.6-2h-.01c-.02.64-.05,1.5-.1,2.27l-.14,2.21h-.63l.36-5.14h.85l.88,2.49c.21.63.39,1.2.52,1.73h.02c.13-.52.31-1.08.54-1.73l.92-2.49h.85l.32,5.14h-.65l-.13-2.26Z"/>
    </g>
  </g>
</svg>