<?xml version="1.0" encoding="UTF-8"?>
<svg id="Layer_1" data-name="Layer 1" xmlns="http://www.w3.org/2000/svg" viewBox="0 0 326.04 213.95">
  <defs>
    <style>
      .cls-1 {
        fill: #010101;
      }

      .cls-2 {
        fill: #fff;
      }
    </style>
  </defs>
  <g>
    <rect class="cls-1" x="26.97" y="22.46" width="263.42" height="146.83" rx="10.45" ry="10.45"/>
    <path class="cls-2" d="M279.95,23.71c5.06,0,9.2,4.14,9.2,9.2v125.93c0,5.06-4.14,9.2-9.2,9.2H37.42c-5.06,0-9.2-4.14-9.2-9.2V32.91c0-5.06,4.14-9.2,9.2-9.2h242.53M279.95,21.21H37.42c-6.45,0-11.7,5.25-11.7,11.7v125.93c0,6.45,5.25,11.7,11.7,11.7h242.53c6.45,0,11.7-5.25,11.7-11.7V32.91c0-6.45-5.25-11.7-11.7-11.7h0Z"/>
  </g>
  <g>
    <path class="cls-2" d="M39.87,32.32c.3-.3.66-.45,1.09-.45h22.96c3.22,0,6,.48,8.36,1.45,2.36.96,4.31,2.28,5.85,3.96,1.54,1.67,2.69,3.62,3.44,5.85s1.13,4.59,1.13,7.07c0,3.3-.71,6.4-2.12,9.29-1.42,2.89-3.62,5.16-6.62,6.79-.34.17-.55.42-.61.74-.06.32.01.63.23.93l9.2,12.8c.21.3.25.59.1.87s-.4.42-.74.42h-12.28c-.99,0-1.8-.43-2.44-1.29l-7.85-11.13c-.21-.34-.51-.6-.9-.77-.39-.17-.77-.26-1.16-.26h-3.99c-.34,0-.64.13-.9.39-.26.26-.39.56-.39.9v10.61c0,.43-.15.79-.45,1.09s-.66.45-1.09.45h-9.71c-.43,0-.79-.15-1.09-.45s-.45-.66-.45-1.09v-47.08c0-.43.15-.79.45-1.09ZM68.68,45.51c-1.07-1.29-2.89-1.93-5.47-1.93h-9.71c-.34,0-.64.13-.9.39-.26.26-.39.56-.39.9v10.8c0,.34.13.64.39.9.26.26.56.39.9.39h9.71c1.29,0,2.38-.18,3.28-.55s1.63-.85,2.19-1.45c.56-.6.96-1.31,1.22-2.12.26-.81.39-1.65.39-2.51,0-1.93-.54-3.54-1.61-4.82Z"/>
    <path class="cls-2" d="M89.13,81.59c-.3-.3-.45-.66-.45-1.09v-47.08c0-.43.15-.79.45-1.09.3-.3.66-.45,1.09-.45h35.44c.43,0,.79.15,1.09.45.3.3.45.66.45,1.09v9.39c0,.43-.15.79-.45,1.09-.3.3-.66.45-1.09.45h-22.83c-.34,0-.64.13-.9.39s-.39.56-.39.9v4.63c0,.34.13.64.39.9s.56.39.9.39h18.27c.43,0,.79.15,1.09.45.3.3.45.66.45,1.09v8.55c0,.43-.15.79-.45,1.09s-.67.45-1.09.45h-18.27c-.34,0-.64.13-.9.39s-.39.56-.39.9v3.86c0,.34.13.64.39.9s.56.39.9.39h22.83c.43,0,.79.15,1.09.45.3.3.45.66.45,1.09v9.33c0,.43-.15.79-.45,1.09-.3.3-.66.45-1.09.45h-35.44c-.43,0-.79-.15-1.09-.45Z"/>
    <path class="cls-2" d="M130.81,43.9c-.3-.3-.45-.66-.45-1.09v-9.39c0-.43.15-.79.45-1.09s.66-.45,1.09-.45h41.03c.43,0,.79.15,1.09.45.3.3.45.66.45,1.09v9.39c0,.43-.15.79-.45,1.09-.3.3-.66.45-1.09.45h-12.8c-.34,0-.64.13-.9.39s-.39.56-.39.9v34.86c0,.43-.15.79-.45,1.09s-.66.45-1.09.45h-9.78c-.43,0-.79-.15-1.09-.45-.3-.3-.45-.66-.45-1.09v-34.86c0-.34-.13-.64-.39-.9s-.56-.39-.9-.39h-12.8c-.43,0-.79-.15-1.09-.45Z"/>
    <path class="cls-2" d="M188.12,32.26c.39-.26.81-.39,1.29-.39h9.65c.47,0,.9.13,1.29.39.39.26.66.6.84,1.03l19.1,47.34c.13.34.1.66-.1.96s-.48.45-.87.45h-10.93c-.47,0-.89-.13-1.25-.39-.36-.26-.63-.6-.8-1.03l-1.8-4.69c-.3-.81-.88-1.22-1.74-1.22h-17.17c-.86,0-1.44.41-1.74,1.22l-1.8,4.69c-.17.43-.44.77-.8,1.03s-.78.39-1.25.39h-10.93c-.39,0-.68-.15-.87-.45s-.23-.62-.1-.96l19.17-47.34c.17-.43.45-.77.84-1.03ZM199.15,62.68c.15-.26.18-.54.1-.84l-4.57-12.28c-.09-.21-.24-.32-.45-.32s-.36.11-.45.32l-4.63,12.28c-.09.3-.05.58.1.84s.4.39.74.39h8.43c.34,0,.59-.13.74-.39Z"/>
    <path class="cls-2" d="M225.17,32.32c.3-.3.66-.45,1.09-.45h9.78c.43,0,.79.15,1.09.45.3.3.45.66.45,1.09v47.08c0,.43-.15.79-.45,1.09s-.66.45-1.09.45h-9.78c-.43,0-.79-.15-1.09-.45s-.45-.66-.45-1.09v-47.08c0-.43.15-.79.45-1.09Z"/>
    <path class="cls-2" d="M245.75,81.59c-.3-.3-.45-.66-.45-1.09v-47.08c0-.43.15-.79.45-1.09.3-.3.66-.45,1.09-.45h9.71c.43,0,.79.15,1.09.45.3.3.45.66.45,1.09v34.92c0,.34.13.64.39.9.26.26.56.39.9.39h21.22c.43,0,.79.15,1.09.45.3.3.45.66.45,1.09v9.33c0,.43-.15.79-.45,1.09s-.66.45-1.09.45h-33.77c-.43,0-.79-.15-1.09-.45Z"/>
    <path class="cls-2" d="M47.22,90.27c.22-.15.46-.22.73-.22h5.47c.27,0,.51.07.73.22s.38.34.47.58l10.83,26.83c.07.19.05.38-.05.55-.11.17-.27.26-.49.26h-6.2c-.27,0-.5-.07-.71-.22s-.36-.34-.46-.58l-1.02-2.66c-.17-.46-.5-.69-.98-.69h-9.73c-.49,0-.81.23-.98.69l-1.02,2.66c-.1.24-.25.44-.46.58s-.44.22-.71.22h-6.2c-.22,0-.38-.08-.49-.26-.11-.17-.13-.35-.05-.55l10.86-26.83c.1-.24.26-.44.47-.58ZM53.47,107.51c.08-.15.1-.3.05-.47l-2.59-6.96c-.05-.12-.13-.18-.26-.18s-.21.06-.25.18l-2.62,6.96c-.05.17-.03.33.05.47.09.15.23.22.42.22h4.78c.19,0,.33-.07.42-.22Z"/>
    <path class="cls-2" d="M83.56,111.11c1.09-.6,1.99-1.39,2.7-2.39.32-.51.74-.64,1.28-.4l5.07,2.22c.19.07.33.22.4.46s.05.44-.07.64c-.66,1.12-1.44,2.13-2.35,3.04-.91.91-1.93,1.69-3.06,2.33-1.13.64-2.34,1.14-3.63,1.49-1.29.35-2.62.53-4.01.53-2.04,0-3.98-.39-5.81-1.17s-3.44-1.83-4.81-3.17c-1.37-1.34-2.46-2.9-3.26-4.68-.8-1.79-1.2-3.7-1.2-5.74s.4-3.96,1.2-5.74c.8-1.79,1.89-3.35,3.26-4.68,1.37-1.34,2.98-2.39,4.81-3.17,1.83-.78,3.77-1.17,5.81-1.17,1.39,0,2.72.18,4.01.53,1.29.35,2.48.85,3.59,1.49,1.11.64,2.12,1.42,3.04,2.31.92.9,1.71,1.9,2.37,2.99.12.19.15.41.07.64-.07.23-.21.39-.4.49l-5.03,2.22c-.24.12-.48.15-.71.09-.23-.06-.42-.21-.56-.46-.71-1-1.61-1.79-2.72-2.39-1.11-.6-2.33-.89-3.66-.89-1.07,0-2.07.2-3.01.6-.94.4-1.76.95-2.46,1.64-.7.69-1.26,1.51-1.66,2.46-.4.95-.6,1.96-.6,3.03s.2,2.08.6,3.03c.4.95.95,1.77,1.66,2.46.71.69,1.52,1.24,2.46,1.64.94.4,1.94.6,3.01.6,1.36,0,2.59-.3,3.68-.89Z"/>
    <path class="cls-2" d="M94.42,96.87c-.17-.17-.25-.38-.25-.62v-5.32c0-.24.08-.45.25-.62s.38-.26.62-.26h23.26c.24,0,.45.08.62.26.17.17.26.38.26.62v5.32c0,.24-.08.45-.26.62s-.38.25-.62.25h-7.25c-.19,0-.36.07-.51.22s-.22.32-.22.51v19.76c0,.24-.09.45-.26.62-.17.17-.38.26-.62.26h-5.54c-.24,0-.45-.08-.62-.26-.17-.17-.26-.38-.26-.62v-19.76c0-.19-.07-.36-.22-.51s-.32-.22-.51-.22h-7.25c-.24,0-.45-.08-.62-.25Z"/>
    <path class="cls-2" d="M122.05,90.31c.17-.17.38-.26.62-.26h5.54c.24,0,.45.08.62.26.17.17.26.38.26.62v26.68c0,.24-.09.45-.26.62-.17.17-.38.26-.62.26h-5.54c-.24,0-.45-.08-.62-.26-.17-.17-.26-.38-.26-.62v-26.68c0-.24.09-.45.26-.62Z"/>
    <path class="cls-2" d="M149.82,118.27c-.22.15-.46.22-.73.22h-5.47c-.27,0-.51-.07-.73-.22s-.38-.34-.47-.58l-10.83-26.83c-.07-.19-.05-.38.05-.55.11-.17.27-.26.49-.26h6.2c.27,0,.5.07.71.22s.36.34.46.58l6.6,17.61c.05.12.13.18.26.18s.21-.06.25-.18l6.63-17.61c.1-.24.25-.44.46-.58s.44-.22.71-.22h6.2c.22,0,.38.08.49.26.11.17.13.35.05.55l-10.86,26.83c-.1.24-.26.44-.47.58Z"/>
    <path class="cls-2" d="M168.08,90.27c.22-.15.46-.22.73-.22h5.47c.27,0,.51.07.73.22s.38.34.47.58l10.83,26.83c.07.19.05.38-.05.55-.11.17-.27.26-.49.26h-6.2c-.27,0-.5-.07-.71-.22s-.36-.34-.46-.58l-1.02-2.66c-.17-.46-.5-.69-.98-.69h-9.73c-.49,0-.81.23-.98.69l-1.02,2.66c-.1.24-.25.44-.46.58s-.44.22-.71.22h-6.2c-.22,0-.38-.08-.49-.26-.11-.17-.13-.35-.05-.55l10.86-26.83c.1-.24.26-.44.47-.58ZM174.34,107.51c.08-.15.1-.3.05-.47l-2.59-6.96c-.05-.12-.13-.18-.26-.18s-.21.06-.25.18l-2.62,6.96c-.05.17-.03.33.05.47.08.15.22.22.42.22h4.78c.19,0,.33-.07.42-.22Z"/>
    <path class="cls-2" d="M182.95,96.87c-.17-.17-.25-.38-.25-.62v-5.32c0-.24.08-.45.25-.62s.38-.26.62-.26h23.26c.24,0,.45.08.62.26.17.17.26.38.26.62v5.32c0,.24-.08.45-.26.62s-.38.25-.62.25h-7.25c-.19,0-.36.07-.51.22s-.22.32-.22.51v19.76c0,.24-.09.45-.26.62-.17.17-.38.26-.62.26h-5.54c-.24,0-.45-.08-.62-.26-.17-.17-.26-.38-.26-.62v-19.76c0-.19-.07-.36-.22-.51s-.32-.22-.51-.22h-7.25c-.24,0-.45-.08-.62-.25Z"/>
    <path class="cls-2" d="M210.58,90.31c.17-.17.38-.26.62-.26h5.54c.24,0,.45.08.62.26.17.17.26.38.26.62v26.68c0,.24-.09.45-.26.62-.17.17-.38.26-.62.26h-5.54c-.24,0-.45-.08-.62-.26-.17-.17-.26-.38-.26-.62v-26.68c0-.24.09-.45.26-.62Z"/>
    <path class="cls-2" d="M229.92,117.87c-1.83-.78-3.44-1.83-4.81-3.17-1.37-1.34-2.46-2.9-3.26-4.68-.8-1.79-1.2-3.7-1.2-5.74s.4-3.96,1.2-5.74c.8-1.79,1.89-3.35,3.26-4.68,1.37-1.34,2.98-2.39,4.81-3.17,1.83-.78,3.77-1.17,5.81-1.17s4.02.39,5.85,1.17c1.83.78,3.44,1.83,4.81,3.17,1.37,1.34,2.45,2.9,3.24,4.68.79,1.79,1.18,3.7,1.18,5.74s-.39,3.96-1.18,5.74c-.79,1.79-1.87,3.35-3.24,4.68-1.37,1.34-2.98,2.39-4.81,3.17s-3.79,1.17-5.85,1.17-3.98-.39-5.81-1.17ZM232.72,97.14c-.94.4-1.76.95-2.46,1.64-.7.69-1.26,1.51-1.66,2.46-.4.95-.6,1.96-.6,3.03s.2,2.08.6,3.03c.4.95.95,1.77,1.66,2.46.71.69,1.52,1.24,2.46,1.64.94.4,1.94.6,3.01.6s2.11-.2,3.04-.6c.94-.4,1.75-.95,2.44-1.64.69-.69,1.24-1.51,1.64-2.46.4-.95.6-1.96.6-3.03s-.2-2.08-.6-3.03-.95-1.77-1.64-2.46c-.69-.69-1.51-1.24-2.44-1.64-.94-.4-1.95-.6-3.04-.6s-2.07.2-3.01.6Z"/>
    <path class="cls-2" d="M260.88,118.23c-.17.17-.38.26-.62.26h-5.54c-.24,0-.45-.08-.62-.26-.17-.17-.26-.38-.26-.62v-26.68c0-.24.09-.45.26-.62.17-.17.38-.26.62-.26h4.45c.61,0,1.08.23,1.42.69l11.7,14.62c.07.12.16.16.27.11.11-.05.16-.13.16-.26v-14.29c0-.24.09-.45.26-.62.17-.17.38-.26.62-.26h5.5c.24,0,.45.08.62.26.17.17.26.38.26.62v26.68c0,.24-.08.45-.26.62-.17.17-.38.26-.62.26h-4.41c-.61,0-1.08-.23-1.42-.69l-11.7-14.58c-.07-.12-.16-.16-.27-.11-.11.05-.16.13-.16.26v14.25c0,.24-.09.45-.26.62Z"/>
    <path class="cls-2" d="M38.31,158.22c-.19-.19-.29-.42-.29-.7v-30.08c0-.27.1-.51.29-.7.19-.19.42-.29.7-.29h21.82c.27,0,.51.1.7.29.19.19.29.42.29.7v6c0,.27-.1.51-.29.7s-.42.29-.7.29h-13.81c-.22,0-.41.08-.58.25-.16.16-.25.36-.25.58v4.03c0,.22.08.41.25.58.16.16.36.25.58.25h11.3c.27,0,.51.1.7.29s.29.42.29.7v5.47c0,.27-.1.51-.29.7s-.42.29-.7.29h-11.3c-.22,0-.41.08-.58.25-.16.16-.25.36-.25.58v9.16c0,.27-.1.51-.29.7-.19.19-.42.29-.7.29h-6.21c-.27,0-.51-.1-.7-.29Z"/>
    <path class="cls-2" d="M74.29,157.81c-2.07-.88-3.88-2.07-5.42-3.57-1.55-1.51-2.77-3.27-3.68-5.28-.9-2.01-1.36-4.17-1.36-6.47s.45-4.46,1.36-6.47c.9-2.01,2.13-3.77,3.68-5.28,1.55-1.51,3.36-2.7,5.42-3.57,2.07-.88,4.25-1.31,6.55-1.31s4.53.44,6.6,1.31c2.07.88,3.88,2.07,5.42,3.57,1.55,1.51,2.77,3.27,3.66,5.28.89,2.01,1.34,4.17,1.34,6.47s-.45,4.46-1.34,6.47c-.89,2.01-2.11,3.77-3.66,5.28-1.55,1.51-3.36,2.7-5.42,3.57-2.07.88-4.27,1.31-6.6,1.31s-4.49-.44-6.55-1.31ZM77.45,134.45c-1.05.45-1.98,1.07-2.77,1.85s-1.42,1.71-1.87,2.77c-.45,1.07-.68,2.21-.68,3.41s.23,2.34.68,3.41c.45,1.07,1.08,1.99,1.87,2.77s1.72,1.4,2.77,1.85c1.05.45,2.19.68,3.39.68s2.38-.23,3.43-.68c1.05-.45,1.97-1.07,2.75-1.85s1.4-1.71,1.85-2.77.68-2.21.68-3.41-.23-2.34-.68-3.41-1.07-1.99-1.85-2.77-1.7-1.4-2.75-1.85c-1.05-.45-2.2-.68-3.43-.68s-2.34.23-3.39.68Z"/>
    <path class="cls-2" d="M101.55,126.75c.19-.19.42-.29.7-.29h14.67c2.05,0,3.83.31,5.34.92,1.51.62,2.75,1.46,3.74,2.53.99,1.07,1.72,2.31,2.2,3.74.48,1.42.72,2.93.72,4.52,0,2.11-.45,4.09-1.36,5.94-.9,1.85-2.31,3.29-4.23,4.34-.22.11-.35.27-.39.47-.04.21,0,.4.14.6l5.88,8.18c.14.19.16.38.06.55s-.25.27-.47.27h-7.85c-.63,0-1.15-.27-1.56-.82l-5.01-7.11c-.14-.22-.33-.38-.58-.49s-.49-.16-.74-.16h-2.55c-.22,0-.41.08-.58.25-.16.16-.25.36-.25.58v6.78c0,.27-.1.51-.29.7-.19.19-.42.29-.7.29h-6.21c-.27,0-.51-.1-.7-.29-.19-.19-.29-.42-.29-.7v-30.08c0-.27.1-.51.29-.7ZM119.96,135.17c-.68-.82-1.85-1.23-3.49-1.23h-6.2c-.22,0-.41.08-.58.25-.16.16-.25.36-.25.58v6.9c0,.22.08.41.25.58.16.16.36.25.58.25h6.2c.82,0,1.52-.12,2.1-.35s1.04-.54,1.4-.92c.36-.38.62-.84.78-1.36.16-.52.25-1.05.25-1.6,0-1.23-.34-2.26-1.03-3.08Z"/>
    <path class="cls-2" d="M159.16,146.35c-.19-.19-.29-.42-.29-.7v-4.85c0-.27.1-.51.29-.7s.42-.29.7-.29h13.48c.27,0,.51.1.7.29.19.19.29.42.29.7v16.72c0,.27-.1.51-.29.7-.19.19-.42.29-.7.29h-4.48c-.27,0-.51-.1-.7-.29s-.29-.42-.29-.7v-1.19c0-.14-.06-.23-.19-.27-.12-.04-.23,0-.31.1-.85.96-1.96,1.69-3.33,2.2-1.37.51-2.79.76-4.27.76-2.33,0-4.52-.44-6.57-1.31-2.05-.88-3.86-2.07-5.4-3.57-1.55-1.51-2.77-3.27-3.68-5.28-.9-2.01-1.36-4.17-1.36-6.47s.45-4.46,1.36-6.47c.9-2.01,2.13-3.77,3.68-5.28,1.55-1.51,3.35-2.7,5.4-3.57,2.05-.88,4.25-1.31,6.57-1.31,2.58,0,4.99.53,7.23,1.6,2.25,1.07,4.15,2.51,5.71,4.31.16.22.23.46.21.72s-.15.46-.37.6l-5.05,3.41c-.55.36-1.05.3-1.52-.16-.79-.79-1.72-1.42-2.77-1.87-1.05-.45-2.2-.68-3.43-.68s-2.34.23-3.41.68c-1.07.45-1.99,1.07-2.77,1.85s-1.4,1.71-1.85,2.77c-.45,1.07-.68,2.21-.68,3.41s.23,2.34.68,3.41c.45,1.07,1.07,1.99,1.85,2.77s1.71,1.4,2.77,1.85c1.07.45,2.21.68,3.41.68,1.37,0,2.62-.3,3.76-.9,1.14-.6,2.09-1.41,2.86-2.42.16-.22.25-.45.25-.7v-.12c0-.27-.14-.41-.41-.41h-6.37c-.27,0-.51-.1-.7-.29Z"/>
    <path class="cls-2" d="M187.42,157.81c-2.07-.88-3.88-2.07-5.42-3.57-1.55-1.51-2.77-3.27-3.68-5.28-.9-2.01-1.36-4.17-1.36-6.47s.45-4.46,1.36-6.47c.9-2.01,2.13-3.77,3.68-5.28,1.55-1.51,3.36-2.7,5.42-3.57,2.07-.88,4.25-1.31,6.55-1.31s4.53.44,6.6,1.31c2.07.88,3.88,2.07,5.42,3.57,1.55,1.51,2.77,3.27,3.66,5.28.89,2.01,1.34,4.17,1.34,6.47s-.45,4.46-1.34,6.47c-.89,2.01-2.11,3.77-3.66,5.28-1.55,1.51-3.36,2.7-5.42,3.57-2.07.88-4.27,1.31-6.6,1.31s-4.49-.44-6.55-1.31ZM190.58,134.45c-1.05.45-1.98,1.07-2.77,1.85s-1.42,1.71-1.87,2.77c-.45,1.07-.68,2.21-.68,3.41s.23,2.34.68,3.41c.45,1.07,1.08,1.99,1.87,2.77s1.72,1.4,2.77,1.85c1.05.45,2.19.68,3.39.68s2.38-.23,3.43-.68c1.05-.45,1.97-1.07,2.75-1.85s1.4-1.71,1.85-2.77.68-2.21.68-3.41-.23-2.34-.68-3.41-1.07-1.99-1.85-2.77-1.7-1.4-2.75-1.85c-1.05-.45-2.2-.68-3.43-.68s-2.34.23-3.39.68Z"/>
    <path class="cls-2" d="M223.33,157.81c-2.07-.88-3.88-2.07-5.42-3.57-1.55-1.51-2.77-3.27-3.68-5.28-.9-2.01-1.36-4.17-1.36-6.47s.45-4.46,1.36-6.47c.9-2.01,2.13-3.77,3.68-5.28,1.55-1.51,3.36-2.7,5.42-3.57,2.07-.88,4.25-1.31,6.55-1.31s4.53.44,6.6,1.31c2.07.88,3.88,2.07,5.42,3.57,1.55,1.51,2.77,3.27,3.66,5.28.89,2.01,1.34,4.17,1.34,6.47s-.45,4.46-1.34,6.47c-.89,2.01-2.11,3.77-3.66,5.28-1.55,1.51-3.36,2.7-5.42,3.57-2.07.88-4.27,1.31-6.6,1.31s-4.49-.44-6.55-1.31ZM226.5,134.45c-1.05.45-1.98,1.07-2.77,1.85s-1.42,1.71-1.87,2.77c-.45,1.07-.68,2.21-.68,3.41s.23,2.34.68,3.41c.45,1.07,1.08,1.99,1.87,2.77s1.72,1.4,2.77,1.85c1.05.45,2.19.68,3.39.68s2.38-.23,3.43-.68c1.05-.45,1.97-1.07,2.75-1.85s1.4-1.71,1.85-2.77.68-2.21.68-3.41-.23-2.34-.68-3.41-1.07-1.99-1.85-2.77-1.7-1.4-2.75-1.85c-1.05-.45-2.2-.68-3.43-.68s-2.34.23-3.39.68Z"/>
    <path class="cls-2" d="M250.6,158.22c-.19-.19-.29-.42-.29-.7v-30.08c0-.27.1-.51.29-.7.19-.19.42-.29.7-.29h13.89c2.49,0,4.69.42,6.6,1.27s3.49,2.01,4.75,3.47c1.26,1.47,2.21,3.17,2.86,5.12.64,1.94.97,4,.97,6.16s-.32,4.26-.97,6.21c-.64,1.94-1.6,3.64-2.86,5.1-1.26,1.45-2.84,2.6-4.75,3.45s-4.1,1.27-6.6,1.27h-13.89c-.27,0-.51-.1-.7-.29ZM270.16,136.65c-1.26-1.48-3.12-2.22-5.59-2.22h-5.22c-.22,0-.41.08-.58.25s-.25.36-.25.58v14.51c0,.22.08.41.25.58.16.16.36.25.58.25h5.22c1.23,0,2.31-.2,3.25-.6.93-.4,1.71-.95,2.34-1.66.63-.71,1.1-1.56,1.42-2.55.31-.99.47-2.08.47-3.29,0-2.41-.63-4.36-1.89-5.83Z"/>
  </g>
</svg>