<?xml version="1.0" encoding="UTF-8"?>
<svg id="Layer_1" data-name="Layer 1" xmlns="http://www.w3.org/2000/svg" xmlns:xlink="http://www.w3.org/1999/xlink" viewBox="0 0 664.05 203.33">
  <defs>
    <style>
      .cls-1 {
        fill: url(#radial-gradient);
      }

      .cls-2 {
        fill: #fff;
        opacity: .91;
      }

      .cls-3 {
        fill: #00aeef;
      }

      .cls-4 {
        fill: none;
        stroke: #fff;
        stroke-miterlimit: 10;
        stroke-width: .5px;
      }

      .cls-5 {
        fill: #b1b3b6;
      }

      .cls-6 {
        fill: url(#radial-gradient-2);
        fill-rule: evenodd;
      }
    </style>
    <radialGradient id="radial-gradient" cx="182.88" cy="90.25" fx="182.88" fy="90.25" r="36.32" gradientTransform="translate(0 -1.41) scale(1 .99)" gradientUnits="userSpaceOnUse">
      <stop offset="0" stop-color="#fff"/>
      <stop offset=".34" stop-color="#feffff"/>
      <stop offset=".4" stop-color="#f7fcfe"/>
      <stop offset=".48" stop-color="#e3f6fd"/>
      <stop offset=".58" stop-color="#c3ecfb"/>
      <stop offset=".7" stop-color="#97def8"/>
      <stop offset=".82" stop-color="#5eccf4"/>
      <stop offset=".95" stop-color="#19b6f0"/>
      <stop offset=".99" stop-color="#00aeef"/>
      <stop offset="1" stop-color="#bfbfbf"/>
    </radialGradient>
    <radialGradient id="radial-gradient-2" cx="162.34" cy="196.09" fx="162.34" fy="196.09" r="35.89" gradientTransform="translate(20.52 -108.17)" gradientUnits="userSpaceOnUse">
      <stop offset="0" stop-color="#b3e4fa"/>
      <stop offset=".99" stop-color="#00aeef"/>
      <stop offset="1" stop-color="#828282"/>
    </radialGradient>
  </defs>
  <path class="cls-5" d="M635.32,109.98V21.24h-10.28v41.78h-.31c-1.66-2.49-3.64-4.62-5.92-6.39-2.28-1.76-4.67-3.22-7.16-4.36-2.49-1.14-5.06-1.97-7.71-2.49-2.65-.52-5.17-.78-7.55-.78-5.71,0-10.93.96-15.65,2.88-4.73,1.92-8.8,4.59-12.23,8.02-3.43,3.43-6.1,7.48-8.02,12.15-1.92,4.67-2.88,9.76-2.88,15.26,0,4.41.63,8.55,1.86,12.43-2.53,2.27-5.15,3.84-12.78,7.16-4.35,1.89-12.3,7.63-32.11,7.63-3.64,0-7.01-.67-10.12-2.02-3.12-1.35-5.87-3.19-8.26-5.53-2.39-2.34-4.31-5.11-5.76-8.33-1.46-3.22-2.34-6.64-2.65-10.28h60.74v-4.67c0-4.98-.78-9.68-2.34-14.1-1.56-4.41-3.82-8.25-6.77-11.53-2.96-3.27-6.62-5.89-10.98-7.86-4.36-1.97-9.29-2.96-14.8-2.96-5.19,0-10.02.96-14.48,2.88-4.47,1.92-8.36,4.59-11.68,8.02-3.32,3.43-5.92,7.48-7.79,12.15-1.87,4.67-2.8,9.76-2.8,15.26s.96,10.59,2.88,15.26c1.92,4.67,4.54,8.72,7.87,12.15.35.36.72.72,1.09,1.06h-15.38c-9.22,0-8.88-7.13-8.88-7.13V21.24h-10.28v41.78h-.31c-1.66-2.49-3.64-4.62-5.92-6.39-2.28-1.76-4.67-3.22-7.16-4.36-2.49-1.14-5.06-1.97-7.71-2.49-2.65-.52-5.17-.78-7.55-.78-5.71,0-10.93.96-15.65,2.88-4.73,1.92-8.8,4.59-12.23,8.02-3.43,3.43-6.1,7.48-8.02,12.15-1.92,4.67-2.88,9.76-2.88,15.26s.96,10.59,2.88,15.26c1.63,3.98,3.82,7.5,6.55,10.58h-15.96c-5.71,0-5.23-9.33-5.23-9.33v-26.14c0-17.1-13.99-30.97-31.25-30.97-8.86,0-16.85,3.66-22.54,9.53-1.68-3.58-6.18-8.85-18.16-8.85-18.15,0-17.4,16.45-17.4,16.45v28.29c0,12.42-6.02,21.51-21.51,21.51-12.42,0-18.56-9.09-18.56-21.51l-.98-9.79s-3.07-8.6-13.66-8.6h-10.61c-5.72-15.31-20.48-26.22-37.8-26.22-6.93,0-13.45,1.75-19.15,4.83-4.93-2.39-10.46-3.73-16.3-3.73-11.04,0-20.97,4.78-27.82,12.39v-12.41h-10.04v72.23s.6,6.12-5.2,6.18c-.05,0-3.78-.03-6.13-.04.01-1.08.02-1.82.02-1.82V48.78h-10.28v14.29h-.31c-2.08-2.8-4.31-5.11-6.7-6.93-2.39-1.82-4.8-3.24-7.24-4.28-2.44-1.04-4.88-1.76-7.32-2.18-2.44-.41-4.75-.62-6.93-.62-5.4,0-10.36.96-14.87,2.88-4.52,1.92-8.41,4.59-11.68,8.02-3.27,3.43-5.84,7.43-7.71,11.99-1.87,4.57-2.8,9.5-2.8,14.8s.99,10.23,2.96,14.8c1.97,4.57,4.67,8.49,8.1,11.76,3.43,3.27,7.45,5.84,12.07,7.71,4.62,1.87,9.58,2.8,14.87,2.8s10.33-1.04,15.11-3.12c4.77-2.08,8.82-5.61,12.15-10.59h.31v17.02h-53.51c-8.14,0-8.72,8.62-8.72,8.62,0,21.39,11.44,29.74,32.83,29.74s39.56-6.2,39.56-29.74c0-.02,0-.05,0-.07h7.68c5.55,0,10.36-.9,12.61-4.8,1.35-2.34,1.19-4.05,1.19-4.05v-43.41c1.31-14.2,13.25-25.32,27.79-25.32,2.52,0,4.96.33,7.28.96-7.49,7.32-12.14,17.53-12.14,28.84,0,22.28,18.06,40.34,40.34,40.34s40.34-18.06,40.34-40.34c0-.53-.02-1.06-.04-1.58h1.55s8.57-1.99,8.57,6.58,1.01,8.44,1.01,8.44c1.51,12.76,12.1,22.49,30.17,22.49,25.15,0,32.81-14.4,32.81-26.13v-27.67s-1.51-11.55,5.59-11.55c10.02,0,9.16,8.44,9.16,8.44v6.62s-.01,50.08-.01,50.08h10.54v-45.91c.65-10.9,9.74-19.54,20.9-19.54s20.96,9.3,20.96,20.77v34.57c0,11.42,12.17,10.1,12.17,10.1h33.82v-.76c4.67,1.86,9.81,2.8,15.44,2.8,2.39,0,4.91-.26,7.55-.78,2.65-.52,5.22-1.35,7.71-2.49,2.49-1.14,4.88-2.59,7.16-4.36,2.28-1.76,6.23-6.39,6.23-6.39,0,0-2.37,11.54,9.06,11.54h41.29l-1.09-.81c3.51,1.01,7.22,1.53,11.14,1.53,6.02,0,19.83-1.23,25.09-3.58,9.9-4.44,16.32-7.01,24.29-11.15,1.33,2.02,2.85,3.88,4.56,5.59,3.43,3.43,7.5,6.1,12.23,8.02,4.72,1.92,9.94,2.88,15.65,2.88,2.39,0,4.91-.26,7.55-.78,2.65-.52,5.22-1.35,7.71-2.49,2.49-1.14,4.88-2.59,7.16-4.36,2.28-1.76,6.23-6.39,6.23-6.39,0,0-2.37,12.52,9.06,12.52h14.06v-9.12h-7.91c-6.15,0-4.93-5.04-4.93-5.04ZM490.19,71.23c1.4-2.8,3.27-5.29,5.61-7.48s5.06-3.92,8.18-5.22c3.11-1.3,6.33-1.95,9.66-1.95,7.48,0,13.29,2.16,17.44,6.46,4.15,4.31,6.23,9.94,6.23,16.9h-49.21c0-3.01.7-5.92,2.1-8.72ZM85,97.96c-1.4,3.43-3.4,6.36-6,8.8-2.6,2.44-5.58,4.34-8.96,5.69-3.37,1.35-6.93,2.02-10.67,2.02s-7.4-.75-10.67-2.26c-3.27-1.5-6.13-3.53-8.57-6.07-2.44-2.54-4.36-5.5-5.76-8.88-1.4-3.37-2.1-6.98-2.1-10.82s.7-7.45,2.1-10.82c1.4-3.37,3.32-6.33,5.76-8.88,2.44-2.54,5.3-4.57,8.57-6.07,3.27-1.5,6.83-2.26,10.67-2.26,4.26,0,8.1.75,11.53,2.26,3.43,1.51,6.33,3.53,8.72,6.07,2.39,2.55,4.2,5.5,5.45,8.88,1.25,3.38,1.87,6.98,1.87,10.82.1,4.26-.55,8.1-1.95,11.53ZM87.89,138.48c0,6.16-5.88,18.43-27.61,18.43s-24.48-9.03-24.84-16.92c-.21-4.73,4.87-4.5,4.87-4.5h47.59v2.99ZM182.52,118.02c-16.72,0-30.27-13.55-30.27-30.27s13.55-30.27,30.27-30.27,30.27,13.55,30.27,30.27-13.55,30.27-30.27,30.27ZM451.47,98.69c-1.46,3.53-3.48,6.6-6.07,9.19-2.6,2.6-5.68,4.65-9.27,6.15-3.58,1.51-7.45,2.26-11.6,2.26s-8.07-.75-11.45-2.26c-3.37-1.5-6.26-3.55-8.64-6.15-2.39-2.59-4.23-5.66-5.53-9.19-1.3-3.53-1.95-7.32-1.95-11.37s.65-7.84,1.95-11.37c1.3-3.53,3.14-6.59,5.53-9.19,2.39-2.59,5.27-4.65,8.64-6.15,3.37-1.5,7.19-2.26,11.45-2.26s8.02.75,11.6,2.26c3.58,1.51,6.67,3.56,9.27,6.15,2.59,2.6,4.62,5.66,6.07,9.19,1.45,3.53,2.18,7.32,2.18,11.37s-.73,7.84-2.18,11.37ZM622.34,98.69c-1.46,3.53-3.48,6.6-6.07,9.19-2.6,2.6-5.68,4.65-9.27,6.15-3.58,1.51-7.45,2.26-11.6,2.26s-8.07-.75-11.45-2.26c-3.37-1.5-6.26-3.55-8.64-6.15-2.39-2.59-4.23-5.66-5.53-9.19-1.3-3.53-1.95-7.32-1.95-11.37s.65-7.84,1.95-11.37c1.3-3.53,3.14-6.59,5.53-9.19,2.39-2.59,5.27-4.65,8.64-6.15,3.37-1.5,7.19-2.26,11.45-2.26s8.02.75,11.6,2.26c3.58,1.51,6.67,3.56,9.27,6.15,2.59,2.6,4.62,5.66,6.07,9.19,1.45,3.53,2.18,7.32,2.18,11.37s-.73,7.84-2.18,11.37Z"/>
  <g>
    <path class="cls-3" d="M106.31,161.56c.96,0,1.78.34,2.45,1.01.67.67,1.01,1.49,1.01,2.45s-.36,1.78-1.07,2.45c-.71.67-1.51,1.01-2.39,1.01s-1.68-.34-2.39-1.01c-.71-.67-1.07-1.49-1.07-2.45s.34-1.78,1.01-2.45c.67-.67,1.49-1.01,2.45-1.01Z"/>
    <path class="cls-3" d="M147.5,168.13h-4.44l-7.66-20.74h-.12l-6.8,20.74h-4.61l-8.76-26.96h4.96l6.16,20.74h.11l6.97-20.74h4.72l7.09,20.74h.11l6.11-20.74h4.84l-8.7,26.96Z"/>
    <path class="cls-3" d="M159.72,154.65c0-2.11.36-4.03,1.09-5.76.73-1.73,1.73-3.22,3-4.47,1.27-1.25,2.78-2.22,4.55-2.91,1.77-.69,3.69-1.04,5.76-1.04s3.99.35,5.76,1.04c1.77.69,3.28,1.66,4.55,2.91,1.27,1.25,2.27,2.74,3,4.47.73,1.73,1.09,3.65,1.09,5.76s-.37,4.03-1.09,5.76c-.73,1.73-1.73,3.22-3,4.47-1.27,1.25-2.79,2.22-4.55,2.91-1.77.69-3.69,1.04-5.76,1.04s-4-.35-5.76-1.04c-1.77-.69-3.28-1.66-4.55-2.91s-2.27-2.74-3-4.47c-.73-1.73-1.09-3.65-1.09-5.76ZM164.56,154.65c0,1.42.22,2.74.66,3.95.44,1.21,1.08,2.27,1.93,3.17.84.9,1.85,1.61,3.02,2.13,1.17.52,2.49.78,3.95.78s2.77-.26,3.95-.78c1.17-.52,2.18-1.23,3.02-2.13.84-.9,1.49-1.96,1.93-3.17.44-1.21.66-2.52.66-3.95s-.22-2.74-.66-3.95c-.44-1.21-1.09-2.27-1.93-3.17-.85-.9-1.85-1.61-3.02-2.13-1.17-.52-2.49-.78-3.95-.78s-2.78.26-3.95.78c-1.17.52-2.18,1.23-3.02,2.13-.85.9-1.49,1.96-1.93,3.17-.44,1.21-.66,2.53-.66,3.95Z"/>
    <path class="cls-3" d="M195.5,147.56c0-1.23-.04-2.38-.12-3.46-.08-1.08-.12-2.05-.12-2.94h4.26c0,.73.02,1.46.06,2.19.04.73.06,1.48.06,2.25h.11c.31-.65.74-1.29,1.3-1.9.56-.61,1.22-1.16,1.99-1.64.77-.48,1.63-.86,2.59-1.15.96-.29,2-.43,3.11-.43.31,0,.61.02.92.06.31.04.61.11.92.23l-.29,4.55c-.77-.23-1.58-.35-2.42-.35-2.77,0-4.77.89-6.02,2.68-1.25,1.79-1.87,4.23-1.87,7.35v13.14h-4.49v-20.57Z"/>
    <path class="cls-3" d="M216.18,129.62h4.49v38.51h-4.49v-38.51Z"/>
    <path class="cls-3" d="M252.01,163.34h-.12c-.85,1.54-2.18,2.83-4,3.89-1.83,1.06-3.95,1.58-6.37,1.58-1.88,0-3.65-.36-5.3-1.07-1.65-.71-3.08-1.7-4.29-2.97s-2.16-2.77-2.85-4.49c-.69-1.73-1.04-3.61-1.04-5.65s.35-3.92,1.04-5.65c.69-1.73,1.65-3.23,2.88-4.49,1.23-1.27,2.72-2.26,4.47-2.97,1.75-.71,3.68-1.07,5.79-1.07,1.96,0,3.75.4,5.39,1.21,1.63.81,3.06,1.94,4.29,3.4h.12v-15.46h4.49v38.51h-4.49v-4.78ZM252.01,154.65c0-1.42-.22-2.74-.66-3.95-.44-1.21-1.09-2.27-1.93-3.17-.85-.9-1.85-1.61-3.02-2.13-1.17-.52-2.49-.78-3.95-.78s-2.78.26-3.95.78c-1.17.52-2.18,1.23-3.02,2.13-.85.9-1.49,1.96-1.93,3.17-.44,1.21-.66,2.53-.66,3.95s.22,2.74.66,3.95c.44,1.21,1.08,2.27,1.93,3.17.84.9,1.85,1.61,3.02,2.13,1.17.52,2.49.78,3.95.78s2.77-.26,3.95-.78c1.17-.52,2.18-1.23,3.02-2.13.84-.9,1.49-1.96,1.93-3.17.44-1.21.66-2.52.66-3.95Z"/>
  </g>
  <g>
    <ellipse class="cls-1" cx="182.88" cy="87.69" rx="36.32" ry="35.86"/>
    <path class="cls-6" d="M218.45,83.56v-1.12c-.42-1.82-.84-3.64-1.26-5.46h-.14v-.28h-.14v-.42h-.14v-.42h-.14v-.42h-.14v-.42h-.14c-.05-.23-.09-.47-.14-.7h-.14c-.05-.19-.09-.37-.14-.56h-.14v-.42h-.14c-.09-.28-.19-.56-.28-.84h-.14v-.28h-.14v-.28h-.14v-.28h-.14v-.28h-.14v-.28h-.14v-.28l-.28-.28v-.28c-.09-.05-.19-.09-.28-.14-.09-.28-.19-.56-.28-.84h-.14c-.05-.14-.09-.28-.14-.42-.09-.05-.19-.09-.28-.14v-.28c-.09-.05-.19-.09-.28-.14-.05-.19-.09-.37-.14-.56-.14-.09-.28-.19-.42-.28v-.28c-.09-.05-.19-.09-.28-.14v-.28c-.09-.05-.19-.09-.28-.14-.05-.14-.09-.28-.14-.42-.14-.09-.28-.19-.42-.28v-.28c-.14-.09-.28-.19-.42-.28v-.14c-.09-.05-.19-.09-.28-.14v-.28c-.28-.23-.56-.47-.84-.7v-.28c-.47-.42-.93-.84-1.4-1.26-.42-.47-.84-.93-1.26-1.4h-.28c-.28-.33-.56-.65-.84-.98h-.28c-.14-.19-.28-.37-.42-.56h-.28c-.09-.14-.19-.28-.28-.42h-.28c-.09-.14-.19-.28-.28-.42h-.28c-.05-.09-.09-.19-.14-.28h-.28v-.14c-.14-.05-.28-.09-.42-.14-.09-.14-.19-.28-.28-.42-.19-.05-.37-.09-.56-.14-.05-.09-.09-.19-.14-.28-.14-.05-.28-.09-.42-.14v-.14c-.28-.09-.56-.19-.84-.28-.05-.09-.09-.19-.14-.28h-.28l-.28-.28h-.28v-.14h-.28c-.05-.09-.09-.19-.14-.28h-.42v-.14h-.28v-.14h-.28v-.14h-.28v-.14c-.28-.09-.56-.19-.84-.28v-.14h-.42v-.14h-.28v-.14h-.42v-.14h-.28v-.14c-.42-.09-.84-.19-1.26-.28v-.14h-.42v-.14h-.42v-.14h-.42v-.14h-.42v-.14h-.56v-.14h-.56v-.14h-.56v-.14h-.56v-.14h-.7v-.14h-.7v-.14h-.84v-.14h-1.12v-.14h-1.26v-.14h-6.02c-.32.28-.91,0-1.4.14v.14h-1.12v.14h-.7v.14h-.84v.14h-.7v.14h-.56v.14h-.7v.14c-.33.05-.65.09-.98.14v.14h-.42v.14h-.42v.14h-.42v.14h-.42v.14c-.42.09-.84.19-1.26.28v.14c-.23.05-.47.09-.7.14v.14c-.19.05-.37.09-.56.14v.14h-.42v.14c-.28.09-.56.19-.84.28v.14h-.28v.14h-.28v.14h-.28v.14h-.28v.14h-.28v.14h-.28v.14h-.28l-.28.28h-.28c-.05.09-.09.19-.14.28-.19.05-.37.09-.56.14-.05.09-.09.19-.14.28h-.28c-.05.09-.09.19-.14.28h-.28c-.05.09-.09.19-.14.28-.19.05-.37.09-.56.14-.09.14-.19.28-.28.42h-.28c-.05.09-.09.19-.14.28h-.28c-.09.14-.19.28-.28.42h-.28c-.14.19-.28.37-.42.56-5.18,3.72-8.8,9.06-11.49,15.27-.09.42-.19.84-.28,1.26h-.14v.42h-.14v.42h-.14v.42h-.14v.42h-.14c-.05.33-.09.65-.14.98h-.14v.7h-.14v.56h-.14v.7h-.14v.84h-.14v.7h-.14c-.05.84-.09,1.68-.14,2.52-.26.93-.14,2.48-.14,3.64,0,3.04.35,5.83,1.12,8.13.05.37.09.75.14,1.12h.14v.42h.14v.42h.14v.42h.14v.42h.14v.42h.14c.05.28.09.56.14.84h.14v.28h.14v.42h.14v.28h.14v.42h.14c.09.28.19.56.28.84h.14v.28h.14v.28h.14v.28h.14v.28h.14v.28h.14v.28h.14v.28l.28.28v.28c.09.05.19.09.28.14.09.28.19.56.28.84h.14c.05.14.09.28.14.42.09.05.19.09.28.14.05.19.09.37.14.56.14.09.28.19.42.28v.28h.14c.05.14.09.28.14.42.09.05.19.09.28.14v.28c.14.09.28.19.42.28v.28c.19.14.37.28.56.42v.28c.14.09.28.19.42.28v.28c.33.28.65.56.98.84v.28c.47.42.93.84,1.4,1.26.42.47.84.93,1.26,1.4h.28c.23.28.47.56.7.84h.28c.14.19.28.37.42.56h.28c.14.19.28.37.42.56h.28c.05.09.09.19.14.28h.28c.09.14.19.28.28.42.14.05.28.09.42.14.05.09.09.19.14.28.19.05.37.09.56.14.05.09.09.19.14.28h.28c.05.09.09.19.14.28.14.05.28.09.42.14v.14c.28.09.56.19.84.28.05.09.09.19.14.28h.28l.28.28h.28v.14h.28v.14h.28v.14h.28v.14h.28v.14h.28v.14c.28.09.56.19.84.28v.14h.42v.14c.19.05.37.09.56.14v.14c.23.05.47.09.7.14v.14h.42v.14h.42v.14h.42v.14h.42v.14h.28v.14c.37.05.75.09,1.12.14v.14h.42v.14h.56v.14h.56v.14h.56v.14h.7v.14h.84v.14h.7v.14h1.12v.14h1.4c1.09.31,2.87.14,4.2.14h1.68v-.14h1.4v-.14h1.12v-.14h.84v-.14h.7v-.14h.7v-.14h.56v-.14h.56v-.14h.56v-.14h.56v-.14h.42v-.14h.42v-.14h.42v-.14h.56c10.27-4.03,17.17-10.57,21.58-20.46v-.42h.14v-.28h.14c.05-.28.09-.56.14-.84h.14v-.28h.14v-.56c1.1-3.04,1.82-6.47,1.82-10.65,0-1.7.09-3.57-.28-4.9ZM212.01,99.11c-.05.28-.09.56-.14.84h-.14c-.05.19-.09.37-.14.56h-.14v.42h-.14c-.09.28-.19.56-.28.84h-.14v.28h-.14c-.09.28-.19.56-.28.84-.09.05-.19.09-.28.14-.05.19-.09.37-.14.56-.09.05-.19.09-.28.14v.28h-.14v.28l-.28.14c-.05.14-.09.28-.14.42h-.14c-.05.19-.09.37-.14.56-.09.05-.19.09-.28.14v.28c-.14.09-.28.19-.42.28v.28c-.14.09-.28.19-.42.28v.28c-.14.09-.28.19-.42.28v.28c-.19.14-.37.28-.56.42v.28c-.47.42-.93.84-1.4,1.26v.28c-.14.09-.28.19-.42.28-.05.09-.09.19-.14.28h-.28c-.47.51-.93,1.03-1.4,1.54h-.28c-.14.19-.28.37-.42.56h-.28c-.09.14-.19.28-.28.42h-.28c-.09.14-.19.28-.28.42h-.28c-.09.14-.19.28-.28.42h-.28c-.05.09-.09.19-.14.28-.19.05-.37.09-.56.14-.05.09-.09.19-.14.28-.14.05-.28.09-.42.14v.14c-.19.05-.37.09-.56.14-.05.09-.09.19-.14.28-.19.05-.37.09-.56.14-.05.09-.09.19-.14.28-.28.09-.56.19-.84.28v.14h-.28v.14c-.28.09-.56.19-.84.28v.14h-.42v.14c-.19.05-.37.09-.56.14v.14c-.28.05-.56.09-.84.14v.14h-.28v.14c-.23.05-.47.09-.7.14v.14h-.42v.14h-.56v.14c-.28.05-.56.09-.84.14v.14c-.31-.09-.35-.12-.56-.28v-.14c-.19-.05-.37-.09-.56-.14-.05-.09-.09-.19-.14-.28h-.28c-.05-.09-.09-.19-.14-.28-.19-.05-.37-.09-.56-.14v-.14c-.28-.09-.56-.19-.84-.28v-.14h-.42v-.14h-.42v-.14h-.28v-.14h-.42v-.14h-.56v-.14h-.7v-.14h-.7v-.14h-1.26v-.14c-.66-.19-2.48.01-2.94.14h-1.54v.14h-.98v.14h-.84v.14h-.84v.14h-.7v.14h-.7v.14h-.56v.14h-.56v.14h-.7v.14h-.56c-.42.14-.84.28-1.26.42v-.14c-.23-.05-.47-.09-.7-.14v-.14h-.42v-.14c-.28-.09-.56-.19-.84-.28v-.14h-.28v-.14h-.28v-.14c-.28-.09-.56-.19-.84-.28-.05-.09-.09-.19-.14-.28-.28-.09-.56-.19-.84-.28-.05-.09-.09-.19-.14-.28h-.28v-.14h-.28v-.14c-.14-.05-.28-.09-.42-.14-.05-.09-.09-.19-.14-.28h-.28v-.14c-.14-.05-.28-.09-.42-.14-.05-.09-.09-.19-.14-.28h-.28c-.09-.14-.19-.28-.28-.42h-.28c-.09-.14-.19-.28-.28-.42h-.28c-.23-.28-.47-.56-.7-.84h-.28c-.37-.42-.75-.84-1.12-1.26h-.28c-.23-.28-.47-.56-.7-.84-.09-.05-.19-.09-.28-.14v-.28c-.37-.33-.75-.65-1.12-.98v-.28c-.09-.05-.19-.09-.28-.14v-.14c-.14-.09-.28-.19-.42-.28v-.28c-.14-.09-.28-.19-.42-.28v-.28c-.09-.05-.19-.09-.28-.14v-.28c-.14-.09-.28-.19-.42-.28v-.28c-.09-.05-.19-.09-.28-.14v-.28c-.09-.05-.19-.09-.28-.14-.05-.14-.09-.28-.14-.42h-.14v-.28h-.14v-.28c-.09-.05-.19-.09-.28-.14v-.28h-.14v-.28c-.09-.05-.19-.09-.28-.14v-.28h-.14c.04-.97.29-1.63.7-2.24.09-.05.19-.09.28-.14v-.28c.14-.09.28-.19.42-.28v-.28c.09-.05.19-.09.28-.14.05-.14.09-.28.14-.42h.14v-.28c.09-.05.19-.09.28-.14v-.28c.09-.05.19-.09.28-.14.05-.19.09-.37.14-.56h.14c.05-.19.09-.37.14-.56h.14c.47-1.07.45-2.52.42-4.06-.23-.19-.35-.49-.56-.7-.14-.09-.28-.19-.42-.28-.05-.14-.09-.28-.14-.42-.19-.14-.37-.28-.56-.42v-.14h-.28c-.23-.33-.47-.65-.7-.98-.14-.09-.28-.19-.42-.28-.14-.42-.28-.84-.42-1.26h-.14v-.28h-.14c-.09-.28-.19-.56-.28-.84h-.14v-.42h-.14v-.28h-.14v-.42h-.14v-.28h-.14c-.05-.28-.09-.56-.14-.84h-.14v-.42h-.14v-.42h-.14v-.42h-.14v-.56c-.47-1.41-.76-3.04-.28-4.62v-.7h.14c.05-.28.09-.56.14-.84h.14v-.28h.14v-.42h.14c.05-.23.09-.47.14-.7h.14v-.28h.14v-.42h.14c.09-.28.19-.56.28-.84h.14v-.28h.14v-.28h.14v-.28h.14v-.28l.28-.28v-.28c.09-.05.19-.09.28-.14.05-.19.09-.37.14-.56.09-.05.19-.09.28-.14.05-.19.09-.37.14-.56.09-.05.19-.09.28-.14v-.28h.14c.05-.14.09-.28.14-.42.09-.05.19-.09.28-.14v-.28c.14-.09.28-.19.42-.28v-.28h.14c.09-.14.19-.28.28-.42h1.54v-.14h.28v-.14h.42v-.14h.28v-.14c.51-.05,1.03-.09,1.54-.14v-.14c.24-.04.24.13.28.14h.7v.14c.85.31,2.69.75,3.36,0h.28c.16-.1.18-.5.28-.7h.14v-.42h.14v-.7h.14v-.7h.14v-.42c.19-.14.37-.28.56-.42v-.14h.28c.09-.14.19-.28.28-.42h.28c.05-.09.09-.19.14-.28.19-.05.37-.09.56-.14.05-.09.09-.19.14-.28h.28v-.14c.28-.09.56-.19.84-.28.05-.09.09-.19.14-.28.19-.05.37-.09.56-.14v-.14h.28v-.14c.28-.09.56-.19.84-.28v-.14h.42v-.14c.28-.09.56-.19.84-.28v-.14h.28v-.14h.28v-.14h.28v-.14h.42c.95-.42,1.93-1.21,3.22-1.26v.28c-.09.05-.19.09-.28.14v.14h-.28c-.19.23-.37.47-.56.7h-.28c-.14.19-.28.37-.42.56h-.28c-.09.14-.19.28-.28.42-.14.05-.28.09-.42.14-.05.09-.09.19-.14.28h-.28c-.09.14-.19.28-.28.42h-.28c-.09.14-.19.28-.28.42h-.28c-.09.14-.19.28-.28.42h-.28c-.09.14-.19.28-.28.42h-.28c-.14.19-.28.37-.42.56h-.28c-.28.33-.56.65-.84.98.05.28.09.56.14.84.25.11.72.37.98.42.24.04.24-.13.28-.14h.7v-.14c.37-.05.75-.09,1.12-.14v-.14h.42v-.14h.42v-.14h.42v-.14c.42-.09.84-.19,1.26-.28v-.14h.28v-.14h.42v-.14h.42v-.14h.42v-.14h.42v-.14h.28v-.14c.28-.05.56-.09.84-.14v-.14h.28v-.14h.42v-.14h.28v-.14c.28-.05.56-.09.84-.14v-.14h.28v-.14c.28-.05.56-.09.84-.14v-.14h.28v-.14h.42v-.14h.28v-.14l.7-.14v-.14h.42v-.14h.28v-.14h.42v-.14h.28v-.14c.28-.05.56-.09.84-.14v-.14h.14c.05-.28.09-.56.14-.84h-.14c-.05-1.02-.5-.98-1.26-1.26v-.14c-.49-.16-1.07.13-1.4-.14-.42-.27-.22-.28-.42-.7h-.14v-.56h-.14c0-.54.07-.88.14-1.26-.36-.07-.65-.19-.84-.42h-.28v-.14c5.2.12,9.62,1.27,13.31,2.94v.14c.28.09.56.19.84.28v.14c.19.05.37.09.56.14.05.09.09.19.14.28h.28l.28.28h.28v.14h.28v.14c.14.05.28.09.42.14.05.09.09.19.14.28.19.05.37.09.56.14.05.09.09.19.14.28h.28c.05.09.09.19.14.28.14.05.28.09.42.14v.14c-.75.33-1.49.65-2.24.98v.14c-.42.22-.82.22-1.12.56h-.7c-.28-.61-.56-1.21-.84-1.82-.33-.09-.26-.04-.42-.28-.75,0-1.2.03-1.68.28v.14h-.28v.14h-.28c-.05.09-.09.19-.14.28h-.28l-.14.28h-.28c-.05.09-.09.19-.14.28h-.28c-.05.09-.09.19-.14.28h-.28v.14c-.14.05-.28.09-.42.14-.05.09-.09.19-.14.28h-.28c-.09.14-.19.28-.28.42h-.28c-.05.09-.09.19-.14.28-.28.19-.56.37-.84.56-.06.35-.3,1.02-.14,1.54h.14c.14.65.28,1.31.42,1.96h-.14c-.05.19-.09.37-.14.56-.89.28-1.77.56-2.66.84v.14h-.28v.14c-.28.05-.56.09-.84.14v.14c-.19.05-.37.09-.56.14v.14h-.42v.14h-.28v.14h-.28c-.05.09-.09.19-.14.28-.19.05-.37.09-.56.14-.05.09-.09.19-.14.28h-.28v.14c-.28.23-.56.47-.84.7-.19.26.06.2-.28.42-.05.51-.09,1.03-.14,1.54h.14l.14.7c.71-.08,1.05-.44,1.54-.7h.28v-.14c.28-.09.56-.19.84-.28v-.14h.42v-.14h.28v-.14c.83-.29,2.49.38,2.94.56.28.05.56.09.84.14v.14h.28v.14h.42v.14c.19.05.37.09.56.14v.14h.28v.14h.42v.14c.28.09.56.19.84.28v.14h.28v.14h.28v.14h.28v.14h.28l.28.28h.28c.05.09.09.19.14.28.19.05.37.09.56.14.05.09.09.19.14.28.19.05.37.09.56.14.09.14.19.28.28.42.42.37.84.75,1.26,1.12v.28c.14.09.28.19.42.28v.28c.09.05.19.09.28.14.05.14.09.28.14.42.14.09.28.19.42.28v.28c.14.09.28.19.42.28v.28c.14.09.28.19.42.28v.28c.19.14.37.28.56.42v.28c.28.23.56.47.84.7v.28c.28.23.56.47.84.7.05.09.09.19.14.28h.28c.09.14.19.28.28.42.14.05.28.09.42.14.05.09.09.19.14.28.42.28,2.43,1,3.36.7.37-.19.75-.37,1.12-.56.16-.71.5-1.57-.14-2.1.03-.33.06-.35.14-.56.35-.07.51-.14.98-.14.33.28.65.56.98.84.09.14.19.28.28.42h.28c.33.37.65.75.98,1.12h.28c.28.33.56.65.84.98.14.05.28.09.42.14.09.14.19.28.28.42h.28c.14.19.28.37.42.56.34.24.61.21.84.56h.56c-.04,4.37-.78,7.74-2.1,10.79ZM203.46,89.44v-.14h-.28c-.05-.09-.09-.19-.14-.28h-.28c-.05-.09-.09-.19-.14-.28h-.28l-.28-.28h-.28v-.14h-.28v-.14c-.19-.05-.37-.09-.56-.14-.05-.09-.09-.19-.14-.28-.19-.05-.37-.09-.56-.14-.09-.14-.19-.28-.28-.42-.19-.14-.37-.28-.56-.42v-.28c-.09-.05-.19-.09-.28-.14-.05-.14-.09-.28-.14-.42h-.14c-.05-.19-.09-.37-.14-.56h-.14v-.28h-.14v-.28h-.14v-.28h-.14v-.28h-.14v-.28h-.14c-.05-.19-.09-.37-.14-.56-.09-.05-.19-.09-.28-.14v-.28c-.09-.05-.19-.09-.28-.14v-.28c-.09-.05-.19-.09-.28-.14-.23-.28-.47-.56-.7-.84-.98-.05-2.13-.31-2.94-.56h-.7v-.14c-.51-.09-1.03-.19-1.54-.28v-.14c-.33-.05-.65-.09-.98-.14v-.14h-.28v-.14h-.42v-.14h-.28v-.14c-.73-.39-1.36-.46-.98-1.54-.47-.14-.93-.28-1.4-.42v-.14h-.28v-.14h-.42v-.14c-.33-.05-.65-.09-.98-.14v-.14h-.84v-.14c-.91-.26-2.22.09-2.8.28-.33.05-.65.09-.98.14v.14h-.28v.14h-.42v.14c-.19.05-.37.09-.56.14v.14h-.28c-.05.09-.09.19-.14.28-.19.05-.37.09-.56.14-.05.09-.09.19-.14.28h-.28c-.14.19-.28.37-.42.56h-.28c-.28.33-.56.65-.84.98-.23.19-.47.37-.7.56v.28c-.19.14-.37.28-.56.42v.28c-.09.05-.19.09-.28.14-.35.52-1.33,2.26-.98,3.36.76,2.4,4.18,3.39,6.58,4.2h.56v.14h.42v.14h.56v.14h.42v.14c.47.09.93.19,1.4.28.05.09.09.19.14.28.14.05.28.09.42.14v.28c.09.05.19.09.28.14v.28h.14v.28h.14v.42h.14v.42h.14v.56h.14v.56h.14v.56h.14v.7h.14v.84h.14v.84h.14v.98h.14v1.26h.14v1.4h.14v1.96c.19.93.37,1.87.56,2.8h.14c.09.28.19.56.28.84.19.14.37.28.56.42.05.09.09.19.14.28h.42v.14c2.16,0,3.12-1.3,4.2-2.38.37-.33.75-.65,1.12-.98v-.28c.23-.19.47-.37.7-.56v-.28c.19-.14.37-.28.56-.42v-.28c.14-.09.28-.19.42-.28v-.28c.14-.09.28-.19.42-.28v-.28c.14-.09.28-.19.42-.28.05-.14.09-.28.14-.42.09-.05.19-.09.28-.14v-.28c.09-.05.19-.09.28-.14.05-.14.09-.28.14-.42h.14v-.28c.14-.09.28-.19.42-.28v-.28c.09-.05.19-.09.28-.14v-.28c.09-.05.19-.09.28-.14v-.28c.09-.05.19-.09.28-.14v-.28h.14c.05-.14.09-.28.14-.42.09-.05.19-.09.28-.14v-.28c.14-.09.28-.19.42-.28v-.28c.09-.05.19-.09.28-.14.14-.19.28-.37.42-.56.19-.05.37-.09.56-.14.05-.09.09-.19.14-.28.89-.56,2.51-.99,2.8-2.1.28-.3.15-1.33.28-1.82h.14c-.05-.23-.09-.47-.14-.7-.14-.05-.28-.09-.42-.14Z"/>
    <circle class="cls-4" cx="183.04" cy="87.81" r="36.08"/>
    <circle class="cls-2" cx="200.32" cy="68.72" r="2.81"/>
    <path class="cls-2" d="M210.52,80.17c1.19,5.93.47,10.12.11,10.84-.3.6-.48-3.95-.96-6.47-1.69-8.86-7.77-9.2-4.84-12.6,1.52-1.76,4.62,2.91,5.69,8.23Z"/>
  </g>
</svg>
