<svg width="500" height="500" viewBox="0 0 500 500" fill="none" xmlns="http://www.w3.org/2000/svg">
  <defs>
    <linearGradient id="fadeMask" x1="0" y1="0" x2="0" y2="1">
      <stop offset="0%" stop-color="white" stop-opacity="1"/>
      <stop offset="40%" stop-color="white" stop-opacity="0.9"/>
      <stop offset="62%" stop-color="white" stop-opacity="0.3"/>
      <stop offset="80%" stop-color="white" stop-opacity="0"/>
    </linearGradient>
    <mask id="fade">
      <rect width="500" height="500" fill="url(#fadeMask)"/>
    </mask>
    <clipPath id="globe">
      <circle cx="250" cy="250" r="200"/>
    </clipPath>
  </defs>

  <g mask="url(#fade)">
    <!-- Globe outline -->
    <circle cx="250" cy="250" r="200" stroke="#ffffff" stroke-width="1" stroke-opacity="0.15" fill="none"/>

    <!-- Grid lines -->
    <g clip-path="url(#globe)" stroke="#ffffff" stroke-opacity="0.06" stroke-width="0.5" fill="none">
      <path d="M174.5,435.2 L176.9,436.1 L179.3,436.9 L181.8,437.8 L184.4,438.6 L187.1,439.3 L189.8,440.1 L192.6,440.8 L195.5,441.4 L198.5,442.1 L201.5,442.7 L204.6,443.2 L207.7,443.8 L210.9,444.2 L214.2,444.7 L217.4,445.1 L220.8,445.5 L224.1,445.8 L227.5,446.1 L230.9,446.3 L234.4,446.5 L237.8,446.7 L241.3,446.8 L244.8,446.9 L248.3,447 L251.7,447 L255.2,446.9 L258.7,446.8 L262.2,446.7 L265.6,446.5 L269.1,446.3 L272.5,446.1 L275.9,445.8 L279.2,445.5 L282.6,445.1 L285.8,444.7 L289.1,444.2 L292.3,443.8 L295.4,443.2 L298.5,442.7 L301.5,442.1 L304.5,441.4 L307.4,440.8 L310.2,440.1 L312.9,439.3 L315.6,438.6 L318.2,437.8 L320.7,436.9 L323.1,436.1 L325.5,435.2"/>
      <path d="M105.1,387.9 L107,389.6 L109,391.3 L111.1,392.9 L113.5,394.6 L116,396.2 L118.7,397.8 L121.5,399.3 L124.5,400.9 L127.6,402.3 L130.9,403.8 L134.4,405.2 L138,406.5 L141.7,407.9 L145.5,409.1 L149.5,410.4 L153.6,411.5 L157.8,412.7 L162.1,413.7 L166.6,414.8 L171.1,415.7 L175.7,416.6 L180.4,417.5 L185.3,418.3 L190.1,419 L195.1,419.7 L200.1,420.4 L205.2,420.9 L210.3,421.4 L215.5,421.9 L220.8,422.2 L226,422.6 L231.3,422.8 L236.6,423 L242,423.1 L247.3,423.2 L252.7,423.2 L258,423.1 L263.4,423 L268.7,422.8 L274,422.6 L279.2,422.2 L284.5,421.9 L289.7,421.4 L294.8,420.9 L299.9,420.4 L304.9,419.7 L309.9,419 L314.7,418.3 L319.6,417.5 L324.3,416.6 L328.9,415.7 L333.4,414.8 L337.9,413.7 L342.2,412.7 L346.4,411.5 L350.5,410.4 L354.5,409.1 L358.3,407.9 L362,406.5 L365.6,405.2 L369.1,403.8 L372.4,402.3 L375.5,400.9 L378.5,399.3 L381.3,397.8 L384,396.2 L386.5,394.6 L388.9,392.9 L391,391.3 L393,389.6 L394.9,387.9"/>
      <path d="M64.4,324.3 L65.5,326.5 L66.9,328.7 L68.5,330.9 L70.3,333.1 L72.3,335.2 L74.5,337.3 L77,339.4 L79.7,341.4 L82.5,343.5 L85.6,345.4 L88.9,347.4 L92.4,349.3 L96,351.1 L99.9,353 L103.9,354.7 L108.2,356.4 L112.6,358.1 L117.1,359.7 L121.8,361.3 L126.7,362.8 L131.7,364.2 L136.9,365.6 L142.2,366.9 L147.6,368.2 L153.2,369.4 L158.9,370.5 L164.7,371.6 L170.6,372.5 L176.6,373.4 L182.6,374.3 L188.8,375.1 L195.1,375.7 L201.4,376.4 L207.7,376.9 L214.1,377.4 L220.6,377.8 L227.1,378.1 L233.6,378.3 L240.2,378.5 L246.7,378.5 L253.3,378.5 L259.8,378.5 L266.4,378.3 L272.9,378.1 L279.4,377.8 L285.9,377.4 L292.3,376.9 L298.6,376.4 L304.9,375.7 L311.2,375.1 L317.4,374.3 L323.4,373.4 L329.4,372.5 L335.3,371.6 L341.1,370.5 L346.8,369.4 L352.4,368.2 L357.8,366.9 L363.1,365.6 L368.3,364.2 L373.3,362.8 L378.2,361.3 L382.9,359.7 L387.4,358.1 L391.8,356.4 L396.1,354.7 L400.1,353 L404,351.1 L407.6,349.3 L411.1,347.4 L414.4,345.4 L417.5,343.5 L420.3,341.4 L423,339.4 L425.5,337.3 L427.7,335.2 L429.7,333.1 L431.5,330.9 L433.1,328.7 L434.5,326.5 L435.6,324.3"/>
      <path d="M50,251.2 L50.3,253.6 L50.8,256 L51.5,258.3 L52.5,260.7 L53.7,263.1 L55.1,265.4 L56.8,267.7 L58.7,270 L60.9,272.3 L63.3,274.5 L65.9,276.7 L68.7,278.9 L71.8,281.1 L75.1,283.2 L78.6,285.2 L82.3,287.3 L86.2,289.2 L90.3,291.2 L94.6,293 L99.1,294.9 L103.7,296.7 L108.6,298.4 L113.6,300 L118.8,301.6 L124.1,303.2 L129.6,304.6 L135.3,306 L141.1,307.4 L147,308.6 L153,309.8 L159.2,310.9 L165.5,312 L171.9,313 L178.3,313.9 L184.9,314.7 L191.5,315.4 L198.2,316.1 L205,316.7 L211.8,317.1 L218.7,317.6 L225.6,317.9 L232.6,318.1 L239.5,318.3 L246.5,318.4 L253.5,318.4 L260.5,318.3 L267.4,318.1 L274.4,317.9 L281.3,317.6 L288.2,317.1 L295,316.7 L301.8,316.1 L308.5,315.4 L315.1,314.7 L321.7,313.9 L328.1,313 L334.5,312 L340.8,310.9 L347,309.8 L353,308.6 L358.9,307.4 L364.7,306 L370.4,304.6 L375.9,303.2 L381.2,301.6 L386.4,300 L391.4,298.4 L396.3,296.7 L400.9,294.9 L405.4,293 L409.7,291.2 L413.8,289.2 L417.7,287.3 L421.4,285.2 L424.9,283.2 L428.2,281.1 L431.3,278.9 L434.1,276.7 L436.7,274.5 L439.1,272.3 L441.3,270 L443.2,267.7 L444.9,265.4 L446.3,263.1 L447.5,260.7 L448.5,258.3 L449.2,256 L449.7,253.6 L450,251.2"/>
      <path d="M63.5,177.9 L62.8,180.1 L62.3,182.4 L62.1,184.6 L62.1,186.8 L62.3,189.1 L62.8,191.3 L63.5,193.6 L64.4,195.8 L65.5,198 L66.9,200.2 L68.5,202.4 L70.3,204.5 L72.3,206.6 L74.5,208.8 L77,210.8 L79.7,212.9 L82.5,214.9 L85.6,216.9 L88.9,218.8 L92.4,220.7 L96,222.6 L99.9,224.4 L103.9,226.2 L108.2,227.9 L112.6,229.6 L117.1,231.2 L121.8,232.7 L126.7,234.2 L131.7,235.7 L136.9,237.1 L142.2,238.4 L147.6,239.6 L153.2,240.8 L158.9,241.9 L164.7,243 L170.6,244 L176.6,244.9 L182.6,245.7 L188.8,246.5 L195.1,247.2 L201.4,247.8 L207.7,248.4 L214.1,248.8 L220.6,249.2 L227.1,249.5 L233.6,249.8 L240.2,249.9 L246.7,250 L253.3,250 L259.8,249.9 L266.4,249.8 L272.9,249.5 L279.4,249.2 L285.9,248.8 L292.3,248.4 L298.6,247.8 L304.9,247.2 L311.2,246.5 L317.4,245.7 L323.4,244.9 L329.4,244 L335.3,243 L341.1,241.9 L346.8,240.8 L352.4,239.6 L357.8,238.4 L363.1,237.1 L368.3,235.7 L373.3,234.2 L378.2,232.7 L382.9,231.2 L387.4,229.6 L391.8,227.9 L396.1,226.2 L400.1,224.4 L404,222.6 L407.6,220.7 L411.1,218.8 L414.4,216.9 L417.5,214.9 L420.3,212.9 L423,210.8 L425.5,208.8 L427.7,206.6 L429.7,204.5 L431.5,202.4 L433.1,200.2 L434.5,198 L435.6,195.8 L436.5,193.6 L437.2,191.3 L437.7,189.1 L437.9,186.8 L437.9,184.6 L437.7,182.4 L437.2,180.1 L436.5,177.9"/>
      <path d="M103.5,113.9 L102,115.6 L100.7,117.4 L99.6,119.2 L98.7,121 L97.9,122.8 L97.4,124.6 L97,126.5 L96.8,128.3 L96.8,130.1 L97,131.9 L97.4,133.8 L97.9,135.6 L98.7,137.4 L99.6,139.2 L100.7,141 L102,142.8 L103.5,144.5 L105.1,146.3 L107,148 L109,149.7 L111.1,151.3 L113.5,153 L116,154.6 L118.7,156.2 L121.5,157.7 L124.5,159.3 L127.6,160.7 L130.9,162.2 L134.4,163.6 L138,164.9 L141.7,166.2 L145.5,167.5 L149.5,168.7 L153.6,169.9 L157.8,171 L162.1,172.1 L166.6,173.1 L171.1,174.1 L175.7,175 L180.4,175.9 L185.3,176.7 L190.1,177.4 L195.1,178.1 L200.1,178.7 L205.2,179.3 L210.3,179.8 L215.5,180.3 L220.8,180.6 L226,181 L231.3,181.2 L236.6,181.4 L242,181.5 L247.3,181.6 L252.7,181.6 L258,181.5 L263.4,181.4 L268.7,181.2 L274,181 L279.2,180.6 L284.5,180.3 L289.7,179.8 L294.8,179.3 L299.9,178.7 L304.9,178.1 L309.9,177.4 L314.7,176.7 L319.6,175.9 L324.3,175 L328.9,174.1 L333.4,173.1 L337.9,172.1 L342.2,171 L346.4,169.9 L350.5,168.7 L354.5,167.5 L358.3,166.2 L362,164.9 L365.6,163.6 L369.1,162.2 L372.4,160.7 L375.5,159.3 L378.5,157.7 L381.3,156.2 L384,154.6 L386.5,153 L388.9,151.3 L391,149.7 L393,148 L394.9,146.3 L396.5,144.5 L398,142.8 L399.3,141 L400.4,139.2 L401.3,137.4 L402.1,135.6 L402.6,133.8 L403,131.9 L403.2,130.1 L403.2,128.3 L403,126.5 L402.6,124.6 L402.1,122.8 L401.3,121 L400.4,119.2 L399.3,117.4 L398,115.6 L396.5,113.9"/>
      <path d="M172.3,65.7 L170.1,66.7 L168.1,67.6 L166.1,68.6 L164.3,69.6 L162.5,70.7 L160.9,71.7 L159.4,72.8 L157.9,73.9 L156.6,75 L155.4,76.1 L154.4,77.2 L153.4,78.4 L152.6,79.5 L151.8,80.7 L151.2,81.9 L150.7,83.1 L150.4,84.3 L150.1,85.5 L150,86.6 L150,87.8 L150.1,89 L150.4,90.2 L150.7,91.4 L151.2,92.6 L151.8,93.8 L152.6,94.9 L153.4,96.1 L154.4,97.2 L155.4,98.4 L156.6,99.5 L157.9,100.6 L159.4,101.7 L160.9,102.8 L162.5,103.8 L164.3,104.9 L166.1,105.9 L168.1,106.9 L170.1,107.8 L172.3,108.8 L174.5,109.7 L176.9,110.6 L179.3,111.4 L181.8,112.3 L184.4,113.1 L187.1,113.8 L189.8,114.6 L192.6,115.3 L195.5,115.9 L198.5,116.6 L201.5,117.2 L204.6,117.7 L207.7,118.2 L210.9,118.7 L214.2,119.2 L217.4,119.6 L220.8,119.9 L224.1,120.3 L227.5,120.6 L230.9,120.8 L234.4,121 L237.8,121.2 L241.3,121.3 L244.8,121.4 L248.3,121.4 L251.7,121.4 L255.2,121.4 L258.7,121.3 L262.2,121.2 L265.6,121 L269.1,120.8 L272.5,120.6 L275.9,120.3 L279.2,119.9 L282.6,119.6 L285.8,119.2 L289.1,118.7 L292.3,118.2 L295.4,117.7 L298.5,117.2 L301.5,116.6 L304.5,115.9 L307.4,115.3 L310.2,114.6 L312.9,113.8 L315.6,113.1 L318.2,112.3 L320.7,111.4 L323.1,110.6 L325.5,109.7 L327.7,108.8 L329.9,107.8 L331.9,106.9 L333.9,105.9 L335.7,104.9 L337.5,103.8 L339.1,102.8 L340.6,101.7 L342.1,100.6 L343.4,99.5 L344.6,98.4 L345.6,97.2 L346.6,96.1 L347.4,94.9 L348.2,93.8 L348.8,92.6 L349.3,91.4 L349.6,90.2 L349.9,89 L350,87.8 L350,86.6 L349.9,85.5 L349.6,84.3 L349.3,83.1 L348.8,81.9 L348.2,80.7 L347.4,79.5 L346.6,78.4 L345.6,77.2 L344.6,76.1 L343.4,75 L342.1,73.9 L340.6,72.8 L339.1,71.7 L337.5,70.7 L335.7,69.6 L333.9,68.6 L331.9,67.6 L329.9,66.7 L327.7,65.7"/>
      <path d="M230.1,55.2 L229.1,55.4 L228.1,55.7 L227.2,56 L226.3,56.2 L225.4,56.5 L224.6,56.8 L223.8,57.1 L223,57.4 L222.3,57.8 L221.6,58.1 L220.9,58.4 L220.2,58.8 L219.6,59.2 L219.1,59.5 L218.5,59.9 L218,60.3 L217.6,60.7 L217.2,61 L216.8,61.4 L216.5,61.8 L216.2,62.2 L215.9,62.7 L215.7,63.1 L215.5,63.5 L215.4,63.9 L215.3,64.3 L215.3,64.7 L215.3,65.1 L215.3,65.5 L215.4,66 L215.5,66.4 L215.7,66.8 L215.9,67.2 L216.2,67.6 L216.5,68 L216.8,68.4 L217.2,68.8 L217.6,69.2 L218,69.6 L218.5,69.9 L219.1,70.3 L219.6,70.7 L220.2,71 L220.9,71.4 L221.6,71.7 L222.3,72.1 L223,72.4 L223.8,72.7 L224.6,73 L225.4,73.3 L226.3,73.6 L227.2,73.9 L228.1,74.1 L229.1,74.4 L230.1,74.6 L231.1,74.9 L232.1,75.1 L233.2,75.3 L234.2,75.5 L235.3,75.7 L236.4,75.9 L237.6,76 L238.7,76.1 L239.8,76.3 L241,76.4 L242.2,76.5 L243.4,76.6 L244.6,76.6 L245.8,76.7 L247,76.7 L248.2,76.8 L249.4,76.8 L250.6,76.8 L251.8,76.8 L253,76.7 L254.2,76.7 L255.4,76.6 L256.6,76.6 L257.8,76.5 L259,76.4 L260.2,76.3 L261.3,76.1 L262.4,76 L263.6,75.9 L264.7,75.7 L265.8,75.5 L266.8,75.3 L267.9,75.1 L268.9,74.9 L269.9,74.6 L270.9,74.4 L271.9,74.1 L272.8,73.9 L273.7,73.6 L274.6,73.3 L275.4,73 L276.2,72.7 L277,72.4 L277.7,72.1 L278.4,71.7 L279.1,71.4 L279.8,71 L280.4,70.7 L280.9,70.3 L281.5,69.9 L282,69.6 L282.4,69.2 L282.8,68.8 L283.2,68.4 L283.5,68 L283.8,67.6 L284.1,67.2 L284.3,66.8 L284.5,66.4 L284.6,66 L284.7,65.5 L284.7,65.1 L284.7,64.7 L284.7,64.3 L284.6,63.9 L284.5,63.5 L284.3,63.1 L284.1,62.7 L283.8,62.2 L283.5,61.8 L283.2,61.4 L282.8,61 L282.4,60.7 L282,60.3 L281.5,59.9 L280.9,59.5 L280.4,59.2 L279.8,58.8 L279.1,58.4 L278.4,58.1 L277.7,57.8 L277,57.4 L276.2,57.1 L275.4,56.8 L274.6,56.5 L273.7,56.2 L272.8,56 L271.9,55.7 L270.9,55.4 L269.9,55.2 L268.9,55 L267.9,54.7 L266.8,54.5 L265.8,54.3 L264.7,54.2 L263.6,54 L262.4,53.8 L261.3,53.7 L260.2,53.6 L259,53.4 L257.8,53.3 L256.6,53.3 L255.4,53.2 L254.2,53.1 L253,53.1 L251.8,53.1 L250.6,53 L249.4,53 L248.2,53.1 L247,53.1 L245.8,53.1 L244.6,53.2 L243.4,53.3 L242.2,53.3 L241,53.4 L239.8,53.6 L238.7,53.7 L237.6,53.8 L236.4,54 L235.3,54.2 L234.2,54.3 L233.2,54.5 L232.1,54.7 L231.1,55 L230.1,55.2"/>
      <path d="M207,54.8 L210.8,54.2 L214.6,53.9 L218.4,53.9 L222.2,54.1 L226.1,54.5 L230.1,55.2 L234,56.1 L238,57.2 L242,58.6 L246,60.2 L250,62.1"/>
      <path d="M133.5,87.4 L138.4,84.1 L143.5,81 L148.6,78 L153.9,75.3 L159.4,72.8 L164.9,70.5 L170.5,68.4 L176.3,66.6 L182.1,64.9 L188,63.5 L194,62.3 L200,61.4 L206.1,60.7 L212.3,60.2 L218.5,59.9 L224.8,59.9 L231.1,60.1 L237.4,60.5 L243.7,61.2 L250,62.1"/>
      <path d="M55.1,294.9 L53.8,288.5 L52.7,282.1 L51.9,275.6 L51.2,269.1 L50.9,262.5 L50.8,256 L50.9,249.4 L51.2,242.8 L51.9,236.3 L52.7,229.7 L53.8,223.2 L55.1,216.8 L56.7,210.3 L58.5,203.9 L60.5,197.6 L62.8,191.3 L65.3,185.1 L68,179 L70.9,173 L74.1,167 L77.5,161.2 L81,155.5 L84.8,149.8 L88.8,144.4 L93,139 L97.4,133.8 L101.9,128.7 L106.7,123.7 L111.6,118.9 L116.7,114.3 L121.9,109.9 L127.3,105.6 L132.9,101.5 L138.6,97.5 L144.4,93.8 L150.4,90.2 L156.5,86.9 L162.7,83.7 L169,80.7 L175.4,78 L181.9,75.4 L188.4,73.1 L195.1,71 L201.8,69.1 L208.6,67.4 L215.4,66 L222.3,64.7 L229.2,63.7 L236.1,62.9 L243,62.4 L250,62.1"/>
      <path d="M158.4,427.7 L153.7,425.1 L149.1,422.3 L144.7,419.2 L140.4,415.9 L136.2,412.4 L132.2,408.8 L128.3,404.9 L124.5,400.9 L120.9,396.6 L117.5,392.2 L114.2,387.6 L111.1,382.9 L108.1,377.9 L105.3,372.9 L102.8,367.7 L100.3,362.3 L98.1,356.8 L96,351.1 L94.2,345.4 L92.5,339.5 L91,333.5 L89.7,327.5 L88.7,321.3 L87.8,315 L87.1,308.7 L86.6,302.2 L86.3,295.8 L86.2,289.2 L86.3,282.7 L86.6,276 L87.1,269.4 L87.8,262.7 L88.7,256 L89.7,249.3 L91,242.6 L92.5,235.9 L94.2,229.2 L96,222.6 L98.1,216 L100.3,209.4 L102.8,202.9 L105.3,196.4 L108.1,190 L111.1,183.7 L114.2,177.4 L117.5,171.3 L120.9,165.2 L124.5,159.3 L128.3,153.4 L132.2,147.7 L136.2,142.1 L140.4,136.6 L144.7,131.3 L149.1,126.1 L153.7,121 L158.4,116.1 L163.2,111.4 L168.1,106.9 L173.1,102.5 L178.2,98.3 L183.4,94.3 L188.6,90.4 L194,86.8 L199.4,83.4 L204.8,80.2 L210.4,77.1 L215.9,74.3 L221.6,71.7 L227.2,69.4 L232.9,67.2 L238.6,65.3 L244.3,63.5 L250,62.1"/>
      <path d="M218.3,447.5 L215.6,446.9 L212.9,446.1 L210.3,445 L207.7,443.8 L205.2,442.2 L202.7,440.5 L200.3,438.5 L198,436.3 L195.7,433.8 L193.4,431.1 L191.3,428.3 L189.2,425.1 L187.2,421.8 L185.3,418.3 L183.4,414.6 L181.6,410.6 L179.9,406.5 L178.3,402.2 L176.8,397.7 L175.4,393 L174,388.1 L172.8,383.1 L171.6,377.9 L170.6,372.5 L169.6,367 L168.8,361.4 L168,355.6 L167.3,349.7 L166.8,343.7 L166.3,337.5 L165.9,331.3 L165.7,325 L165.5,318.5 L165.5,312 L165.5,305.4 L165.7,298.7 L165.9,292 L166.3,285.2 L166.8,278.4 L167.3,271.6 L168,264.7 L168.8,257.8 L169.6,250.9 L170.6,244 L171.6,237.1 L172.8,230.2 L174,223.3 L175.4,216.5 L176.8,209.7 L178.3,203 L179.9,196.3 L181.6,189.7 L183.4,183.1 L185.3,176.7 L187.2,170.3 L189.2,164 L191.3,157.9 L193.4,151.8 L195.7,145.9 L198,140.1 L200.3,134.4 L202.7,128.9 L205.2,123.5 L207.7,118.2 L210.3,113.2 L212.9,108.3 L215.6,103.5 L218.3,99 L221.1,94.6 L223.9,90.4 L226.7,86.4 L229.6,82.6 L232.4,79.1 L235.3,75.7 L238.2,72.5 L241.2,69.6 L244.1,66.8 L247.1,64.3 L250,62.1"/>
      <path d="M256.5,449.8 L257.1,449.4 L257.6,448.8 L258.2,447.9 L258.7,446.8 L259.2,445.5 L259.7,443.9 L260.2,442.1 L260.7,440.1 L261.2,437.8 L261.7,435.3 L262.1,432.5 L262.5,429.6 L263,426.4 L263.4,423 L263.7,419.4 L264.1,415.6 L264.5,411.6 L264.8,407.4 L265.1,403 L265.4,398.4 L265.7,393.6 L265.9,388.7 L266.2,383.6 L266.4,378.3 L266.6,372.9 L266.8,367.3 L266.9,361.6 L267.1,355.7 L267.2,349.7 L267.3,343.6 L267.3,337.4 L267.4,331.1 L267.4,324.7 L267.4,318.1 L267.4,311.5 L267.4,304.9 L267.3,298.1 L267.3,291.3 L267.2,284.5 L267.1,277.6 L266.9,270.7 L266.8,263.7 L266.6,256.7 L266.4,249.8 L266.2,242.8 L265.9,235.8 L265.7,228.9 L265.4,221.9 L265.1,215 L264.8,208.2 L264.5,201.4 L264.1,194.7 L263.7,188 L263.4,181.4 L263,174.9 L262.5,168.5 L262.1,162.1 L261.7,155.9 L261.2,149.8 L260.7,143.9 L260.2,138 L259.7,132.3 L259.2,126.7 L258.7,121.3 L258.2,116.1 L257.6,111 L257.1,106 L256.5,101.3 L256,96.7 L255.4,92.3 L254.8,88.1 L254.2,84.1 L253.6,80.3 L253,76.7 L252.4,73.4 L251.8,70.2 L251.2,67.3 L250.6,64.6 L250,62.1"/>
      <path d="M296.7,444.5 L300.3,443.5 L303.9,442.2 L307.4,440.8 L310.8,439.1 L314.1,437.1 L317.4,435 L320.6,432.6 L323.7,430 L326.8,427.2 L329.7,424.1 L332.5,420.9 L335.3,417.4 L337.9,413.7 L340.4,409.9 L342.8,405.8 L345.1,401.5 L347.3,397.1 L349.3,392.5 L351.3,387.7 L353.1,382.7 L354.8,377.6 L356.4,372.4 L357.8,366.9 L359.1,361.4 L360.3,355.7 L361.3,349.8 L362.2,343.9 L363,337.8 L363.6,331.6 L364.1,325.4 L364.4,319 L364.6,312.6 L364.7,306 L364.6,299.4 L364.4,292.8 L364.1,286.1 L363.6,279.3 L363,272.5 L362.2,265.7 L361.3,258.9 L360.3,252.1 L359.1,245.2 L357.8,238.4 L356.4,231.6 L354.8,224.7 L353.1,218 L351.3,211.2 L349.3,204.6 L347.3,197.9 L345.1,191.4 L342.8,184.9 L340.4,178.4 L337.9,172.1 L335.3,165.9 L332.5,159.8 L329.7,153.7 L326.8,147.8 L323.7,142 L320.6,136.4 L317.4,130.9 L314.1,125.5 L310.8,120.3 L307.4,115.3 L303.9,110.4 L300.3,105.6 L296.7,101.1 L293,96.7 L289.2,92.6 L285.4,88.6 L281.6,84.8 L277.8,81.2 L273.9,77.8 L269.9,74.6 L266,71.7 L262,68.9 L258,66.4 L254,64.1 L250,62.1"/>
      <path d="M371.3,409 L375.9,405.3 L380.4,401.3 L384.7,397.2 L388.9,392.9 L392.8,388.5 L396.6,383.9 L400.3,379.1 L403.7,374.1 L407,369 L410,363.8 L412.9,358.4 L415.6,352.9 L418.1,347.2 L420.3,341.4 L422.4,335.6 L424.2,329.6 L425.9,323.5 L427.3,317.4 L428.5,311.1 L429.5,304.8 L430.3,298.4 L430.8,291.9 L431.2,285.5 L431.3,278.9 L431.2,272.3 L430.8,265.7 L430.3,259.1 L429.5,252.5 L428.5,245.8 L427.3,239.2 L425.9,232.6 L424.2,226 L422.4,219.4 L420.3,212.9 L418.1,206.4 L415.6,200 L412.9,193.6 L410,187.3 L407,181.1 L403.7,174.9 L400.3,168.9 L396.6,162.9 L392.8,157.1 L388.9,151.3 L384.7,145.7 L380.4,140.2 L375.9,134.9 L371.3,129.7 L366.5,124.6 L361.6,119.7 L356.5,114.9 L351.4,110.4 L346.1,105.9 L340.6,101.7 L335.1,97.6 L329.5,93.8 L323.7,90.1 L317.9,86.6 L312,83.3 L306,80.2 L300,77.3 L293.9,74.6 L287.7,72.2 L281.5,69.9 L275.2,67.9 L268.9,66.1 L262.6,64.5 L256.3,63.2 L250,62.1"/>
      <path d="M443.3,198.7 L441.5,192.5 L439.5,186.3 L437.2,180.1 L434.7,174.1 L432,168.1 L429.1,162.3 L425.9,156.5 L422.5,150.9 L419,145.4 L415.2,140 L411.2,134.7 L407,129.6 L402.6,124.6 L398.1,119.8 L393.3,115.2 L388.4,110.7 L383.3,106.3 L378.1,102.2 L372.7,98.2 L367.1,94.5 L361.4,90.9 L355.6,87.5 L349.6,84.3 L343.5,81.3 L337.3,78.5 L331,75.9 L324.6,73.5 L318.1,71.4 L311.6,69.4 L304.9,67.7 L298.2,66.2 L291.4,64.9 L284.6,63.9 L277.7,63.1 L270.8,62.5 L263.9,62.1 L257,62 L250,62.1"/>
      <path d="M336.8,69.8 L331.9,67.6 L326.9,65.6 L321.8,63.9 L316.6,62.4 L311.4,61 L306,60 L300.6,59.1 L295.2,58.5 L289.6,58.2 L284.1,58 L278.4,58.1 L272.8,58.4 L267.1,59 L261.4,59.8 L255.7,60.8 L250,62.1"/>
      <path d="M278.9,52.2 L276.1,52.1 L273.3,52.3 L270.4,52.6 L267.6,53.3 L264.7,54.2 L261.8,55.3 L258.8,56.6 L255.9,58.2 L252.9,60 L250,62.1"/>
      <path d="M244,50.1 L244.6,50.2 L245.2,50.6 L245.8,51.2 L246.4,52 L247,53.1 L247.6,54.4 L248.2,56 L248.8,57.8 L249.4,59.8 L250,62.1"/>
    </g>

    <!-- Land masses -->
    <g clip-path="url(#globe)" fill="#ffffff" fill-opacity="0.18" stroke="#ffffff" stroke-width="1" stroke-opacity="0.35" stroke-linejoin="round">
      <path d="M153.4,78.4 L155.9,77.6 L152.6,79.5 L149.2,81.6 L146,83.7 L142.4,86.6 L139.2,88.9 L135.9,91.9 L132.9,94.5 L129.9,97 L127,99.7 L124.2,102.4 L121.5,105.3 L118.8,108.2 L118.8,108.9 L116.2,111.1 L113.6,113.4 L111.1,115.6 L108.6,118 L106.2,120.3 L103.8,122.7 L101.4,125.1 L99.1,127.6 L96.8,130.1 L95.7,131.4 L94.6,133.1 L93.6,134.9 L92.5,136.2 L91.5,138 L90.5,139.8 L89.4,141.1 L88.5,142.9 L87.6,144.7 L86.7,146.6 L85.8,148.5 L85,150.3 L84.3,152.7 L83.7,155.1 L83,157 L82,158.5 L80.7,162.4 L79.2,165.8 L78.3,170.3 L77.3,174.3 L76.4,178.4 L75.6,182.5 L74.9,186.6 L73.9,190.3 L72.2,192.9 L74.7,200.2 L74.5,204.5 L72.8,207.2 L74,210.4 L74.7,213 L76.2,218.4 L76.7,222.7 L80.7,227.4 L81.9,230.1 L86.2,236.4 L89.5,240 L91,242.6 L92.7,245.2 L94.4,247.8 L95.8,252.1 L97.7,254.7 L98.5,256.9 L100.5,259.4 L101.4,261.6 L101.1,263.2 L102.1,265.4 L105.3,268.4 L110,271.7 L114.8,275.1 L115.9,277.2 L117.5,274.2 L115.1,271.7 L112.8,269.2 L111.7,267.1 L110.7,265 L109.7,262.9 L108.8,260.8 L106.9,256.6 L104,251.9 L103.5,248.1 L102,243.8 L99.5,239.1 L98.3,234.9 L98.1,231.1 L99,227.7 L100.9,224.9 L102.9,222 L102.4,219.9 L98,219.7 L95.6,220.5 L93.4,217.4 L91.3,214.4 L89.4,211.3 L88.4,208.7 L87.4,206.1 L87.9,202.4 L89.2,199.2 L91.3,196.5 L92.7,193.3 L94.8,192.6 L96.3,191.5 L97.8,190.4 L100.1,189.7 L101.6,188.6 L103.3,191.5 L105,192.3 L106.5,191.2 L106.7,193.2 L107.6,193.6 L109.9,190.9 L111.7,191.7 L112.6,192.1 L113.5,192.5 L114.4,192.9 L115.4,193.3 L116.4,193.7 L117.3,194.1 L117.6,196.1 L118.6,196.5 L119,198.5 L119.4,200.5 L119.8,202.6 L119.2,204.2 L119.7,206.2 L119.1,207.9 L118.5,209.5 L119.1,211.6 L119.6,213.6 L118,214.9 L119.1,215.3 L120.7,214 L122.4,212.7 L122.9,211.1 L123.4,209.4 L124,207.8 L124.6,206.1 L124,204.1 L124.6,202.5 L124.2,200.4 L124.8,198.8 L124.4,196.8 L125,195.2 L126.7,193.9 L127.3,192.3 L129,191.1 L130.7,189.8 L132.4,188.6 L134.1,187.3 L136.9,186.4 L138.6,185.1 L141.4,184.2 L143.2,182.9 L143.8,181.3 L144.5,179.7 L145.2,178.1 L145.9,176.5 L147.6,175.3 L149.4,174 L150.1,172.4 L151.8,171.2 L153.6,169.9 L154.3,168.4 L157.1,167.4 L159.2,167.9 L160.9,166.7 L162.6,165.4 L163.7,165.6 L165.4,164.3 L166.1,162.8 L166.8,161.3 L169.6,160.2 L172.3,159.2 L175.1,158.1 L176.8,156.8 L181.6,156.2 L184.3,155.1 L186,153.7 L184.5,151.9 L183.1,150 L185.8,148.9 L189.2,151.1 L192.9,153.3 L194.5,155.2 L190.7,156.2 L188.5,159 L181.9,161.1 L188,160.6 L192.4,158 L196.2,157 L201.1,156.1 L203.8,154.9 L207.5,153.7 L209,152.3 L207.3,150.6 L204.5,148.7 L203.9,147.1 L205.4,145.7 L204.9,144.1 L205.9,141.2 L205.9,138.2 L205,135.1 L203.3,131.9 L202.7,128.9 L202.2,125.9 L201.9,122.9 L201.6,120 L201.5,117.2 L201.5,114.3 L201.6,111.6 L201.2,108.7 L202.2,106.2 L202.7,103.6 L202.8,101 L204.1,98.6 L203.9,95.9 L203,93 L201.6,89.9 L200.1,86.6 L194,86.8 L188.6,87.2 L184.5,88.2 L180.4,89.1 L182.1,86.6 L183.1,83.3 L184.6,80.2 L186.1,76.5 L188.4,73.1 L184.9,71.9 L181.9,71.4 L179,71.1 L176.5,70.9 L170.7,72.1 L165.3,73.3 L159.7,75.2 L153.4,78.4Z"/>
      <path d="M234.4,121 L236.5,118.5 L238.6,115.9 L240.5,113.4 L242.4,111 L245.6,108.5 L247.2,106.1 L250,103.7 L251.3,101.4 L256.2,99 L258.3,96.6 L261.3,94.2 L261.8,92 L264.1,89.7 L264.3,87.6 L264.3,85.5 L264.1,83.5 L262.4,81.7 L260.8,79.9 L258.6,78.2 L256,76.6 L253.8,75 L252.4,73.4 L250.5,72.6 L248.7,71.8 L246.8,72.5 L243.7,73.2 L240.9,74.6 L238.1,76.1 L235.1,77.5 L232.4,79.1 L228.9,80.5 L225.8,82 L225.7,84.1 L228.5,86.7 L230,89.1 L231.9,91.5 L232.1,93.7 L232.3,96 L231.4,98.2 L230.6,100.5 L231.1,102.9 L231.7,105.4 L231,107.8 L230.3,110.3 L231.1,112.9 L232.1,115.6 L233.2,118.3 L234.4,121Z"/>
      <path d="M320.9,189.3 L320.5,187.6 L321.3,185.8 L322,183.9 L322.8,182.1 L323.5,180.3 L319.4,179.3 L320.1,177.5 L318.4,176.1 L315.2,169.9 L315.3,166.6 L315.9,164.8 L320.3,164 L325.3,164.7 L329,162.2 L329.4,160.5 L329.8,158.7 L328.4,155.7 L326.7,154.4 L323.3,151.9 L321.6,150.6 L318.9,149.6 L320.2,147.7 L319.2,147.9 L317.9,149.8 L316.3,148.5 L318,147.5 L321.5,145.8 L324.5,143.5 L326.5,141.4 L325.7,138.3 L327.5,136.2 L328.3,134.4 L328.2,131.2 L329.6,129.2 L330.2,127.4 L331.4,125.3 L329.7,124.3 L328,123.2 L327,121.9 L327.4,120.2 L327,118.7 L326.6,117.3 L328.4,118.3 L322.3,117.1 L317.6,115.5 L314.3,113.4 L312.3,111 L311,108.5 L310.8,105.6 L312,102.3 L311.8,99.4 L310.9,96.7 L309.4,94.4 L308.2,91.9 L307.2,89.3 L305.7,87 L306.4,83.4 L308.9,83.6 L310.9,84 L315,84.9 L317.3,87 L319,89.5 L321.1,91.8 L323.2,94.1 L325.2,96.5 L326.1,99.5 L327.8,102 L329.4,104.6 L330.9,107.3 L332.8,109.9 L333.5,112.9 L335.2,115.6 L336.9,118.3 L335.5,120.5 L335.9,122 L337.7,123.1 L339.4,124.1 L341.4,123.3 L342.8,120.9 L345.7,121.3 L345.1,118 L343.8,115 L341.4,112.7 L340.8,109.3 L339.2,106.5 L340.4,103.8 L340.6,101.7 L346.1,105.9 L352.9,109.1 L358.2,113.7 L363.3,118.4 L366.5,124.6 L373.2,128.2 L377.3,129.3 L381.4,130.3 L383.7,132.9 L384.3,137.1 L386.6,139.8 L386.8,144.1 L385.8,147.1 L385.7,149.3 L384.5,150.1 L384.3,152.4 L381.3,156.2 L379.4,159.2 L378.1,161.8 L379.8,162.9 L382.2,163.7 L385.3,163.9 L384,166.6 L386.3,167.3 L386.5,169.3 L389.6,169.5 L391.2,170.6 L388.9,171.9 L385.7,169.7 L383.2,167 L381.5,165.9 L381.4,164 L379,163.3 L377.3,162.2 L373.9,160 L369.8,158.1 L365.5,156.2 L363,155.4 L360.4,154.6 L358.7,153.5 L356.1,152.7 L355.9,149.2 L355.8,147.4 L355.6,145.7 L358,144.7 L356,141.9 L354,139.1 L351,140.4 L349.8,144.4 L347.3,147 L344.8,149.6 L343.8,151.6 L343.7,153.3 L347.1,157.5 L346,159.6 L342.1,160.7 L341.1,161 L341.5,164.3 L340.8,167.9 L337.9,172.1 L337.4,174 L339.2,175.3 L339.3,178.7 L337.6,180.8 L337,182.7 L335.2,184.8 L330.9,187.5 L328.4,187.9 L325.5,186.8 L323.5,188.8 L320.9,189.3Z"/>
      <path d="M348.1,155.4 L351.7,154.2 L353.5,155.4 L355.2,156.6 L357,157.7 L357.8,159.2 L360.4,160.1 L362.2,161.2 L364.8,162.1 L367.4,162.9 L369.1,164 L370.8,165.2 L371.6,166.7 L372.5,168.2 L372.4,170.1 L371.6,168.6 L372.5,166.3 L372.5,164.5 L373.2,162.2 L372.4,160.7 L370.7,159.6 L368.9,158.5 L367.2,157.4 L363.9,156.9 L361.3,156.1 L359.6,155 L357,154.2 L356.1,152.7 L354.3,151.5 L350.9,152.8 L348.1,155.4Z"/>
      <path d="M313.3,144.3 L314.6,142.5 L317.4,141.9 L318.6,140 L320.4,139.6 L321.4,137.8 L323.2,137.4 L323.2,135.8 L322.4,134.4 L319.9,133.4 L319,133.6 L317.4,132.5 L316.6,131.1 L315.7,131.3 L314.1,130.1 L313.3,128.8 L312,127.5 L310.1,126.5 L308.5,125.3 L306.1,124.3 L304.5,124.6 L302.9,123.5 L303,122 L302.2,120.7 L305.4,120.1 L306.2,121.4 L305.3,123 L303.6,124.8 L303.5,126.3 L305.1,127.5 L306.6,128.7 L307.4,130 L308.1,131.4 L309.7,132.6 L310.4,134 L312,135.2 L311.8,136.8 L311.6,138.4 L312.3,139.8 L312.9,141.2 L312.6,142.9 L313.3,144.3Z"/>
      <path d="M302.6,141.5 L303,139.9 L304.3,138.2 L306.5,136.3 L306.8,134.7 L307,133.1 L305.4,131.9 L303.9,130.7 L303,130.9 L301.8,132.5 L300.6,134.2 L300.3,135.8 L299.9,137.4 L301.5,138.6 L301.1,140.2 L302.6,141.5Z"/>
      <path d="M331.9,190.7 L336.8,189.7 L339.2,189.2 L341,187 L342.8,184.9 L347.4,183.7 L348.3,179.9 L352.7,178.7 L359.6,178.4 L362,175.9 L362.9,175.5 L363.9,175.2 L364.7,176.8 L364.4,178.7 L371.3,183.6 L373.7,186.4 L377.3,186.9 L381.8,186.9 L386.2,186.9 L390.4,186.8 L393.8,185.1 L396.9,183.4 L398.5,182.5 L400.6,179.2 L405.4,178 L407.8,176.1 L409.2,177.2 L411.4,179.8 L414.3,183.9 L415.6,185 L418.4,189.1 L422.2,194.4 L425.9,199.7 L429.7,204.5 L432.8,209.9 L436.1,214.7 L439.5,218.9 L441.7,224.3 L442,228.1 L444,229.1 L446.1,233.3 L447.3,243.1 L447.3,250.9 L446.3,259.8 L444.9,265.4 L444.4,269.2 L443.9,273.1 L443.4,276.9 L442.3,281.3 L441.7,287.8 L440.9,294.3 L440.3,300.1 L439.6,303.2 L438.7,309 L437,315.2 L432.9,324.1 L428.8,332.2 L426,338.7 L423.5,344.5 L419.2,351.6 L416.7,355.4 L413.1,361.3 L408.2,368.1 L405.4,371.6 L402.4,375 L399.5,378.4 L395,382.6 L392.7,384.6 L388.2,387.2 L384.1,388.4 L381.6,390.4 L383.3,388.8 L384,386.9 L386.3,384.1 L386,382.5 L386.5,380.4 L386.9,378.4 L387.2,376.2 L386.5,374.5 L386.7,372.3 L387.8,369.7 L387.9,367.4 L388.9,364.7 L388.9,362.4 L388.8,360.1 L388.6,357.7 L388.3,355.3 L386.8,353.3 L388.7,350 L390.6,346.6 L393.7,337.3 L396.5,333.4 L397.5,327.3 L397.2,321.5 L396.6,315.6 L395.7,312.9 L393.5,310.5 L392.5,307.7 L390.1,305.3 L388.9,302.5 L390.2,298.8 L390.2,295.5 L390.1,292.2 L390,288.9 L388.6,286 L383.4,285.9 L378.1,285.8 L375.4,286.6 L372.7,287.3 L368.4,286.7 L366.9,285.4 L364.1,286.1 L361.1,285.1 L358.5,290.8 L352.6,292 L349.6,292.6 L346.7,294.9 L343.5,293.8 L340.3,291 L333.9,288.6 L330.6,285.7 L324.1,284.9 L324,283.2 L320.7,282 L317.4,280.7 L315.5,277.4 L312.1,274.4 L311.8,270.9 L310,267.7 L309.8,265.9 L309.7,264.2 L311.2,262.3 L311,260.6 L312.4,258.6 L311.9,253.4 L308.1,246.9 L307.7,243.4 L308.8,239.7 L309.9,236.1 L312.5,232.3 L313,225.2 L315.3,221.4 L319,217.4 L323.9,213.1 L324.6,209.5 L327.8,205.4 L334.8,200.6 L336.4,196.8 L337.9,193 L331.9,190.7Z"/>
      <path d="M132.3,264.4 L130.7,265.7 L129.1,267.1 L128.9,268.8 L130.1,270.8 L131.3,272.9 L131.1,274.6 L129.6,275.9 L130.8,277.9 L129.3,279.3 L127.8,280.6 L127.7,282.3 L126.2,283.6 L124.7,284.9 L123.3,286.2 L121.8,289.2 L120.3,292.1 L117.6,294.6 L116.2,297.5 L114.9,300.4 L113.6,303.3 L111.2,305.7 L110,308.6 L108.9,311.4 L107.9,314.1 L109.4,317.7 L110.9,321.3 L112.4,324.9 L115.3,328.8 L118.2,332.7 L121.2,336.5 L119.1,338.8 L120.9,342.2 L122.7,345.6 L124.5,348.9 L126.4,352.2 L132.2,356.5 L136.9,360.4 L141.5,364.2 L142.2,366.9 L142.9,369.7 L142.3,372 L143.1,374.7 L143.9,377.3 L144.7,379.9 L145.6,382.4 L146.5,384.9 L146.2,387.1 L147.2,389.5 L147,391.6 L146.8,393.6 L147.9,395.9 L149.1,398.2 L150.2,400.4 L151.4,402.5 L150.4,404.1 L150.6,405.9 L151.9,407.9 L154.3,410.2 L154.6,411.8 L155,413.4 L156.5,415.3 L157,416.8 L157.5,418.2 L159.1,419.9 L159.8,421.3 L160.5,422.7 L162.2,424.2 L164.8,426 L167.4,427.7 L170.8,429.5 L175.9,431.7 L179.3,433.4 L182.6,435 L187.5,436.9 L190.2,437.1 L191.2,436.9 L188,435.4 L184.7,433.8 L181.4,432.2 L179,430.6 L180.5,429.9 L181.1,428.9 L180.8,427.6 L180.5,426.3 L179.3,424.8 L178.1,423.2 L179.1,421.9 L180.2,420.6 L179.1,418.9 L180.4,417.5 L184.3,416.5 L191,415.7 L192.8,414.1 L190.7,412 L188.6,409.8 L190.9,409.1 L196,408.7 L198.5,408 L199.6,407.1 L200.4,405.1 L202.7,403.2 L203.7,401.1 L206.2,399 L208.8,397 L209.9,394.7 L209.6,392.3 L210.8,390 L213.6,387.7 L218.2,386.7 L222.8,385.7 L224.3,384.5 L230.6,383.5 L233.7,381 L233.6,378.3 L235.2,375.7 L236.7,373 L236.6,367.4 L236.5,364.6 L238.2,361.7 L238.1,358.8 L241.5,355.9 L243.1,353 L244.8,350 L248.3,347 L250,343.9 L251.7,340.8 L250,337.7 L250,334.5 L251.7,331.3 L253.5,328.1 L253.5,324.9 L250,321.7 L246.5,318.4 L239.5,315 L232.6,311.5 L227.4,308 L222.2,304.5 L212,300.5 L198.5,296.1 L185.4,291.3 L174.2,286.4 L166.5,281.8 L163.5,279.6 L160.6,277.4 L156.2,274.9 L151.8,272.3 L146.1,269.4 L137.8,265.7 L132.3,264.4Z"/>
      <path d="M267.3,113 L268.6,111.7 L269.7,110.3 L272.3,108.8 L274.7,107.3 L275.6,106 L276.5,104.6 L275.1,104.8 L272.9,106.3 L270.4,107.7 L267.9,109.2 L266.7,110.5 L267.3,113Z"/>
      <path d="M110,221.2 L112.7,220.4 L114.9,221.2 L116.6,223.7 L118.4,226.1 L120.3,228.6 L122.2,231 L124.2,233.5 L126.7,234.2 L129.6,233.3 L131.2,231.9 L130.4,229.9 L128.3,227.5 L123.5,226 L120.5,223.2 L117.6,220.3 L115.4,219.5 L111.6,220 L110,221.2Z"/>
      <path d="M134.3,236.4 L136.5,238.8 L137.5,240.8 L141.5,241.8 L143.9,244.1 L145.3,244.5 L144.3,242.4 L141.9,240.1 L139.2,239.4 L138.2,237.4 L135.6,236.7 L134.3,236.4Z"/>
      <path d="M444.2,297.7 L442.6,303.6 L440.1,311.5 L437.3,319.4 L434.8,326 L432,332.5 L429.6,337.8 L436.1,323.2 L438.4,317.1 L440.8,309.8 L443,302.4 L444.2,297.7Z"/>
    </g>
  </g>

  <!-- Dotted orbit circle (outside mask so it's always visible) -->
  <circle cx="250" cy="250" r="232" stroke="rgba(255,255,255,0.12)" stroke-width="1" stroke-dasharray="5 7" fill="none"/>
</svg>