<?xml version="1.0" encoding="UTF-8"?>
<svg id="Layer_1" data-name="Layer 1" xmlns="http://www.w3.org/2000/svg" viewBox="0 0 326.04 213.95">
  <defs>
    <style>
      .cls-1 {
        fill: #010101;
      }

      .cls-2 {
        fill: #fff;
      }
    </style>
  </defs>
  <g>
    <rect class="cls-1" x="21.5" y="22.46" width="263.42" height="146.83" rx="10.45" ry="10.45"/>
    <path class="cls-2" d="M274.48,23.71c5.06,0,9.2,4.14,9.2,9.2v125.93c0,5.06-4.14,9.2-9.2,9.2H31.95c-5.06,0-9.2-4.14-9.2-9.2V32.91c0-5.06,4.14-9.2,9.2-9.2h242.53M274.48,21.21H31.95c-6.45,0-11.7,5.25-11.7,11.7v125.93c0,6.45,5.25,11.7,11.7,11.7h242.53c6.45,0,11.7-5.25,11.7-11.7V32.91c0-6.45-5.25-11.7-11.7-11.7h0Z"/>
  </g>
  <g>
    <path class="cls-2" d="M34.18,81.59c-.29-.3-.43-.66-.43-1.09v-47.08c0-.43.14-.79.43-1.09.29-.3.63-.45,1.04-.45h22.25c2.57,0,4.82.34,6.75,1.03s3.54,1.65,4.83,2.89c1.28,1.24,2.25,2.71,2.9,4.41.65,1.69.98,3.53.98,5.5,0,2.32-.43,4.28-1.28,5.88s-2.02,2.95-3.48,4.02c-.2.17-.3.38-.3.61s.12.42.37.55c2.12,1.03,3.79,2.47,5.01,4.31,1.22,1.84,1.83,4.12,1.83,6.82,0,2.06-.36,3.96-1.07,5.69s-1.74,3.24-3.09,4.5c-1.34,1.27-2.97,2.24-4.89,2.93-1.91.69-4.07,1.03-6.48,1.03h-24.32c-.41,0-.75-.15-1.04-.45ZM59.63,44.67c-.63-.73-1.6-1.09-2.9-1.09h-9.53c-.33,0-.61.13-.86.39-.24.26-.37.56-.37.9v5.4c0,.34.12.64.37.9s.53.39.86.39h8.86c1.67,0,2.84-.36,3.51-1.09.67-.73,1.01-1.69,1.01-2.89s-.32-2.17-.95-2.89ZM61.71,62.78c-.67-.79-1.84-1.19-3.51-1.19h-11c-.33,0-.61.13-.86.39s-.37.56-.37.9v6.24c0,.34.12.64.37.9.24.26.53.39.86.39h11c1.67,0,2.84-.42,3.51-1.25.67-.84,1.01-1.92,1.01-3.25s-.34-2.33-1.01-3.12Z"/>
    <path class="cls-2" d="M80.74,32.32c.29-.3.63-.45,1.04-.45h21.82c3.06,0,5.7.48,7.94,1.45s4.09,2.28,5.56,3.96c1.47,1.67,2.56,3.62,3.27,5.85s1.07,4.59,1.07,7.07c0,3.3-.67,6.4-2.02,9.29-1.34,2.89-3.44,5.16-6.29,6.79-.33.17-.52.42-.58.74-.06.32,0,.63.21.93l8.74,12.8c.2.3.23.59.09.87s-.38.42-.7.42h-11.67c-.94,0-1.71-.43-2.32-1.29l-7.46-11.13c-.2-.34-.49-.6-.86-.77-.37-.17-.73-.26-1.1-.26h-3.79c-.33,0-.61.13-.86.39s-.37.56-.37.9v10.61c0,.43-.14.79-.43,1.09s-.63.45-1.04.45h-9.23c-.41,0-.75-.15-1.04-.45s-.43-.66-.43-1.09v-47.08c0-.43.14-.79.43-1.09ZM108.12,45.51c-1.02-1.29-2.75-1.93-5.19-1.93h-9.23c-.33,0-.61.13-.86.39-.24.26-.37.56-.37.9v10.8c0,.34.12.64.37.9s.53.39.86.39h9.23c1.22,0,2.26-.18,3.12-.55s1.55-.85,2.08-1.45c.53-.6.92-1.31,1.16-2.12.24-.81.37-1.65.37-2.51,0-1.93-.51-3.54-1.53-4.82Z"/>
    <path class="cls-2" d="M143.01,32.26c.37-.26.77-.39,1.22-.39h9.17c.45,0,.86.13,1.22.39s.63.6.79,1.03l18.15,47.34c.12.34.09.66-.09.96s-.46.45-.82.45h-10.39c-.45,0-.84-.13-1.19-.39s-.6-.6-.76-1.03l-1.71-4.69c-.29-.81-.83-1.22-1.65-1.22h-16.32c-.81,0-1.36.41-1.65,1.22l-1.71,4.69c-.16.43-.42.77-.76,1.03-.35.26-.74.39-1.19.39h-10.39c-.37,0-.64-.15-.83-.45-.18-.3-.21-.62-.09-.96l18.21-47.34c.16-.43.43-.77.79-1.03ZM153.49,62.68c.14-.26.17-.54.09-.84l-4.34-12.28c-.08-.21-.22-.32-.43-.32s-.35.11-.43.32l-4.4,12.28c-.08.3-.05.58.09.84s.38.39.7.39h8.01c.33,0,.56-.13.7-.39Z"/>
    <path class="cls-2" d="M189.57,81.59c-.29.3-.63.45-1.04.45h-9.29c-.41,0-.75-.15-1.04-.45s-.43-.66-.43-1.09v-47.08c0-.43.14-.79.43-1.09.29-.3.63-.45,1.04-.45h7.46c1.02,0,1.81.41,2.38,1.22l19.62,25.79c.12.21.28.28.46.19.18-.09.27-.24.27-.45v-25.21c0-.43.14-.79.43-1.09.29-.3.63-.45,1.04-.45h9.23c.41,0,.75.15,1.04.45.29.3.43.66.43,1.09v47.08c0,.43-.14.79-.43,1.09s-.63.45-1.04.45h-7.39c-1.02,0-1.81-.41-2.38-1.22l-19.62-25.73c-.12-.21-.28-.28-.46-.19-.18.09-.27.24-.27.45v25.15c0,.43-.14.79-.43,1.09Z"/>
    <path class="cls-2" d="M229.34,81.59c-.29-.3-.43-.66-.43-1.09v-47.08c0-.43.14-.79.43-1.09.29-.3.63-.45,1.04-.45h20.66c3.71,0,6.98.66,9.81,1.99,2.83,1.33,5.18,3.14,7.06,5.43s3.29,4.96,4.25,8.01c.96,3.04,1.44,6.26,1.44,9.65s-.48,6.67-1.44,9.71c-.96,3.04-2.37,5.7-4.25,7.98s-4.23,4.07-7.06,5.4c-2.83,1.33-6.1,1.99-9.81,1.99h-20.66c-.41,0-.75-.15-1.04-.45ZM258.43,47.82c-1.87-2.32-4.64-3.47-8.31-3.47h-7.76c-.33,0-.61.13-.86.39s-.37.56-.37.9v22.7c0,.34.12.64.37.9s.53.39.86.39h7.76c1.83,0,3.44-.31,4.83-.93,1.38-.62,2.55-1.49,3.48-2.6.94-1.11,1.64-2.44,2.11-3.99.47-1.54.7-3.26.7-5.15,0-3.77-.94-6.82-2.81-9.13Z"/>
    <path class="cls-2" d="M41.75,90.27c.22-.15.46-.22.73-.22h5.47c.27,0,.51.07.73.22s.38.34.47.58l10.83,26.83c.07.19.05.38-.05.55-.11.17-.27.26-.49.26h-6.2c-.27,0-.5-.07-.71-.22s-.36-.34-.46-.58l-1.02-2.66c-.17-.46-.5-.69-.98-.69h-9.73c-.49,0-.81.23-.98.69l-1.02,2.66c-.1.24-.25.44-.46.58s-.44.22-.71.22h-6.2c-.22,0-.38-.08-.49-.26-.11-.17-.13-.35-.05-.55l10.86-26.83c.1-.24.26-.44.47-.58ZM48,107.51c.08-.15.1-.3.05-.47l-2.59-6.96c-.05-.12-.13-.18-.25-.18s-.21.06-.26.18l-2.62,6.96c-.05.17-.03.33.05.47.09.15.23.22.42.22h4.78c.19,0,.33-.07.42-.22Z"/>
    <path class="cls-2" d="M78.09,111.11c1.09-.6,1.99-1.39,2.7-2.39.32-.51.74-.64,1.28-.4l5.07,2.22c.19.07.33.22.4.46s.05.44-.07.64c-.66,1.12-1.44,2.13-2.35,3.04-.91.91-1.93,1.69-3.06,2.33-1.13.64-2.34,1.14-3.63,1.49-1.29.35-2.62.53-4.01.53-2.04,0-3.98-.39-5.81-1.17s-3.44-1.83-4.81-3.17c-1.37-1.34-2.46-2.9-3.26-4.68-.8-1.79-1.2-3.7-1.2-5.74s.4-3.96,1.2-5.74c.8-1.79,1.89-3.35,3.26-4.68,1.37-1.34,2.98-2.39,4.81-3.17,1.83-.78,3.77-1.17,5.81-1.17,1.38,0,2.72.18,4.01.53,1.29.35,2.48.85,3.59,1.49,1.11.64,2.12,1.42,3.04,2.31.92.9,1.71,1.9,2.37,2.99.12.19.15.41.07.64-.07.23-.21.39-.4.49l-5.03,2.22c-.24.12-.48.15-.71.09-.23-.06-.42-.21-.57-.46-.71-1-1.61-1.79-2.71-2.39-1.11-.6-2.33-.89-3.66-.89-1.07,0-2.07.2-3.01.6s-1.76.95-2.46,1.64c-.7.69-1.26,1.51-1.66,2.46-.4.95-.6,1.96-.6,3.03s.2,2.08.6,3.03c.4.95.95,1.77,1.66,2.46.71.69,1.53,1.24,2.46,1.64.94.4,1.94.6,3.01.6,1.36,0,2.59-.3,3.68-.89Z"/>
    <path class="cls-2" d="M88.95,96.87c-.17-.17-.25-.38-.25-.62v-5.32c0-.24.08-.45.25-.62.17-.17.38-.26.62-.26h23.26c.24,0,.45.08.62.26.17.17.25.38.25.62v5.32c0,.24-.08.45-.25.62-.17.17-.38.25-.62.25h-7.25c-.19,0-.36.07-.51.22-.15.15-.22.32-.22.51v19.76c0,.24-.08.45-.25.62-.17.17-.38.26-.62.26h-5.54c-.24,0-.45-.08-.62-.26-.17-.17-.26-.38-.26-.62v-19.76c0-.19-.07-.36-.22-.51-.14-.15-.32-.22-.51-.22h-7.25c-.24,0-.45-.08-.62-.25Z"/>
    <path class="cls-2" d="M116.57,90.31c.17-.17.38-.26.62-.26h5.54c.24,0,.45.08.62.26.17.17.25.38.25.62v26.68c0,.24-.08.45-.25.62-.17.17-.38.26-.62.26h-5.54c-.24,0-.45-.08-.62-.26-.17-.17-.26-.38-.26-.62v-26.68c0-.24.09-.45.26-.62Z"/>
    <path class="cls-2" d="M144.35,118.27c-.22.15-.46.22-.73.22h-5.47c-.27,0-.51-.07-.73-.22s-.38-.34-.47-.58l-10.83-26.83c-.07-.19-.05-.38.05-.55.11-.17.27-.26.49-.26h6.2c.27,0,.5.07.71.22.21.15.36.34.46.58l6.6,17.61c.05.12.13.18.26.18s.21-.06.25-.18l6.63-17.61c.1-.24.25-.44.46-.58.21-.15.44-.22.71-.22h6.2c.22,0,.38.08.49.26.11.17.13.35.05.55l-10.86,26.83c-.1.24-.26.44-.47.58Z"/>
    <path class="cls-2" d="M162.61,90.27c.22-.15.46-.22.73-.22h5.47c.27,0,.51.07.73.22s.38.34.47.58l10.83,26.83c.07.19.05.38-.05.55-.11.17-.27.26-.49.26h-6.2c-.27,0-.5-.07-.71-.22-.21-.15-.36-.34-.46-.58l-1.02-2.66c-.17-.46-.5-.69-.98-.69h-9.73c-.49,0-.81.23-.98.69l-1.02,2.66c-.1.24-.25.44-.46.58-.21.15-.44.22-.71.22h-6.2c-.22,0-.38-.08-.49-.26-.11-.17-.13-.35-.05-.55l10.86-26.83c.1-.24.26-.44.47-.58ZM168.86,107.51c.08-.15.1-.3.05-.47l-2.59-6.96c-.05-.12-.13-.18-.26-.18s-.21.06-.25.18l-2.62,6.96c-.05.17-.03.33.05.47.08.15.22.22.42.22h4.78c.2,0,.33-.07.42-.22Z"/>
    <path class="cls-2" d="M177.48,96.87c-.17-.17-.25-.38-.25-.62v-5.32c0-.24.08-.45.25-.62.17-.17.38-.26.62-.26h23.26c.24,0,.45.08.62.26.17.17.26.38.26.62v5.32c0,.24-.08.45-.26.62-.17.17-.38.25-.62.25h-7.25c-.19,0-.37.07-.51.22-.15.15-.22.32-.22.51v19.76c0,.24-.09.45-.26.62-.17.17-.38.26-.62.26h-5.54c-.24,0-.45-.08-.62-.26-.17-.17-.25-.38-.25-.62v-19.76c0-.19-.07-.36-.22-.51-.15-.15-.32-.22-.51-.22h-7.25c-.24,0-.45-.08-.62-.25Z"/>
    <path class="cls-2" d="M205.11,90.31c.17-.17.38-.26.62-.26h5.54c.24,0,.45.08.62.26.17.17.26.38.26.62v26.68c0,.24-.09.45-.26.62-.17.17-.38.26-.62.26h-5.54c-.24,0-.45-.08-.62-.26-.17-.17-.25-.38-.25-.62v-26.68c0-.24.08-.45.25-.62Z"/>
    <path class="cls-2" d="M224.44,117.87c-1.84-.78-3.44-1.83-4.81-3.17-1.37-1.34-2.46-2.9-3.26-4.68-.8-1.79-1.2-3.7-1.2-5.74s.4-3.96,1.2-5.74c.8-1.79,1.89-3.35,3.26-4.68,1.37-1.34,2.98-2.39,4.81-3.17,1.83-.78,3.77-1.17,5.81-1.17s4.02.39,5.85,1.17c1.84.78,3.44,1.83,4.81,3.17,1.37,1.34,2.46,2.9,3.24,4.68.79,1.79,1.18,3.7,1.18,5.74s-.39,3.96-1.18,5.74c-.79,1.79-1.87,3.35-3.24,4.68-1.37,1.34-2.98,2.39-4.81,3.17-1.83.78-3.79,1.17-5.85,1.17s-3.98-.39-5.81-1.17ZM227.25,97.14c-.94.4-1.76.95-2.46,1.64-.71.69-1.26,1.51-1.66,2.46-.4.95-.6,1.96-.6,3.03s.2,2.08.6,3.03c.4.95.95,1.77,1.66,2.46.71.69,1.53,1.24,2.46,1.64.94.4,1.94.6,3.01.6s2.11-.2,3.04-.6c.94-.4,1.75-.95,2.44-1.64.69-.69,1.24-1.51,1.64-2.46.4-.95.6-1.96.6-3.03s-.2-2.08-.6-3.03-.95-1.77-1.64-2.46c-.69-.69-1.51-1.24-2.44-1.64s-1.95-.6-3.04-.6-2.07.2-3.01.6Z"/>
    <path class="cls-2" d="M255.41,118.23c-.17.17-.38.26-.62.26h-5.54c-.24,0-.45-.08-.62-.26-.17-.17-.25-.38-.25-.62v-26.68c0-.24.08-.45.25-.62.17-.17.38-.26.62-.26h4.45c.61,0,1.08.23,1.42.69l11.7,14.62c.07.12.16.16.27.11.11-.05.16-.13.16-.26v-14.29c0-.24.08-.45.25-.62.17-.17.38-.26.62-.26h5.5c.24,0,.45.08.62.26.17.17.26.38.26.62v26.68c0,.24-.09.45-.26.62-.17.17-.38.26-.62.26h-4.41c-.61,0-1.08-.23-1.42-.69l-11.7-14.58c-.07-.12-.16-.16-.27-.11-.11.05-.16.13-.16.26v14.25c0,.24-.08.45-.25.62Z"/>
    <path class="cls-2" d="M32.84,158.22c-.19-.19-.29-.42-.29-.7v-30.08c0-.27.1-.51.29-.7.19-.19.42-.29.7-.29h21.82c.27,0,.51.1.7.29.19.19.29.42.29.7v6c0,.27-.1.51-.29.7-.19.19-.42.29-.7.29h-13.81c-.22,0-.41.08-.58.25-.16.16-.25.36-.25.58v4.03c0,.22.08.41.25.58.17.16.36.25.58.25h11.3c.27,0,.51.1.7.29s.29.42.29.7v5.47c0,.27-.1.51-.29.7s-.42.29-.7.29h-11.3c-.22,0-.41.08-.58.25-.16.16-.25.36-.25.58v9.16c0,.27-.1.51-.29.7s-.42.29-.7.29h-6.21c-.27,0-.51-.1-.7-.29Z"/>
    <path class="cls-2" d="M68.81,157.81c-2.07-.88-3.88-2.07-5.42-3.57-1.55-1.51-2.77-3.27-3.68-5.28-.9-2.01-1.36-4.17-1.36-6.47s.45-4.46,1.36-6.47c.9-2.01,2.13-3.77,3.68-5.28,1.55-1.51,3.36-2.7,5.42-3.57,2.07-.88,4.25-1.31,6.55-1.31s4.53.44,6.59,1.31c2.07.88,3.88,2.07,5.42,3.57,1.55,1.51,2.77,3.27,3.66,5.28.89,2.01,1.34,4.17,1.34,6.47s-.45,4.46-1.34,6.47c-.89,2.01-2.11,3.77-3.66,5.28-1.55,1.51-3.36,2.7-5.42,3.57-2.07.88-4.27,1.31-6.59,1.31s-4.49-.44-6.55-1.31ZM71.98,134.45c-1.05.45-1.98,1.07-2.77,1.85s-1.42,1.71-1.87,2.77c-.45,1.07-.68,2.21-.68,3.41s.23,2.34.68,3.41c.45,1.07,1.07,1.99,1.87,2.77s1.72,1.4,2.77,1.85c1.05.45,2.19.68,3.39.68s2.38-.23,3.43-.68c1.05-.45,1.97-1.07,2.75-1.85.78-.78,1.4-1.71,1.85-2.77s.68-2.21.68-3.41-.23-2.34-.68-3.41-1.07-1.99-1.85-2.77c-.78-.78-1.7-1.4-2.75-1.85-1.05-.45-2.2-.68-3.43-.68s-2.34.23-3.39.68Z"/>
    <path class="cls-2" d="M96.08,126.75c.19-.19.42-.29.7-.29h14.67c2.05,0,3.83.31,5.34.92,1.51.62,2.75,1.46,3.74,2.53.99,1.07,1.72,2.31,2.2,3.74.48,1.42.72,2.93.72,4.52,0,2.11-.45,4.09-1.36,5.94s-2.31,3.29-4.23,4.34c-.22.11-.35.27-.39.47-.04.21,0,.4.14.6l5.88,8.18c.14.19.16.38.06.55s-.25.27-.47.27h-7.85c-.63,0-1.15-.27-1.56-.82l-5.01-7.11c-.14-.22-.33-.38-.58-.49s-.49-.16-.74-.16h-2.55c-.22,0-.41.08-.58.25-.16.16-.25.36-.25.58v6.78c0,.27-.1.51-.29.7-.19.19-.42.29-.7.29h-6.21c-.27,0-.51-.1-.7-.29s-.29-.42-.29-.7v-30.08c0-.27.1-.51.29-.7ZM114.49,135.17c-.68-.82-1.85-1.23-3.49-1.23h-6.2c-.22,0-.41.08-.58.25-.16.16-.25.36-.25.58v6.9c0,.22.08.41.25.58s.36.25.58.25h6.2c.82,0,1.52-.12,2.1-.35.58-.23,1.04-.54,1.4-.92.36-.38.62-.84.78-1.36.17-.52.25-1.05.25-1.6,0-1.23-.34-2.26-1.03-3.08Z"/>
    <path class="cls-2" d="M153.69,146.35c-.19-.19-.29-.42-.29-.7v-4.85c0-.27.1-.51.29-.7s.42-.29.7-.29h13.48c.27,0,.51.1.7.29.19.19.29.42.29.7v16.72c0,.27-.1.51-.29.7-.19.19-.43.29-.7.29h-4.48c-.27,0-.51-.1-.7-.29s-.29-.42-.29-.7v-1.19c0-.14-.06-.23-.19-.27s-.23,0-.31.1c-.85.96-1.96,1.69-3.33,2.2-1.37.51-2.79.76-4.27.76-2.33,0-4.52-.44-6.57-1.31-2.05-.88-3.86-2.07-5.4-3.57-1.55-1.51-2.77-3.27-3.68-5.28-.9-2.01-1.36-4.17-1.36-6.47s.45-4.46,1.36-6.47c.9-2.01,2.13-3.77,3.68-5.28,1.55-1.51,3.35-2.7,5.4-3.57,2.05-.88,4.25-1.31,6.57-1.31,2.58,0,4.99.53,7.23,1.6s4.15,2.51,5.71,4.31c.17.22.23.46.21.72s-.15.46-.37.6l-5.05,3.41c-.55.36-1.05.3-1.52-.16-.79-.79-1.72-1.42-2.77-1.87-1.05-.45-2.2-.68-3.43-.68s-2.34.23-3.41.68c-1.07.45-1.99,1.07-2.77,1.85-.78.78-1.4,1.71-1.85,2.77-.45,1.07-.68,2.21-.68,3.41s.23,2.34.68,3.41c.45,1.07,1.07,1.99,1.85,2.77.78.78,1.71,1.4,2.77,1.85,1.07.45,2.21.68,3.41.68,1.37,0,2.62-.3,3.76-.9,1.14-.6,2.09-1.41,2.86-2.42.17-.22.25-.45.25-.7v-.12c0-.27-.14-.41-.41-.41h-6.37c-.27,0-.51-.1-.7-.29Z"/>
    <path class="cls-2" d="M181.94,157.81c-2.07-.88-3.88-2.07-5.42-3.57-1.55-1.51-2.77-3.27-3.68-5.28-.9-2.01-1.36-4.17-1.36-6.47s.45-4.46,1.36-6.47c.9-2.01,2.13-3.77,3.68-5.28,1.55-1.51,3.36-2.7,5.42-3.57,2.07-.88,4.25-1.31,6.55-1.31s4.53.44,6.6,1.31c2.07.88,3.88,2.07,5.42,3.57,1.55,1.51,2.77,3.27,3.66,5.28.89,2.01,1.33,4.17,1.33,6.47s-.45,4.46-1.33,6.47c-.89,2.01-2.11,3.77-3.66,5.28-1.55,1.51-3.36,2.7-5.42,3.57-2.07.88-4.27,1.31-6.6,1.31s-4.49-.44-6.55-1.31ZM185.11,134.45c-1.05.45-1.98,1.07-2.77,1.85-.79.78-1.42,1.71-1.87,2.77-.45,1.07-.68,2.21-.68,3.41s.23,2.34.68,3.41c.45,1.07,1.08,1.99,1.87,2.77.79.78,1.72,1.4,2.77,1.85,1.05.45,2.19.68,3.39.68s2.38-.23,3.43-.68c1.05-.45,1.97-1.07,2.75-1.85s1.4-1.71,1.85-2.77c.45-1.07.68-2.21.68-3.41s-.22-2.34-.68-3.41c-.45-1.07-1.07-1.99-1.85-2.77s-1.7-1.4-2.75-1.85c-1.05-.45-2.2-.68-3.43-.68s-2.34.23-3.39.68Z"/>
    <path class="cls-2" d="M217.86,157.81c-2.07-.88-3.88-2.07-5.42-3.57-1.55-1.51-2.77-3.27-3.68-5.28-.9-2.01-1.36-4.17-1.36-6.47s.45-4.46,1.36-6.47c.9-2.01,2.13-3.77,3.68-5.28,1.55-1.51,3.36-2.7,5.42-3.57,2.07-.88,4.25-1.31,6.55-1.31s4.53.44,6.59,1.31c2.07.88,3.88,2.07,5.42,3.57,1.55,1.51,2.77,3.27,3.66,5.28.89,2.01,1.34,4.17,1.34,6.47s-.45,4.46-1.34,6.47c-.89,2.01-2.11,3.77-3.66,5.28-1.55,1.51-3.36,2.7-5.42,3.57-2.07.88-4.27,1.31-6.59,1.31s-4.49-.44-6.55-1.31ZM221.02,134.45c-1.05.45-1.98,1.07-2.77,1.85s-1.42,1.71-1.87,2.77c-.45,1.07-.68,2.21-.68,3.41s.23,2.34.68,3.41c.45,1.07,1.07,1.99,1.87,2.77s1.72,1.4,2.77,1.85c1.05.45,2.19.68,3.39.68s2.38-.23,3.43-.68c1.05-.45,1.97-1.07,2.75-1.85.78-.78,1.4-1.71,1.85-2.77s.68-2.21.68-3.41-.23-2.34-.68-3.41-1.07-1.99-1.85-2.77c-.78-.78-1.7-1.4-2.75-1.85-1.05-.45-2.2-.68-3.43-.68s-2.34.23-3.39.68Z"/>
    <path class="cls-2" d="M245.12,158.22c-.19-.19-.29-.42-.29-.7v-30.08c0-.27.1-.51.29-.7.19-.19.42-.29.7-.29h13.89c2.49,0,4.69.42,6.6,1.27,1.9.85,3.49,2.01,4.75,3.47,1.26,1.47,2.21,3.17,2.86,5.12.64,1.94.97,4,.97,6.16s-.32,4.26-.97,6.21c-.64,1.94-1.6,3.64-2.86,5.1-1.26,1.45-2.84,2.6-4.75,3.45-1.9.85-4.1,1.27-6.6,1.27h-13.89c-.27,0-.51-.1-.7-.29ZM264.68,136.65c-1.26-1.48-3.12-2.22-5.59-2.22h-5.22c-.22,0-.41.08-.58.25-.16.16-.25.36-.25.58v14.51c0,.22.08.41.25.58s.36.25.58.25h5.22c1.23,0,2.31-.2,3.25-.6.93-.4,1.71-.95,2.34-1.66.63-.71,1.1-1.56,1.42-2.55.32-.99.47-2.08.47-3.29,0-2.41-.63-4.36-1.89-5.83Z"/>
  </g>
</svg>