<?xml version="1.0" encoding="UTF-8"?>
<svg id="Layer_1" data-name="Layer 1" xmlns="http://www.w3.org/2000/svg" viewBox="0 0 326.04 213.95">
  <defs>
    <style>
      .cls-1 {
        fill: #010101;
      }

      .cls-2 {
        fill: #fff;
      }
    </style>
  </defs>
  <g>
    <rect class="cls-1" x="26.34" y="22.46" width="263.42" height="146.83" rx="10.45" ry="10.45"/>
    <path class="cls-2" d="M279.32,23.71c5.06,0,9.2,4.14,9.2,9.2v125.93c0,5.06-4.14,9.2-9.2,9.2H36.79c-5.06,0-9.2-4.14-9.2-9.2V32.91c0-5.06,4.14-9.2,9.2-9.2h242.53M279.32,21.21H36.79c-6.45,0-11.7,5.25-11.7,11.7v125.93c0,6.45,5.25,11.7,11.7,11.7h242.53c6.45,0,11.7-5.25,11.7-11.7V32.91c0-6.45-5.25-11.7-11.7-11.7h0Z"/>
  </g>
  <g>
    <g>
      <path class="cls-2" d="M43.3,37.07c.18-.18.41-.27.67-.27h5.95c.26,0,.48.09.67.27s.27.4.27.67v28.67c0,.26-.09.48-.27.67-.18.18-.41.27-.67.27h-5.95c-.26,0-.48-.09-.67-.27-.18-.18-.27-.4-.27-.67v-28.67c0-.26.09-.48.27-.67Z"/>
      <path class="cls-2" d="M63.12,67.08c-.18.18-.41.27-.67.27h-5.95c-.26,0-.48-.09-.67-.27-.18-.18-.27-.4-.27-.67v-28.67c0-.26.09-.48.27-.67.18-.18.41-.27.67-.27h4.78c.65,0,1.16.25,1.53.74l12.57,15.71c.08.13.18.17.29.12.12-.05.18-.14.18-.27v-15.35c0-.26.09-.48.27-.67s.4-.27.67-.27h5.91c.26,0,.48.09.67.27s.27.4.27.67v28.67c0,.26-.09.48-.27.67-.18.18-.4.27-.67.27h-4.74c-.65,0-1.16-.25-1.53-.74l-12.57-15.67c-.08-.13-.18-.17-.29-.12s-.18.14-.18.27v15.32c0,.26-.09.48-.27.67Z"/>
      <path class="cls-2" d="M86.73,44.12c-.18-.18-.27-.4-.27-.67v-5.72c0-.26.09-.48.27-.67s.41-.27.67-.27h24.99c.26,0,.48.09.67.27.18.18.27.4.27.67v5.72c0,.26-.09.48-.27.67-.18.18-.41.27-.67.27h-7.79c-.21,0-.39.08-.55.23-.16.16-.23.34-.23.55v21.23c0,.26-.09.48-.27.67-.18.18-.4.27-.67.27h-5.95c-.26,0-.48-.09-.67-.27-.18-.18-.27-.4-.27-.67v-21.23c0-.21-.08-.39-.24-.55-.16-.16-.34-.23-.55-.23h-7.79c-.26,0-.48-.09-.67-.27Z"/>
      <path class="cls-2" d="M116.42,67.08c-.18-.18-.27-.4-.27-.67v-28.67c0-.26.09-.48.27-.67.18-.18.41-.27.67-.27h21.58c.26,0,.48.09.67.27s.27.4.27.67v5.72c0,.26-.09.48-.27.67-.18.18-.4.27-.67.27h-13.9c-.21,0-.39.08-.55.23-.16.16-.24.34-.24.55v2.82c0,.21.08.39.24.55.16.16.34.23.55.23h11.12c.26,0,.48.09.67.27.18.18.27.4.27.67v5.21c0,.26-.09.48-.27.67-.18.18-.41.27-.67.27h-11.12c-.21,0-.39.08-.55.23-.16.16-.24.34-.24.55v2.35c0,.21.08.39.24.55.16.16.34.24.55.24h13.9c.26,0,.48.09.67.27.18.18.27.4.27.67v5.68c0,.26-.09.48-.27.67-.18.18-.4.27-.67.27h-21.58c-.26,0-.48-.09-.67-.27Z"/>
      <path class="cls-2" d="M150.97,67.08c-.18.18-.41.27-.67.27h-5.95c-.26,0-.48-.09-.67-.27-.18-.18-.27-.4-.27-.67v-28.67c0-.26.09-.48.27-.67s.41-.27.67-.27h4.78c.65,0,1.16.25,1.53.74l12.57,15.71c.08.13.18.17.29.12.12-.05.18-.14.18-.27v-15.35c0-.26.09-.48.27-.67s.4-.27.67-.27h5.91c.26,0,.48.09.67.27s.27.4.27.67v28.67c0,.26-.09.48-.27.67-.18.18-.4.27-.67.27h-4.74c-.65,0-1.16-.25-1.53-.74l-12.57-15.67c-.08-.13-.18-.17-.29-.12s-.18.14-.18.27v15.32c0,.26-.09.48-.27.67Z"/>
      <path class="cls-2" d="M174.59,44.12c-.18-.18-.27-.4-.27-.67v-5.72c0-.26.09-.48.27-.67s.41-.27.67-.27h24.99c.26,0,.48.09.67.27.18.18.27.4.27.67v5.72c0,.26-.09.48-.27.67-.18.18-.41.27-.67.27h-7.79c-.21,0-.39.08-.55.23-.16.16-.23.34-.23.55v21.23c0,.26-.09.48-.27.67-.18.18-.4.27-.67.27h-5.95c-.26,0-.48-.09-.67-.27-.18-.18-.27-.4-.27-.67v-21.23c0-.21-.08-.39-.24-.55-.16-.16-.34-.23-.55-.23h-7.79c-.26,0-.48-.09-.67-.27Z"/>
      <path class="cls-2" d="M204.27,37.07c.18-.18.41-.27.67-.27h5.95c.26,0,.48.09.67.27.18.18.27.4.27.67v28.67c0,.26-.09.48-.27.67-.18.18-.41.27-.67.27h-5.95c-.26,0-.48-.09-.67-.27-.18-.18-.27-.4-.27-.67v-28.67c0-.26.09-.48.27-.67Z"/>
      <path class="cls-2" d="M225.05,66.68c-1.97-.84-3.69-1.97-5.17-3.41-1.48-1.44-2.64-3.11-3.51-5.03-.86-1.92-1.29-3.98-1.29-6.17s.43-4.25,1.29-6.17c.86-1.92,2.03-3.6,3.51-5.03s3.2-2.57,5.17-3.41c1.97-.84,4.05-1.25,6.25-1.25s4.32.42,6.29,1.25c1.97.84,3.7,1.97,5.17,3.41s2.64,3.11,3.49,5.03c.85,1.92,1.27,3.98,1.27,6.17s-.42,4.25-1.27,6.17c-.85,1.92-2.01,3.6-3.49,5.03-1.48,1.44-3.2,2.57-5.17,3.41-1.97.84-4.07,1.25-6.29,1.25s-4.28-.42-6.25-1.25ZM228.07,44.42c-1.01.43-1.89,1.02-2.64,1.76-.76.74-1.35,1.63-1.78,2.64-.43,1.02-.65,2.1-.65,3.25s.21,2.23.65,3.25c.43,1.02,1.03,1.9,1.78,2.64.76.74,1.64,1.33,2.64,1.76,1,.43,2.08.65,3.23.65s2.26-.22,3.27-.65c1-.43,1.88-1.02,2.62-1.76.74-.74,1.33-1.63,1.76-2.64s.65-2.1.65-3.25-.22-2.23-.65-3.25c-.43-1.02-1.02-1.9-1.76-2.64s-1.62-1.33-2.62-1.76c-1.01-.43-2.1-.65-3.27-.65s-2.23.22-3.23.65Z"/>
      <path class="cls-2" d="M258.33,67.08c-.18.18-.41.27-.67.27h-5.95c-.26,0-.48-.09-.67-.27-.18-.18-.27-.4-.27-.67v-28.67c0-.26.09-.48.27-.67s.41-.27.67-.27h4.78c.65,0,1.16.25,1.53.74l12.57,15.71c.08.13.18.17.29.12.12-.05.18-.14.18-.27v-15.35c0-.26.09-.48.27-.67s.4-.27.67-.27h5.91c.26,0,.48.09.67.27s.27.4.27.67v28.67c0,.26-.09.48-.27.67-.18.18-.4.27-.67.27h-4.74c-.65,0-1.16-.25-1.53-.74l-12.57-15.67c-.08-.13-.18-.17-.29-.12s-.18.14-.18.27v15.32c0,.26-.09.48-.27.67Z"/>
    </g>
    <g>
      <path class="cls-2" d="M61.34,76.03c.33-.22.7-.33,1.1-.33h8.23c.4,0,.77.11,1.1.33s.57.51.71.88l16.29,40.37c.11.29.08.57-.08.82-.17.26-.41.38-.74.38h-9.33c-.4,0-.76-.11-1.07-.33-.31-.22-.54-.51-.69-.88l-1.54-4c-.26-.69-.75-1.04-1.48-1.04h-14.65c-.73,0-1.22.35-1.48,1.04l-1.54,4c-.15.37-.38.66-.69.88-.31.22-.67.33-1.07.33h-9.33c-.33,0-.58-.13-.74-.38-.17-.26-.19-.53-.08-.82l16.35-40.37c.15-.37.38-.66.71-.88ZM70.75,101.98c.13-.22.16-.46.08-.71l-3.89-10.48c-.07-.18-.2-.27-.38-.27s-.31.09-.38.27l-3.95,10.48c-.07.26-.05.49.08.71.13.22.34.33.63.33h7.19c.29,0,.5-.11.63-.33Z"/>
      <path class="cls-2" d="M116.03,107.38c1.65-.9,3-2.09,4.06-3.59.48-.77,1.12-.97,1.92-.6l7.62,3.35c.29.11.49.34.6.69.11.35.07.67-.11.96-.99,1.68-2.17,3.21-3.54,4.58-1.37,1.37-2.91,2.54-4.61,3.51s-3.52,1.72-5.46,2.25-3.95.8-6.03.8c-3.07,0-5.99-.58-8.75-1.76-2.76-1.17-5.17-2.76-7.24-4.77-2.07-2.01-3.7-4.36-4.91-7.05-1.21-2.69-1.81-5.57-1.81-8.64s.6-5.95,1.81-8.64c1.21-2.69,2.84-5.04,4.91-7.05,2.07-2.01,4.48-3.6,7.24-4.77,2.76-1.17,5.68-1.76,8.75-1.76,2.08,0,4.1.27,6.03.8s3.74,1.28,5.4,2.25,3.19,2.13,4.58,3.48c1.39,1.35,2.58,2.85,3.57,4.5.18.29.22.61.11.96-.11.35-.31.59-.6.74l-7.57,3.35c-.37.18-.72.23-1.07.14-.35-.09-.63-.32-.85-.69-1.06-1.5-2.42-2.7-4.09-3.59-1.66-.9-3.5-1.34-5.51-1.34-1.61,0-3.12.3-4.53.91-1.41.6-2.64,1.43-3.7,2.47-1.06,1.04-1.89,2.28-2.5,3.7-.6,1.43-.91,2.94-.91,4.55s.3,3.13.91,4.55c.6,1.43,1.43,2.66,2.5,3.7,1.06,1.04,2.29,1.86,3.7,2.47s2.92.91,4.53.91c2.05,0,3.89-.45,5.54-1.34Z"/>
      <path class="cls-2" d="M132.37,85.96c-.26-.26-.38-.57-.38-.93v-8.01c0-.37.13-.68.38-.93.26-.26.57-.38.93-.38h35c.37,0,.68.13.93.38.26.26.38.57.38.93v8.01c0,.37-.13.68-.38.93s-.57.38-.93.38h-10.92c-.29,0-.55.11-.77.33-.22.22-.33.48-.33.77v29.73c0,.37-.13.68-.38.93-.26.26-.57.38-.93.38h-8.34c-.37,0-.68-.13-.93-.38-.26-.26-.38-.57-.38-.93v-29.73c0-.29-.11-.55-.33-.77-.22-.22-.48-.33-.77-.33h-10.92c-.37,0-.68-.13-.93-.38Z"/>
      <path class="cls-2" d="M173.95,76.09c.26-.26.57-.38.93-.38h8.34c.37,0,.68.13.93.38.26.26.38.57.38.93v40.15c0,.37-.13.68-.38.93-.26.26-.57.38-.93.38h-8.34c-.37,0-.68-.13-.93-.38-.26-.26-.38-.57-.38-.93v-40.15c0-.37.13-.68.38-.93Z"/>
      <path class="cls-2" d="M203.05,117.56c-2.76-1.17-5.17-2.76-7.24-4.77-2.07-2.01-3.7-4.36-4.91-7.05-1.21-2.69-1.81-5.57-1.81-8.64s.6-5.95,1.81-8.64c1.21-2.69,2.84-5.04,4.91-7.05,2.07-2.01,4.48-3.6,7.24-4.77,2.76-1.17,5.68-1.76,8.75-1.76s6.04.58,8.8,1.76c2.76,1.17,5.17,2.76,7.24,4.77,2.07,2.01,3.69,4.36,4.88,7.05s1.78,5.57,1.78,8.64-.59,5.95-1.78,8.64-2.82,5.04-4.88,7.05c-2.07,2.01-4.48,3.6-7.24,4.77-2.76,1.17-5.7,1.76-8.8,1.76s-5.99-.58-8.75-1.76ZM207.27,86.37c-1.41.6-2.64,1.43-3.7,2.47-1.06,1.04-1.89,2.28-2.5,3.7-.6,1.43-.91,2.94-.91,4.55s.3,3.13.91,4.55c.6,1.43,1.43,2.66,2.5,3.7,1.06,1.04,2.29,1.86,3.7,2.47s2.92.91,4.53.91,3.17-.3,4.58-.91c1.41-.6,2.63-1.43,3.68-2.47,1.04-1.04,1.87-2.28,2.47-3.7.6-1.43.91-2.94.91-4.55s-.3-3.13-.91-4.55-1.43-2.66-2.47-3.7c-1.04-1.04-2.27-1.87-3.68-2.47-1.41-.6-2.93-.91-4.58-.91s-3.12.3-4.53.91Z"/>
      <path class="cls-2" d="M249.65,118.11c-.26.26-.57.38-.93.38h-8.34c-.37,0-.68-.13-.93-.38-.26-.26-.38-.57-.38-.93v-40.15c0-.37.13-.68.38-.93.26-.26.57-.38.93-.38h6.69c.92,0,1.63.35,2.14,1.04l17.61,22c.11.18.25.24.41.16.16-.07.25-.2.25-.38v-21.5c0-.37.13-.68.38-.93.26-.26.57-.38.93-.38h8.28c.37,0,.68.13.93.38.26.26.38.57.38.93v40.15c0,.37-.13.68-.38.93-.26.26-.57.38-.93.38h-6.64c-.92,0-1.63-.35-2.14-1.04l-17.61-21.94c-.11-.18-.25-.24-.41-.16-.16.07-.25.2-.25.38v21.45c0,.37-.13.68-.38.93Z"/>
    </g>
    <path class="cls-2" d="M83.58,158.45h-38.1c-4.05,0-7.37-3.32-7.37-7.37v-25.16h81.76l-36.29,32.53Z"/>
    <path class="cls-2" d="M235.8,158.45h38.1c4.05,0,7.37-3.32,7.37-7.37v-25.16s-81.76,0-81.76,0l36.29,32.53Z"/>
    <g>
      <path class="cls-2" d="M125.04,144.82c-.06-.19.01-.42.21-.68,1.37-1.89,2.03-2.83,3.34-4.68.18-.26.43-.48.73-.67.3-.18.58-.27.83-.28,4.94-.02,7.47-.03,12.58-.05.26,0,.44.09.55.27.11.18.11.41,0,.67-2.61,6.46-3.96,9.92-7.36,16.57-.14.27-.39.5-.75.69-.36.19-.74.29-1.11.29-2.46,0-3.67,0-6.05,0-.36,0-.61-.1-.73-.29-.13-.19-.1-.43.08-.7.31-.48.47-.72.77-1.19.09-.14.07-.23-.06-.27-.13-.04-.28,0-.46.1-1.7.96-3.63,1.69-5.74,2.2-2.11.51-4.11.77-5.91.77-2.83,0-4.99-.45-6.41-1.34-1.43-.9-2.12-2.12-2.22-3.64-.1-1.52.41-3.29,1.36-5.27.96-1.98,2.38-4.06,4.23-6.24,1.85-2.18,3.89-4.19,6.18-6.05,2.29-1.86,4.63-3.47,7.01-4.83,2.38-1.36,4.7-2.43,6.91-3.2,2.21-.77,4.14-1.15,5.83-1.15,1.87,0,3.23.45,4.29,1.36,1.06.91,1.8,2.15,2.29,3.76.04.2,0,.41-.13.65-.13.24-.3.42-.54.54-2.19,1.25-3.35,1.89-5.82,3.17-.66.34-1.09.29-1.24-.14-.26-.74-.7-1.31-1.32-1.71-.62-.41-1.43-.61-2.45-.6-1,0-2.09.22-3.3.64-1.2.42-2.42.99-3.64,1.72-1.23.73-2.43,1.59-3.62,2.6-1.19,1.01-2.25,2.08-3.18,3.23-.93,1.15-1.61,2.25-2.03,3.28-.42,1.04-.57,1.95-.43,2.72.14.77.58,1.39,1.34,1.84.75.45,1.8.68,3.1.69,1.49,0,3.1-.29,4.76-.88,1.66-.59,3.23-1.39,4.67-2.39.31-.22.53-.45.68-.69.03-.05.04-.07.07-.12.16-.27.09-.41-.2-.41-2.7,0-4.03,0-6.62-.01-.28,0-.45-.1-.5-.28Z"/>
      <path class="cls-2" d="M158.29,126.56c.17-.13.34-.2.54-.2,1.58,0,2.37,0,3.96,0,.19,0,.38.07.56.2.18.13.33.31.45.53,5.7,10.67,13.13,20.49,21.65,29.06.2.21.26.41.17.59-.09.18-.3.27-.64.27-3.83,0-5.79,0-9.76,0-.43,0-.83-.08-1.19-.24-.36-.16-.65-.37-.86-.63-.88-1.16-1.31-1.75-2.14-2.94-.35-.52-.88-.78-1.6-.78-5.76-.02-8.7-.03-14.5-.05-.72,0-1.25.26-1.6.77-.82,1.19-1.25,1.78-2.18,2.96-.22.27-.51.48-.89.64-.37.16-.78.24-1.21.24-4.02,0-6.02,0-9.94,0-.35,0-.56-.1-.64-.29-.08-.19-.02-.39.2-.61,8.41-8.16,15.03-18.04,19.22-28.98.09-.23.21-.41.38-.54ZM165.5,144.68c.09-.17.08-.34,0-.54-1.7-3.15-2.46-4.72-3.75-7.72-.06-.13-.15-.2-.28-.2s-.21.07-.25.2c-.9,3.01-1.46,4.58-2.87,7.71-.07.19-.05.37.05.53.1.16.28.25.53.25,2.43,0,3.65,0,6.07.01.25,0,.41-.08.5-.25Z"/>
      <path class="cls-2" d="M189.9,156.73c-.35-.18-.59-.4-.72-.66-4.89-9.71-9.64-19.54-15.09-28.96-.13-.22-.17-.4-.13-.55.04-.15.16-.22.34-.22,3.63,0,5.51,0,9.53-.01,1.63,0,3.33.24,5.08.76,1.76.51,3.51,1.22,5.24,2.17,1.73.95,3.38,2.09,4.96,3.46,1.58,1.37,3.01,2.86,4.3,4.47,1.36,1.69,2.44,3.34,3.24,4.89.8,1.56,1.23,2.93,1.24,4.1.01,1.17-.43,2.09-1.39,2.77s-2.54,1.01-4.75,1c-2.11,0-3.2-.01-5.43-.02-.24,0-.39.08-.47.25-.07.16-.04.36.11.58,1.45,2.19,2.17,3.28,3.6,5.34.18.26.21.48.1.66-.11.18-.34.27-.68.27-3.11,0-4.72,0-8.03,0-.36,0-.72-.09-1.07-.27ZM194.66,135.46c-.59-.57-1.22-1.07-1.88-1.49-.66-.43-1.35-.75-2.04-.99-.7-.24-1.4-.35-2.11-.35-1.56.01-2.33.02-3.88.03-.18,0-.29.08-.32.23-.03.15.02.33.16.54,2.09,3.05,3.17,4.71,5.33,8.03.14.22.35.42.62.58.27.17.51.25.73.25,1.81,0,2.71,0,4.47,0,1.64,0,2.41-.49,2.32-1.45-.08-.96-.69-2.17-1.79-3.58-.48-.62-1.02-1.22-1.61-1.79Z"/>
    </g>
  </g>
  <g>
    <path class="cls-2" d="M209.64,157.06c.28.17.7.32,1.13.32.64,0,1.02-.34,1.02-.83,0-.46-.26-.72-.92-.97-.8-.28-1.29-.7-1.29-1.38,0-.76.63-1.33,1.58-1.33.5,0,.86.12,1.08.24l-.17.51c-.16-.09-.49-.23-.93-.23-.67,0-.92.4-.92.73,0,.46.3.68.97.94.83.32,1.25.72,1.25,1.44,0,.75-.56,1.41-1.71,1.41-.47,0-.99-.14-1.25-.31l.16-.53Z"/>
    <path class="cls-2" d="M217.41,155.68c-.04-.68-.08-1.5-.07-2.11h-.02c-.17.57-.37,1.18-.62,1.86l-.86,2.37h-.48l-.79-2.33c-.23-.69-.43-1.32-.57-1.9h-.01c-.01.61-.05,1.43-.09,2.16l-.13,2.09h-.6l.34-4.89h.8l.83,2.36c.2.6.37,1.14.49,1.65h.02c.12-.49.3-1.03.51-1.65l.87-2.36h.8l.3,4.89h-.62l-.12-2.15Z"/>
  </g>
</svg>